SplineFontDB: 3.0
FontName: Suravaram
FullName: Suravaram
FamilyName: Suravaram
OS2StyleName: "regular"
Weight: Regular
Copyright: This font is copyright of SiliconAndhra, USA.
Version: 1.0
FONDName: Suravaram
ItalicAngle: 0
UnderlinePosition: 0
UnderlineWidth: 0
Ascent: 784
Descent: 196
InvalidEm: 1
UFOAscent: 875
UFODescent: -250
LayerCount: 2
Layer: 0 0 "Back" 1
Layer: 1 0 "Fore" 0
PreferredKerning: 1
FSType: 0
OS2Version: 0
OS2_WeightWidthSlopeOnly: 0
OS2_UseTypoMetrics: 0
CreationTime: 1417776606
ModificationTime: 1417776645
PfmFamily: 16
TTFWeight: 400
TTFWidth: 5
LineGap: 0
VLineGap: 0
Panose: 0 0 0 0 0 0 0 0 0 0
OS2TypoAscent: 0
OS2TypoAOffset: 1
OS2TypoDescent: 0
OS2TypoDOffset: 1
OS2TypoLinegap: 0
OS2WinAscent: 0
OS2WinAOffset: 1
OS2WinDescent: 0
OS2WinDOffset: 1
HheadAscent: 0
HheadAOffset: 1
HheadDescent: 0
HheadDOffset: 1
OS2SubXSize: 700
OS2SubYSize: 650
OS2SubXOff: 0
OS2SubYOff: 140
OS2SupXSize: 700
OS2SupYSize: 650
OS2SupXOff: 0
OS2SupYOff: 477
OS2StrikeYSize: 50
OS2StrikeYPos: 250
OS2CapHeight: 596
OS2XHeight: 410
OS2Vendor: 'pyrs'
Lookup: 258 0 0 "'kern' Horizontal Kerning lookup 0" { "'kern' Horizontal Kerning lookup 0 subtable"  } ['kern' ('DFLT' <'dflt' > ) ]
DEI: 91125
KernClass3: 4 3 "'kern' Horizontal Kerning lookup 0 subtable"
 10 "@MMK_L_V" "V"
 10 "@MMK_L_W" "W"
 10 "@MMK_L_Y" "Y"
 10 "@MMK_R_agrave" "aacute acircumflex adieresis agrave aring atilde ae ccedilla eacute ecircumflex edieresis egrave oacute ocircumflex odieresis ograve oslash otilde oe uni0201 uni0203 uni0205 uni0207 uni020D uni020F"
 10 "@MMK_R_d" "d"
 0 0 {} 0 0 {} 0 0 {} 0 0 {} 0 0 {} 0 0 {} 0 0 {} 0 0 {} 0 0 {} 0 0 {} 0 0 {} 0 0 {}
Group: "@MMK_L_V" "V"
Group: "@MMK_L_W" "W"
Group: "@MMK_L_Y" "Y"
Group: "@MMK_R_agrave" "aacute acircumflex adieresis agrave aring atilde ae ccedilla eacute ecircumflex edieresis egrave oacute ocircumflex odieresis ograve oslash otilde oe uni0201 uni0203 uni0205 uni0207 uni020D uni020F"
Group: "@MMK_R_d" "d"
GroupKern: "Kaottu" "RMatra" 28

StartChar: A
Encoding: 1 65 1
GlifName: A_
Width: 487
VWidth: 0
Flags: HW
LayerCount: 2
Back
Fore
SplineSet
145 48 m 256
 145 38.0795110348 167.715402778 37 177 37 c 257
 172 -4 l 257
 150 -1 125 0 95 0 c 256
 56 0 27 -1 1 -4 c 257
 11 37 l 257
 22 38 l 257
 50.9213507953 38 58.7496017545 54.2488052634 66 76 c 256
 83 123 107 182 131 243 c 256
 143 274 155 305 167 336 c 256
 179 367 191 397 203 426 c 257
 235 426 l 258
 247 426 254 425 263 423 c 257
 284 413 301 400 309 379 c 256
 345.638657371 280.357460923 386.774370786 171.145924806 421 79 c 256
 428.330439012 61.4069463708 429.60323915 53.0951412749 437 42 c 257
 441 41 445 41 451 40 c 256
 458 40 466 39 479 38 c 257
 487 -4 l 257
 445 0 413 0 392 0 c 256
 385 0 371 0 355 -1 c 256
 338 -1 319 -2 300 -4 c 257
 297 36 l 257
 307.250146061 36 328 36.695118224 328 45 c 257
 326 57 322 70 317 84 c 258
 303 122 l 257
 165 122 l 257
 153 86 l 258
 148 69 145 58 145 48 c 256
232 343 m 257
 174 160 l 257
 291 160 l 257
 283 187 273 218 263 249 c 256
 254 281 244 313 234 343 c 257
 232 343 l 257
EndSplineSet
EndChar

StartChar: AA
Encoding: 2 3078 2
GlifName: A_A_
Width: 565
VWidth: 0
Flags: HW
LayerCount: 2
Back
Fore
SplineSet
159 375 m 256
 179.522038221 375 194 339.452901983 194 316 c 256
 194 309 191 304 186 300 c 257
 183 295 177 292 170 292 c 256
NamedP: "hr00"
 146.579426898 292 136 327.545695439 136 353 c 256
 136 363.779613178 147.790443351 375 159 375 c 256
390 363 m 256
 424.049784777 363 468 325.559050961 468 291 c 256
 468 280 464 270 455 261 c 257
 448 252 438 246 425 244 c 257
 425 245 l 257
 402 258 384 272 370 287 c 256
 355 302 348 315 348 328 c 256
 348 348.248900172 367.77542569 363 390 363 c 256
275 353 m 256
 275 392.595586566 241.070872679 426 201 426 c 256
 160 426 120 406 84 364 c 256
 47 322 30 274 30 225 c 256
 30 169 58 117 113 70 c 256
 168 23 227 -1 291 -1 c 256
 344 -1 394 15 440 47 c 256
 484 78 506 113 506 151 c 256
 506 181.111833344 489.610791375 207.833525175 471 219 c 257
 494 238 511 258 523 279 c 256
 536 300 542 321 542 340 c 256
 542 387.03109776 503.043456868 426 456 426 c 258
 420 426 l 258
 393 426 365 412 338 384 c 256
 310 355 298 326 298 298 c 256
 298 263.980214516 329.297394853 233.607261549 355 220 c 257
 219 220 l 257
 182 157 l 257
 384 157 l 258
 394 157 406 161 420 169 c 257
 429.027691535 159.972308465 431 140.908789965 431 121 c 256
 431 87.7523415949 398.037717177 62 365 62 c 258
 316 62 l 258
 259 62 211 82 171 121 c 256
 131 160 111 205 111 258 c 257
 115.832640562 248.334718876 135.550822599 242 152 242 c 256
 179 242 207 253 235 278 c 256
 263 302 275 328 275 353 c 256
EndSplineSet
EndChar

StartChar: AAMatra
Encoding: 3 3134 3
GlifName: A_A_M_atra
Width: 664
VWidth: 0
Flags: HW
LayerCount: 2
Back
Fore
SplineSet
590 257 m 256
 590 206.57380875 551.799145656 170 502 170 c 256
NamedP: "hr00"
 457.550462191 170 411 201.041099389 411 245 c 256
 411 264 420 284 438 305 c 256
 457 326 475 337 491 337 c 256
 539.934425092 337 590 305.545267994 590 257 c 256
435 337 m 257
 395.515808369 314.682848208 356 258.395731463 356 198 c 256
 356 143.190490617 415.213383422 103 473 103 c 256
 512 103 550 122 585 160 c 256
 620 199 638 239 638 280 c 256
 638 315 626 345 600 372 c 256
 575 397 545 409 509 409 c 258
 -202 409 l 257
 -226 337 l 257
 435 337 l 257
EndSplineSet
EndChar

StartChar: AE
Encoding: 4 198 4
GlifName: A_E_
Width: 646
VWidth: 0
Flags: HW
LayerCount: 2
Back
Fore
SplineSet
186 160 m 257
 302 160 l 257
 260 329 l 257
 186 160 l 257
396 0 m 256
 366.518172391 0 326.154733031 -2.28501570406 297 -4 c 257
 297 36 l 257
 310 37 l 258
 315.554541433 37 329 38.4641468985 329 44 c 256
 329 46 329 48 329 51 c 256
 324.688172063 72.5591396869 317.398605115 100.405579538 312 122 c 257
 174 122 l 257
 156 77 l 258
 151 65 147 55 147 48 c 256
 147 38.3671455431 161.824201218 39.7252662606 170 37 c 256
 174 37 177 37 179 37 c 257
 171 -4 l 257
 147 -1 117 0 81 0 c 256
 48 0 24 -1 0 -4 c 257
 13 37 l 257
 24 38 l 258
 34 39 42 39 50 43 c 257
 59 50 65 62 71 77 c 256
 84.7265439752 111.316359938 118.29655341 175.358624624 137 219 c 256
 158 260 179 305 201 353 c 256
 212 377 224 400 235 424 c 257
 524 424 l 257
 543 385 l 257
 549.570047375 368.574881562 559.695797873 346.608404255 567 332 c 257
 514 327 l 257
 507 341 501 356 491 371 c 257
 469 376 444 378 412 378 c 256
 395 378 374 377 339 377 c 257
 379 236 l 257
 436 236 l 258
 446 236 454 239 461 243 c 256
 471.682598429 248.341299215 475 254.972846921 475 273 c 257
 505 273 l 257
 516.563801632 234.453994559 527.797619032 193.769047677 538 155 c 257
 506 155 l 257
 498 170 491 180 485 186 c 256
 479 192 473 195 464 195 c 258
 392 195 l 257
 434 44 l 257
 525 44 l 258
 545.485910772 44 573.939431055 42.1515448443 585 51 c 257
 585 58 584 65 583 73 c 257
 583 83.0503049028 579.57985711 91.9410002275 578 103 c 257
 589 103 598 103 608 103 c 256
 617 102 626 102 637 102 c 257
 645 71 654 36 662 5 c 257
 645 3 628 1 609 -1 c 256
 591 -2 569 -2 544 -2 c 256
 492.882856768 -2 447.489121742 0 396 0 c 256
EndSplineSet
EndChar

StartChar: AI
Encoding: 5 3088 5
GlifName: A_I_
Width: 626
VWidth: 0
Flags: HW
LayerCount: 2
Back
Fore
SplineSet
224 109 m 256
 224 84.7346600182 206.324520905 62 181 62 c 256
NamedP: "hr00"
 142.622090072 62 98 102.933743366 98 140 c 256
 98 166.387954509 115.808627435 193 140 193 c 256
 181.770547937 193 224 150.772650478 224 109 c 256
30 98 m 256
 30 49.799142933 80.2404788044 -1 128 -1 c 256
 183.511443381 -1 230.470387422 23.8466973592 250 59 c 257
 282.766467026 27.9580838704 329.971011416 -1 390 -1 c 256
 443 -1 493 24 537 75 c 256
 582 127 603 183 603 243 c 256
 603 288 588 330 557 369 c 256
 526 407 492 426 456 426 c 256
 395.88745029 426 340.684390691 402.077186394 316 366 c 257
 297 385 275 399 252 410 c 256
 231 420 210 426 189 426 c 256
 151 426 116 415 84 389 c 256
 52 363 36 334 36 304 c 256
 36 274.453763625 50.4838691778 249.838710274 74 242 c 257
 155 292 l 257
 127.125905373 296.918957875 98 314.469573385 98 346 c 256
 98 368.623478048 122.025380254 382 146 382 c 256
 165 382 186 372 211 354 c 256
 236 335 264 310 292 277 c 257
 308 304 326 325 347 340 c 256
 367 355 387 363 407 363 c 256
 439 363 467 346 494 313 c 256
 520 281 534 245 534 206 c 256
 534 139.546250376 497.037943543 62 437 62 c 256
 371.385973176 62 317.932906497 103.67075953 287 146 c 257
 287 199.135254095 242.12930061 244 189 244 c 256
 150 244 113 230 80 199 c 256
 46 168 30 133 30 98 c 256
EndSplineSet
EndChar

StartChar: AIMatra
Encoding: 6 3144 6
GlifName: A_I_M_atra
Width: 601
VWidth: 0
Flags: HW
LayerCount: 2
Back
Fore
SplineSet
197 -157 m 256
 197 -170.367321212 186.34191293 -180 173 -180 c 256
NamedP: "hr00"
 146.648491448 -180 124 -159.727741241 124 -134 c 256
 124 -121.121498306 138.82966931 -111 152 -111 c 256
 176.689783504 -111 197 -132.132147605 197 -157 c 256
69 -169 m 256
 69 -207.074430309 105.78647905 -234 145 -234 c 258
 491 -234 l 257
 541 -159 l 257
 530 -167 515 -172 495 -173 c 256
 480 -174 453 -174 414 -174 c 258
 254 -174 l 257
 264.097119732 -165.585733557 275 -151.013907365 275 -134 c 256
 275 -92.9158096777 240.2858734 -63 198 -63 c 256
 133.708551157 -63 69 -105.733756193 69 -169 c 256
285 367 m 257
 295.897092258 347.385233936 327.983195466 337 361 337 c 256
 384 337 410 358 438 400 c 256
 465 442 479 480 479 514 c 256
 479 530 473 544 462 557 c 257
 450 568 436 573 420 573 c 258
 140 573 l 257
 74 501 l 257
 368 501 l 258
 393.705798796 501 413 475.589994716 413 449 c 256
 413 427.682819313 398.26317721 409 378 409 c 256
 354.646096095 409 338.885978497 419.416024575 327 433 c 257
 285 367 l 257
EndSplineSet
EndChar

StartChar: AU
Encoding: 7 3092 7
GlifName: A_U_
Width: 765
VWidth: 0
Flags: HW
LayerCount: 2
Back
Fore
SplineSet
681 449 m 256
 681 425.133799121 660.686112738 407 639 407 c 256
NamedP: "hr00"
 599.292273473 407 562 434.768216941 562 474 c 256
 562 497.796726256 585.318824263 515 610 515 c 256
 646.505037841 515 681 485.278779336 681 449 c 256
274 321 m 256
 274 301.748931436 262.189847339 280 244 280 c 256
 217.260065186 280 191 312.763580705 191 340 c 256
 191 361.682887962 207.12748917 382 227 382 c 256
 252.148338358 382 274 347.263432647 274 321 c 256
205 230 m 257
 177.151570776 205.427856567 146 167.995275803 146 121 c 256
 146 94 159 67 187 39 c 256
 215 11 242 -1 269 -1 c 256
 286 -1 305 5 325 17 c 256
 344 28 364 44 385 65 c 257
 405 44 425 28 444 17 c 256
 465 5 483 -1 500 -1 c 256
 537 -1 575 16 613 50 c 256
 652 84 671 118 671 151 c 256
 671 174.396133413 665.511955768 197.348603023 652 207 c 257
 589 145 l 257
 603.869754751 141.282561312 614 126.197560965 614 109 c 256
 614 84.0543931556 582.470697229 67 555 67 c 256
 501.785342193 67 463.817660746 107.247323945 433 141 c 257
 412 121 391 107 369 96 c 256
 348 86 327 80 306 80 c 256
 258.023043169 80 216 111.376392773 216 158 c 256
 216 192.691988748 245.889974042 219.931233776 270 235 c 257
 295 254 315 272 328 290 c 256
 342 309 349 325 349 340 c 256
 349 369.029204647 326.494921609 389.5042971 307 406 c 257
 326.721369395 422.687312565 349 449.362070314 349 480 c 256
 349 491.167664617 342.791049725 501.014917125 338 509 c 257
 527 509 l 257
 508.877782708 490.877782708 486 462.724400141 486 431 c 256
 486 409 498 387 522 368 c 256
 547 348 574 339 603 339 c 256
 634 339 666 356 697 390 c 256
 728 424 743 458 743 491 c 256
 743 541.520932458 703.557531748 584 652 584 c 258
 80 584 l 257
 30 509 l 257
 185 509 l 258
 222.104425918 509 286 487.368410213 286 455 c 256
 286 437.649575318 268.421935554 426 251 426 c 256
 206.671801907 426 175.980845948 448.094687064 153 476 c 257
 110 406 l 257
 121.461934159 391.263227509 142.353211132 377.294087652 163 375 c 257
 144.071024211 359.512656173 129 329.278190263 129 298 c 256
 129 279 136 263 151 250 c 256
 168 237 186 230 205 230 c 257
EndSplineSet
EndChar

StartChar: Aacute
Encoding: 8 193 8
GlifName: A_acute
Width: 487
VWidth: 0
Flags: HW
LayerCount: 2
Back
Fore
SplineSet
338 571 m 257
 309.994507909 534.992938741 285.938672718 511.37630302 246 467 c 257
 191 467 l 257
 203 491 212 510 221 527 c 256
 226.857701907 542.620538419 235.525856939 555.893666191 242 571 c 257
 338 571 l 257
145 48 m 256
 145 38.0795110348 167.715402778 37 177 37 c 257
 172 -4 l 257
 150 -1 125 0 95 0 c 256
 56 0 27 -1 1 -4 c 257
 11 37 l 257
 22 38 l 257
 50.9213507953 38 58.7496017545 54.2488052634 66 76 c 256
 83 123 107 182 131 243 c 256
 143 274 155 305 167 336 c 256
 179 367 191 397 203 426 c 257
 235 426 l 258
 247 426 254 425 263 423 c 257
 284 413 301 400 309 379 c 256
 345.638657371 280.357460923 386.774370786 171.145924806 421 79 c 256
 428.330439012 61.4069463708 429.60323915 53.0951412749 437 42 c 257
 441 41 445 41 451 40 c 256
 458 40 466 39 479 38 c 257
 487 -4 l 257
 445 0 413 0 392 0 c 256
 385 0 371 0 355 -1 c 256
 338 -1 319 -2 300 -4 c 257
 297 36 l 257
 307.250146061 36 328 36.695118224 328 45 c 257
 326 57 322 70 317 84 c 258
 303 122 l 257
 165 122 l 257
 153 86 l 258
 148 69 145 58 145 48 c 256
232 343 m 257
 174 160 l 257
 291 160 l 257
 283 187 273 218 263 249 c 256
 254 281 244 313 234 343 c 257
 232 343 l 257
EndSplineSet
EndChar

StartChar: Acircumflex
Encoding: 9 194 9
GlifName: A_circumflex
Width: 487
VWidth: 0
Flags: HW
LayerCount: 2
Back
Fore
SplineSet
306 467 m 258
 263 467 l 257
 219 523 l 257
 175 467 l 257
 131 467 l 258
 122 467 117 470 116 474 c 257
 117 479 119 484 122 487 c 258
 178 568 l 257
 259 568 l 257
 308 497 l 258
 314 489 320 482 321 474 c 257
 320 470 315 467 306 467 c 258
  PathStart: -2
145 48 m 256
 145 38.0795110348 167.715402778 37 177 37 c 257
 172 -4 l 257
 150 -1 125 0 95 0 c 256
 56 0 27 -1 1 -4 c 257
 11 37 l 257
 22 38 l 257
 50.9213507953 38 58.7496017545 54.2488052634 66 76 c 256
 83 123 107 182 131 243 c 256
 143 274 155 305 167 336 c 256
 179 367 191 397 203 426 c 257
 235 426 l 258
 247 426 254 425 263 423 c 257
 284 413 301 400 309 379 c 256
 345.638657371 280.357460923 386.774370786 171.145924806 421 79 c 256
 428.330439012 61.4069463708 429.60323915 53.0951412749 437 42 c 257
 441 41 445 41 451 40 c 256
 458 40 466 39 479 38 c 257
 487 -4 l 257
 445 0 413 0 392 0 c 256
 385 0 371 0 355 -1 c 256
 338 -1 319 -2 300 -4 c 257
 297 36 l 257
 307.250146061 36 328 36.695118224 328 45 c 257
 326 57 322 70 317 84 c 258
 303 122 l 257
 165 122 l 257
 153 86 l 258
 148 69 145 58 145 48 c 256
232 343 m 257
 174 160 l 257
 291 160 l 257
 283 187 273 218 263 249 c 256
 254 281 244 313 234 343 c 257
 232 343 l 257
EndSplineSet
EndChar

StartChar: Adieresis
Encoding: 10 196 10
GlifName: A_dieresis
Width: 487
VWidth: 0
Flags: HW
LayerCount: 2
Back
Fore
SplineSet
144 561 m 256
 172.092907395 561 194 542.56739774 194 515 c 256
 194 486 174 467 144 467 c 256
 114 467 95 485 95 515 c 256
 95 542.06004264 116.622910648 561 144 561 c 256
293 561 m 256
 320.924946605 561 342 543.090286614 342 515 c 256
 342 485 323 467 293 467 c 256
 263 467 243 485 243 515 c 256
 243 542.558591927 265.415739935 561 293 561 c 256
145 48 m 256
 145 38.0795110348 167.715402778 37 177 37 c 257
 172 -4 l 257
 150 -1 125 0 95 0 c 256
 56 0 27 -1 1 -4 c 257
 11 37 l 257
 22 38 l 257
 50.9213507953 38 58.7496017545 54.2488052634 66 76 c 256
 83 123 107 182 131 243 c 256
 143 274 155 305 167 336 c 256
 179 367 191 397 203 426 c 257
 235 426 l 258
 247 426 254 425 263 423 c 257
 284 413 301 400 309 379 c 256
 345.638657371 280.357460923 386.774370786 171.145924806 421 79 c 256
 428.330439012 61.4069463708 429.60323915 53.0951412749 437 42 c 257
 441 41 445 41 451 40 c 256
 458 40 466 39 479 38 c 257
 487 -4 l 257
 445 0 413 0 392 0 c 256
 385 0 371 0 355 -1 c 256
 338 -1 319 -2 300 -4 c 257
 297 36 l 257
 307.250146061 36 328 36.695118224 328 45 c 257
 326 57 322 70 317 84 c 258
 303 122 l 257
 165 122 l 257
 153 86 l 258
 148 69 145 58 145 48 c 256
232 343 m 257
 174 160 l 257
 291 160 l 257
 283 187 273 218 263 249 c 256
 254 281 244 313 234 343 c 257
 232 343 l 257
EndSplineSet
EndChar

StartChar: Agrave
Encoding: 11 192 11
GlifName: A_grave
Width: 487
VWidth: 0
Flags: HW
LayerCount: 2
Back
Fore
SplineSet
103 571 m 257
 195 571 l 257
 246 468 l 257
 237 468 228 468 218 468 c 256
 209 467 200 467 191 467 c 257
 103 571 l 257
145 48 m 256
 145 38.0795110348 167.715402778 37 177 37 c 257
 172 -4 l 257
 150 -1 125 0 95 0 c 256
 56 0 27 -1 1 -4 c 257
 11 37 l 257
 22 38 l 257
 50.9213507953 38 58.7496017545 54.2488052634 66 76 c 256
 83 123 107 182 131 243 c 256
 143 274 155 305 167 336 c 256
 179 367 191 397 203 426 c 257
 235 426 l 258
 247 426 254 425 263 423 c 257
 284 413 301 400 309 379 c 256
 345.638657371 280.357460923 386.774370786 171.145924806 421 79 c 256
 428.330439012 61.4069463708 429.60323915 53.0951412749 437 42 c 257
 441 41 445 41 451 40 c 256
 458 40 466 39 479 38 c 257
 487 -4 l 257
 445 0 413 0 392 0 c 256
 385 0 371 0 355 -1 c 256
 338 -1 319 -2 300 -4 c 257
 297 36 l 257
 307.250146061 36 328 36.695118224 328 45 c 257
 326 57 322 70 317 84 c 258
 303 122 l 257
 165 122 l 257
 153 86 l 258
 148 69 145 58 145 48 c 256
232 343 m 257
 174 160 l 257
 291 160 l 257
 283 187 273 218 263 249 c 256
 254 281 244 313 234 343 c 257
 232 343 l 257
EndSplineSet
EndChar

StartChar: Anudatta
Encoding: 12 2386 12
GlifName: A_nudatta
Width: 0
VWidth: 0
Flags: HW
LayerCount: 2
Back
Fore
SplineSet
121 -424 m 257
 121 -455 121 -486 121 -517 c 257
 525 -517 l 257
 525 -424 l 257
 121 -424 l 257
EndSplineSet
EndChar

StartChar: Anusvara
Encoding: 13 3074 13
GlifName: A_nusvara
Width: 499
VWidth: 0
Flags: HW
LayerCount: 2
Back
Fore
SplineSet
419 183 m 256
 419 93.3223020657 342.592577312 50 249 50 c 256
NamedP: "hr00"
 165.683765287 50 100 121.294762037 100 206 c 256
 100 264.363340875 125.231571101 310.563428296 159 339 c 257
 226 339 l 258
 275 339 318 321 358 289 c 256
 398 256 419 222 419 183 c 256
126 345 m 257
 77.7852858446 306.428228676 30 241.676942304 30 164 c 256
 30 123 46 85 81 50 c 256
 116 15 154 -1 194 -1 c 258
 269 -1 l 258
 317 -1 363 24 408 74 c 256
 453 125 476 177 476 231 c 256
 476 280 450 324 397 365 c 256
 345 406 288 426 226 426 c 258
 85 426 l 257
 85 345 l 257
 126 345 l 257
EndSplineSet
EndChar

StartChar: Arasunna
Encoding: 14 3073 14
GlifName: A_rasunna
Width: 329
VWidth: 0
Flags: HW
LayerCount: 2
Back
Fore
SplineSet
306 406 m 257
 297.416858143 418.016398599 281.446679027 426 262 426 c 258
 214 426 l 257
 157 393 112 354 79 309 c 256
 46 263 30 217 30 170 c 256
 30 129 47 90 84 53 c 256
 121 16 159 -1 200 -1 c 257
 200 -3 l 257
NamedP: "hr00"
 266 68 l 257
 255 64 243 62 231 62 c 256
 200 62 171 77 145 107 c 256
 118 138 105 171 105 206 c 256
 105 263.993524355 124.569532403 308.674167896 153 339 c 256
 163.521986026 351.626383232 178.661738542 358 201 358 c 256
 223.130253633 358 239.426691119 342.61519967 250 326 c 257
 306 406 l 257
EndSplineSet
EndChar

StartChar: Aring
Encoding: 15 197 15
GlifName: A_ring
Width: 487
VWidth: 0
Flags: HW
LayerCount: 2
Back
Fore
SplineSet
219 525 m 256
 196 525 182 511 182 489 c 256
 182 466 196 452 219 452 c 256
 241 452 256 466 256 489 c 256
 256 511 242 525 219 525 c 256
  PathStart: -2
284 489 m 256
 284 450.437711684 257.861886949 427 219 427 c 256
 180.963795614 427 153 451.55697113 153 489 c 256
 153 525.64960846 182.044326358 551 219 551 c 256
 255.709332634 551 284 526.168941793 284 489 c 256
145 48 m 256
 145 38.0795110348 167.715402778 37 177 37 c 257
 172 -4 l 257
 150 -1 125 0 95 0 c 256
 56 0 27 -1 1 -4 c 257
 11 37 l 257
 22 38 l 257
 50.9213507953 38 58.7496017545 54.2488052634 66 76 c 256
 83 123 107 182 131 243 c 256
 143 274 155 305 167 336 c 256
 179 367 191 397 203 426 c 257
 235 426 l 258
 247 426 254 425 263 423 c 257
 284 413 301 400 309 379 c 256
 345.638657371 280.357460923 386.774370786 171.145924806 421 79 c 256
 428.330439012 61.4069463708 429.60323915 53.0951412749 437 42 c 257
 441 41 445 41 451 40 c 256
 458 40 466 39 479 38 c 257
 487 -4 l 257
 445 0 413 0 392 0 c 256
 385 0 371 0 355 -1 c 256
 338 -1 319 -2 300 -4 c 257
 297 36 l 257
 307.250146061 36 328 36.695118224 328 45 c 257
 326 57 322 70 317 84 c 258
 303 122 l 257
 165 122 l 257
 153 86 l 258
 148 69 145 58 145 48 c 256
232 343 m 257
 174 160 l 257
 291 160 l 257
 283 187 273 218 263 249 c 256
 254 281 244 313 234 343 c 257
 232 343 l 257
EndSplineSet
EndChar

StartChar: Atilde
Encoding: 16 195 16
GlifName: A_tilde
Width: 487
VWidth: 0
Flags: HW
LayerCount: 2
Back
Fore
SplineSet
101 483 m 257
 115.189178783 515.635111201 137.624419584 545 175 545 c 256
 204.968878019 545 228.172784165 529.413607918 251 518 c 256
 256 515 261 514 266 514 c 256
 283.845898858 514 296.357342366 530.833798853 302 544 c 257
 314 540 325 537 336 531 c 257
 314 490 292 467 263 467 c 256
 235.241781811 467 202.737639159 486.63118042 182 497 c 256
 176 499 173 499 169 499 c 256
 149.348602326 499 142.005053203 480.005053203 132 470 c 257
 122 473 111 477 101 483 c 257
145 48 m 256
 145 38.0795110348 167.715402778 37 177 37 c 257
 172 -4 l 257
 150 -1 125 0 95 0 c 256
 56 0 27 -1 1 -4 c 257
 11 37 l 257
 22 38 l 257
 50.9213507953 38 58.7496017545 54.2488052634 66 76 c 256
 83 123 107 182 131 243 c 256
 143 274 155 305 167 336 c 256
 179 367 191 397 203 426 c 257
 235 426 l 258
 247 426 254 425 263 423 c 257
 284 413 301 400 309 379 c 256
 345.638657371 280.357460923 386.774370786 171.145924806 421 79 c 256
 428.330439012 61.4069463708 429.60323915 53.0951412749 437 42 c 257
 441 41 445 41 451 40 c 256
 458 40 466 39 479 38 c 257
 487 -4 l 257
 445 0 413 0 392 0 c 256
 385 0 371 0 355 -1 c 256
 338 -1 319 -2 300 -4 c 257
 297 36 l 257
 307.250146061 36 328 36.695118224 328 45 c 257
 326 57 322 70 317 84 c 258
 303 122 l 257
 165 122 l 257
 153 86 l 258
 148 69 145 58 145 48 c 256
232 343 m 257
 174 160 l 257
 291 160 l 257
 283 187 273 218 263 249 c 256
 254 281 244 313 234 343 c 257
 232 343 l 257
EndSplineSet
EndChar

StartChar: AuMatra
Encoding: 17 3148 17
GlifName: A_uM_atra
Width: 635
VWidth: 0
Flags: HW
LayerCount: 2
Back
Fore
SplineSet
548 437 m 256
 548 410.760510077 528.243242869 391 502 391 c 256
NamedP: "hr00"
 460.98744736 391 416 441.320930957 416 484 c 256
 416 513.794274529 434.40519875 541 462 541 c 256
 506.880481394 541 548 484.295877507 548 437 c 256
401 535 m 257
 376.198862509 519.737761544 356 483.095699981 356 443 c 256
 356 414 368 386 395 361 c 256
 421 336 449 325 480 325 c 256
 509 325 537 342 566 375 c 256
 595 408 609 441 609 473 c 256
 609 544.028496358 556.511671338 608 486 608 c 258
 -91 608 l 257
 -151 535 l 257
 -15 535 l 258
 30.2513300899 535 71 504.627762798 71 461 c 256
 71 433.303503912 51.702403263 409 26 409 c 256
 -11.4511379426 409 -39.6849308987 433.388542135 -57 457 c 257
 -115 390 l 257
 -94.2562761618 357.941517705 -49.5388998893 337 2 337 c 256
 27 337 57 356 92 393 c 256
 127 430 144 463 144 490 c 256
 144 506.20525275 139.330543749 524.449093752 133 535 c 257
 401 535 l 257
EndSplineSet
EndChar

StartChar: Avagraha
Encoding: 18 3133 18
GlifName: A_vagraha
Width: 734
VWidth: 0
Flags: HW
LayerCount: 2
Back
Fore
SplineSet
44 59 m 256
 44 31.5105860059 60.1586314455 10.9899618074 79 -1 c 257
 674 -1 l 257
NamedP: "hr00"
 735 71 l 257
 133 71 l 257
 124.132593262 78.6006343469 110 88.2263066659 110 100 c 256
 110 113 122 126 146 141 c 256
 168 156 198 169 237 180 c 256
 282 193 318 210 347 232 c 256
 375 254 389 276 389 298 c 256
 389 355.105016432 347.191948988 409 290 409 c 258
 196 409 l 258
 159 409 124 394 92 363 c 256
 60 332 44 299 44 263 c 256
 44 237.386750526 57.6840503015 216.34941339 74 203 c 257
 157 251 l 257
 142.050798407 265.949201593 128 278.427290071 128 304 c 256
 128 347.619870205 168.762066868 378 214 378 c 256
 264.877874696 378 312 341.530457562 312 292 c 256
 312 274 300 258 276 240 c 256
 253 223 222 209 184 199 c 256
 116.816603174 182.613805652 44 134.573195214 44 59 c 256
EndSplineSet
EndChar

StartChar: B
Encoding: 19 66 19
GlifName: B_
Width: 445
VWidth: 0
Flags: HW
LayerCount: 2
Back
Fore
SplineSet
415 116 m 256
 415 3.3575116367 300.823688159 -2 188 -2 c 256
 159 -2 131 -1 104 -1 c 256
 77 -1 51 -1 26 -1 c 257
 26 44 l 257
 50 44 l 258
 59 44 68 44 76 45 c 257
 85 50 86 63 86 80 c 258
 86 337 l 258
 86 353 85 365 83 375 c 257
 74 375 65 376 56 376 c 256
 44 376 32 375 20 375 c 257
 20 417 l 257
 83 423 153 426 236 426 c 256
 349 426 405 388 405 312 c 256
 405 262.048155106 365.347216752 229.67040451 322 218 c 257
 384 206 415 172 415 116 c 256
211 236 m 256
 266.822265576 236 308 255.863927031 308 310 c 256
 308 358 284 381 223 381 c 256
 209 381 200 381 194 380 c 257
 183 380 l 257
 183 237 l 257
 187 236 192 236 197 236 c 256
 201 236 206 236 211 236 c 256
317 114 m 256
 317 183.242717751 273.798916626 194 200 194 c 256
 194 194 188 194 183 193 c 257
 183 44 l 257
 202 43 221 43 238 43 c 256
 293 43 317 69 317 114 c 256
EndSplineSet
EndChar

StartChar: Ba
Encoding: 20 3116 20
GlifName: B_a
Width: 626
VWidth: 0
Flags: HW
LayerCount: 2
Back
Fore
SplineSet
176 321 m 256
 176 299.893416907 164.910141709 280 145 280 c 256
NamedP: "hr00"
 118.772424762 280 93 314.574109822 93 340 c 256
 93 362.811858949 108.199786001 382 129 382 c 256
 154.148338358 382 176 347.263432647 176 321 c 256
107 230 m 257
 78.8746781525 208.124749674 49 166.473388423 49 121 c 256
 49 96 64 70 94 44 c 256
 125 17 154 5 183 5 c 256
 227.940523215 5 267.180311728 37.2603484019 292 65 c 257
 313 44 332 28 351 17 c 256
 372 5 390 -1 407 -1 c 256
 456 -1 501 19 542 60 c 256
 583 101 603 145 603 194 c 256
 603 251 580 305 531 354 c 256
 482 403 428 426 370 426 c 257
 320 352 l 257
 379 352 432 332 480 294 c 256
 528 256 553 215 553 170 c 256
 553 116.226346012 510.167650662 67 456 67 c 256
 399.783911472 67 361.073966133 105.871370426 329 141 c 257
 308 121 287 106 266 96 c 256
 245 85 226 80 207 80 c 256
 159.620035363 80 117 111.376392773 117 158 c 256
 117 193.050646484 146.691780842 220.11281226 172 235 c 257
 197 254 217 272 230 290 c 256
 244 309 251 325 251 340 c 256
 251 387.03109776 212.043456868 426 165 426 c 256
 132 426 101 413 73 386 c 256
 44 359 30 329 30 298 c 256
 30 259.215532977 68.5878786724 230 107 230 c 257
EndSplineSet
EndChar

StartChar: BaAA
Encoding: 21 -1 21
GlifName: B_aA_A_
Width: 1005
VWidth: 0
Flags: HW
LayerCount: 2
Back
Fore
SplineSet
184 5 m 256
 227.804597318 5 267.58373837 37.7112370022 292 65 c 257
 313 44 332 28 351 17 c 256
 372 5 390 -1 407 -1 c 256
 456 -1 501 22 542 68 c 256
 583 115 603 165 603 219 c 256
 603 267 586 311 552 352 c 257
 771 352 l 257
NamedP: "hr00"
 727.005634298 327.363155207 689 277.14244066 689 213 c 256
 689 152.960408399 743.310142175 108 805 108 c 256
 846 108 887 127 925 167 c 256
 964 207 982 249 982 291 c 256
 982 328 970 360 943 387 c 256
 916 414 884 426 847 426 c 258
 375 426 l 257
 370 352 l 257
 414 352 l 258
 493.737554514 352 553 270.840360793 553 189 c 256
 553 128.899960371 512.363944666 67 456 67 c 256
 399.783911472 67 361.073966133 105.871370426 329 141 c 257
 308 121 287 106 266 96 c 256
 245 85 226 80 207 80 c 256
 159.620035363 80 117 111.376392773 117 158 c 256
 117 193.050646484 146.691780842 220.11281226 172 235 c 257
 197 254 217 272 230 290 c 256
 244 309 251 325 251 340 c 256
 251 387.03109776 212.043456868 426 165 426 c 256
 132 426 101 413 73 386 c 256
 44 359 30 329 30 298 c 256
 30 259.215532977 68.5878786724 230 107 230 c 257
 78.8746781525 208.124749674 49 166.473388423 49 121 c 256
 49 96 64 70 94 44 c 256
 125 17 155 5 184 5 c 256
925 255 m 256
 925 210.0210599 885.972436479 171 841 171 c 256
 789.941713084 171 740 206.892829112 740 255 c 256
 740 292.872392274 787.310392153 352 824 352 c 256
 878.012984826 352 925 308.140222638 925 255 c 256
176 321 m 256
 176 300.521881162 165.305185878 280 146 280 c 256
 119.278180519 280 93 313.917234287 93 340 c 256
 93 362.811858949 108.199786001 382 129 382 c 256
 154.148338358 382 176 347.263432647 176 321 c 256
EndSplineSet
EndChar

StartChar: BaAU
Encoding: 22 -1 22
GlifName: B_aA_U_
Width: 923
VWidth: 0
Flags: HW
LayerCount: 2
Back
Fore
SplineSet
184 5 m 256
 227.804597318 5 267.58373837 37.7112370022 292 65 c 257
 313 44 332 28 351 17 c 256
 372 5 390 -1 407 -1 c 256
 456 -1 501 22 542 68 c 256
 583 115 603 165 603 219 c 256
 603 270 584 317 545 361 c 256
 527 381 508 396 489 406 c 257
NamedP: "hr00"
 525.794203993 442.794203993 546 481.283103398 546 511 c 256
 546 531.09517212 534.166309957 549.428877179 523 559 c 257
 733 559 l 257
 709.42741743 542.680519759 686 513.337153571 686 475 c 256
 686 442 699 411 726 383 c 256
 753 354 783 340 815 340 c 256
 844 340 874 356 905 389 c 256
 935 422 950 455 950 487 c 256
 950 562.560546418 895.502363198 635 821 635 c 258
 235 635 l 257
 179 559 l 257
 381 559 l 258
 431.239489923 559 471 518.650735923 471 469 c 256
 471 443.670439624 448.434477604 427 424 427 c 256
 412 427 400 431 388 440 c 256
 375 449 362 461 351 477 c 257
 278 407 l 257
 298.025064317 376.052173329 334.564169855 356.421791507 383 354 c 257
 383 352 l 257
 414 352 l 258
 493.737554514 352 553 270.840360793 553 189 c 256
 553 128.899960371 512.363944666 67 456 67 c 256
 399.783911472 67 361.073966133 105.871370426 329 141 c 257
 308 121 287 106 266 96 c 256
 245 85 226 80 207 80 c 256
 159.620035363 80 117 111.376392773 117 158 c 256
 117 193.050646484 146.691780842 220.11281226 172 235 c 257
 197 254 217 272 230 290 c 256
 244 309 251 325 251 340 c 256
 251 387.03109776 212.043456868 426 165 426 c 256
 132 426 101 413 73 386 c 256
 44 359 30 329 30 298 c 256
 30 259.215532977 68.5878786724 230 107 230 c 257
 78.8746781525 208.124749674 49 166.473388423 49 121 c 256
 49 96 64 70 94 44 c 256
 125 17 155 5 184 5 c 256
886 456 m 256
 886 429.067684724 865.751848977 408 839 408 c 256
 795.63546103 408 748 459.548973212 748 505 c 256
 748 533.070393577 773.125992245 559 802 559 c 256
 846.510247397 559 886 502.833221182 886 456 c 256
176 321 m 256
 176 300.521881162 165.305185878 280 146 280 c 256
 119.278180519 280 93 313.917234287 93 340 c 256
 93 362.811858949 108.199786001 382 129 382 c 256
 154.148338358 382 176 347.263432647 176 321 c 256
EndSplineSet
EndChar

StartChar: BaE
Encoding: 23 -1 23
GlifName: B_aE_
Width: 626
VWidth: 0
Flags: HW
LayerCount: 2
Back
Fore
SplineSet
603 219 m 256
 603 276.318368008 573.385329841 339.345558466 527 378 c 257
NamedP: "hr00"
 536 385 546 395 556 407 c 256
 587 444 602 481 602 516 c 256
 602 556.908116596 579.085817647 597 541 597 c 258
 170 597 l 257
 102 522 l 257
 486 522 l 258
 512.395803918 522 534 500.400106999 534 474 c 256
 534 447.604196082 512.400106999 426 486 426 c 258
 449 426 l 258
 412.580721681 426 388.274281434 441.973511163 369 463 c 257
 325 395 l 257
 336.091185995 377.747044008 358.960635894 361.173227351 384 357 c 258
 414 352 l 257
 493.737554514 352 553 270.840360793 553 189 c 256
 553 128.899960371 512.363944666 67 456 67 c 256
 399.783911472 67 361.073966133 105.871370426 329 141 c 257
 308 121 287 106 266 96 c 256
 245 85 226 80 207 80 c 256
 159.620035363 80 117 111.376392773 117 158 c 256
 117 193.050646484 146.691780842 220.11281226 172 235 c 257
 197 254 217 272 230 290 c 256
 244 309 251 325 251 340 c 256
 251 387.03109776 212.043456868 426 165 426 c 256
 132 426 101 413 73 386 c 256
 44 359 30 329 30 298 c 256
 30 259.215532977 68.5878786724 230 107 230 c 257
 78.8746781525 208.124749674 49 166.473388423 49 121 c 256
 49 96 64 70 94 44 c 256
 125 17 155 5 184 5 c 256
 227.804597318 5 267.58373837 37.7112370022 292 65 c 257
 313 44 332 28 351 17 c 256
 372 5 390 -1 407 -1 c 256
 456 -1 501 22 542 68 c 256
 583 115 603 165 603 219 c 256
176 321 m 256
 176 300.521881162 165.305185878 280 146 280 c 256
 119.278180519 280 93 313.917234287 93 340 c 256
 93 362.811858949 108.199786001 382 129 382 c 256
 154.148338358 382 176 347.263432647 176 321 c 256
EndSplineSet
EndChar

StartChar: BaEE
Encoding: 24 -1 24
GlifName: B_aE_E_
Width: 626
VWidth: 0
Flags: HW
LayerCount: 2
Back
Fore
SplineSet
413 639 m 256
 413 619.756729292 423.070105705 606.108245246 434 597 c 257
 170 597 l 257
NamedP: "hr00"
 102 522 l 257
 486 522 l 258
 512.395803918 522 534 500.400106999 534 474 c 256
 534 447.604196082 512.400106999 426 486 426 c 258
 449 426 l 258
 412.580721681 426 388.274281434 441.973511163 369 463 c 257
 325 395 l 257
 336.091185995 377.747044008 358.960635894 361.173227351 384 357 c 258
 414 352 l 257
 493.737554514 352 553 270.840360793 553 189 c 256
 553 128.899960371 512.363944666 67 456 67 c 256
 399.783911472 67 361.073966133 105.871370426 329 141 c 257
 308 121 287 106 266 96 c 256
 245 85 226 80 207 80 c 256
 159.620035363 80 117 111.376392773 117 158 c 256
 117 193.050646484 146.691780842 220.11281226 172 235 c 257
 197 254 217 272 230 290 c 256
 244 309 251 325 251 340 c 256
 251 387.03109776 212.043456868 426 165 426 c 256
 132 426 101 413 73 386 c 256
 44 359 30 329 30 298 c 256
 30 259.215532977 68.5878786724 230 107 230 c 257
 78.8746781525 208.124749674 49 166.473388423 49 121 c 256
 49 96 64 70 94 44 c 256
 125 17 155 5 184 5 c 256
 227.804597318 5 267.58373837 37.7112370022 292 65 c 257
 313 44 332 28 351 17 c 256
 372 5 390 -1 407 -1 c 256
 456 -1 501 22 542 68 c 256
 583 115 603 165 603 219 c 256
 603 276.318368008 573.385329841 339.345558466 527 378 c 257
 536 385 546 395 556 407 c 256
 587 444 602 481 602 516 c 256
 602 556.908116596 579.085817647 597 541 597 c 258
 522 597 l 257
 509 609 499 620 492 629 c 256
 485 637 481 644 481 650 c 256
 481 660.552117914 488.44302887 668 499 668 c 256
 516.386567458 668 529.982945396 654.017054604 541 643 c 257
 591 686 l 257
 578.647548704 710.704902591 556.586805518 730 522 730 c 256
 503 730 480 719 453 697 c 256
 426 674 413 655 413 639 c 256
176 321 m 256
 176 300.521881162 165.305185878 280 146 280 c 256
 119.278180519 280 93 313.917234287 93 340 c 256
 93 362.811858949 108.199786001 382 129 382 c 256
 154.148338358 382 176 347.263432647 176 321 c 256
EndSplineSet
EndChar

StartChar: BaHalanth
Encoding: 25 -1 25
GlifName: B_aH_alanth
Width: 783
VWidth: 0
Flags: HW
LayerCount: 2
Back
Fore
SplineSet
184 5 m 256
 227.804597318 5 267.58373837 37.7112370022 292 65 c 257
 313 44 332 28 351 17 c 256
 372 5 390 -1 407 -1 c 256
 456 -1 501 22 542 68 c 256
 583 115 603 165 603 219 c 256
 603 270 584 317 545 361 c 256
 506 403 464 426 419 426 c 258
 400 426 l 258
NamedP: "hr00"
 375.856551456 426 352 443.217930037 352 468 c 256
 352 476 359 487 373 498 c 256
 388 510 408 521 434 534 c 257
 395.786628157 543.907170478 346 568.03453966 346 608 c 256
 346 626.078381192 368.412656746 637 387 637 c 256
 410 637 435 631 461 618 c 256
 520 589 588 575 667 575 c 256
 690 575 710 581 728 594 c 257
 830 709 l 257
 791.732426121 675.95073165 754.250460072 662 691 662 c 256
 640 662 582 670 515 687 c 256
 482 696 452 700 425 700 c 256
 392 700 361 687 333 660 c 256
 304 633 290 603 290 571 c 256
 290 543.50635462 315.697860631 520.407665039 338 510 c 257
 319 494 305 478 294 462 c 256
 283 446 278 432 278 419 c 256
 278 377.93032976 322.416590748 352 364 352 c 258
 414 352 l 258
 493.737554514 352 553 270.840360793 553 189 c 256
 553 128.899960371 512.363944666 67 456 67 c 256
 399.783911472 67 361.073966133 105.871370426 329 141 c 257
 308 121 287 106 266 96 c 256
 245 85 226 80 207 80 c 256
 159.620035363 80 117 111.376392773 117 158 c 256
 117 193.050646484 146.691780842 220.11281226 172 235 c 257
 197 254 217 272 230 290 c 256
 244 309 251 325 251 340 c 256
 251 387.03109776 212.043456868 426 165 426 c 256
 132 426 101 413 73 386 c 256
 44 359 30 329 30 298 c 256
 30 259.215532977 68.5878786724 230 107 230 c 257
 78.8746781525 208.124749674 49 166.473388423 49 121 c 256
 49 96 64 70 94 44 c 256
 125 17 155 5 184 5 c 256
176 321 m 256
 176 300.521881162 165.305185878 280 146 280 c 256
 119.278180519 280 93 313.917234287 93 340 c 256
 93 362.811858949 108.199786001 382 129 382 c 256
 154.148338358 382 176 347.263432647 176 321 c 256
EndSplineSet
EndChar

StartChar: BaI
Encoding: 26 -1 26
GlifName: B_aI_
Width: 638
VWidth: 0
Flags: HW
LayerCount: 2
Back
Fore
SplineSet
353 589 m 257
 337.54218841 547.263908706 299.958974973 499 249 499 c 256
NamedP: "hr00"
 219.083489174 499 190 516.823606773 190 546 c 256
 190 585.569423513 232.579896034 613 274 613 c 256
 291 613 307 611 321 607 c 257
 334 602 345 596 353 589 c 257
176 316 m 256
 176 296.04053877 160.234298199 280 140 280 c 256
 113.850929223 280 87 313.917234287 87 340 c 256
 87 359.765529007 102.235296196 375 122 375 c 256
 149.795180157 375 176 344.473033207 176 316 c 256
280 60 m 257
 309.106332288 30.8936677124 350.087768945 -1 400 -1 c 256
 457 -1 507 28 550 85 c 256
 593 144 615 211 615 285 c 256
 615 392 590 484 537 561 c 256
 485 637 421 675 347 675 c 256
 290 675 239 659 194 627 c 256
 150 595 128 558 128 516 c 256
 128 495 137 476 154 459 c 257
 173 444 195 437 220 437 c 256
 299.366143571 437 354.249988556 510.083302054 378 575 c 257
 480.622944011 524.621463849 559 402.811240763 559 255 c 256
 559 173.875601295 520.775022452 67 450 67 c 256
 428 67 407 75 385 89 c 256
 363 104 341 123 322 148 c 257
 300 123 278 104 256 89 c 256
 235 75 214 67 195 67 c 256
 151.240237379 67 117 106.542110169 117 151 c 256
 117 169 123 187 135 204 c 256
 147 223 163 240 185 254 c 256
 217.755491957 275.836994638 257 310.961570789 257 359 c 256
 257 399.259576744 217.193028746 426 177 426 c 256
 142 426 108 413 76 386 c 256
 45 359 30 329 30 298 c 256
 30 261.814182934 57.3235569029 230 92 230 c 256
 97 230 104 231 113 234 c 257
 86.1793472782 202.709238491 55 158.289943438 55 109 c 256
 55 80 67 54 90 32 c 256
 114 9 141 -1 171 -1 c 256
 216.527226466 -1 251.955724091 31.9557240908 280 60 c 257
EndSplineSet
EndChar

StartChar: BaII
Encoding: 27 -1 27
GlifName: B_aI_I_
Width: 638
VWidth: 0
Flags: HW
LayerCount: 2
Back
Fore
SplineSet
353 589 m 257
 337.54218841 547.263908706 299.958974973 499 249 499 c 256
NamedP: "hr00"
 219.083489174 499 190 516.823606773 190 546 c 256
 190 585.569423513 232.579896034 613 274 613 c 256
 291 613 307 611 321 607 c 257
 334 602 345 596 353 589 c 257
176 316 m 256
 176 296.04053877 160.234298199 280 140 280 c 256
 113.850929223 280 87 313.917234287 87 340 c 256
 87 359.765529007 102.235296196 375 122 375 c 256
 149.795180157 375 176 344.473033207 176 316 c 256
280 60 m 257
 309.106332288 30.8936677124 350.087768945 -1 400 -1 c 256
 457 -1 507 28 550 85 c 256
 593 144 615 211 615 285 c 256
 615 380 592 464 547 535 c 256
 501 606 443 651 372 669 c 257
 377.915304403 682.802376941 394.944500553 698 414 698 c 256
 426.57929851 698 435.696319986 687.303680014 444 679 c 257
 518 735 l 257
 503.012208234 766.849057504 464.698786679 790 420 790 c 256
 375.521020154 790 340 754.486485738 340 710 c 257
 346 675 l 257
 289 675 239 659 194 627 c 256
 150 595 128 558 128 516 c 256
 128 495 137 476 154 459 c 257
 173 444 195 437 220 437 c 256
 299.366143571 437 354.249988556 510.083302054 378 575 c 257
 480.622944011 524.621463849 559 402.811240763 559 255 c 256
 559 173.875601295 520.775022452 67 450 67 c 256
 428 67 407 75 385 89 c 256
 363 104 341 123 322 148 c 257
 300 123 278 104 256 89 c 256
 235 75 214 67 195 67 c 256
 151.240237379 67 117 106.542110169 117 151 c 256
 117 169 123 187 135 204 c 256
 147 223 163 240 185 254 c 256
 217.755491957 275.836994638 257 310.961570789 257 359 c 256
 257 399.259576744 217.193028746 426 177 426 c 256
 142 426 108 413 76 386 c 256
 45 359 30 329 30 298 c 256
 30 261.814182934 57.3235569029 230 92 230 c 256
 97 230 104 231 113 234 c 257
 86.1793472782 202.709238491 55 158.289943438 55 109 c 256
 55 80 67 54 90 32 c 256
 114 9 141 -1 171 -1 c 256
 216.527226466 -1 251.955724091 31.9557240908 280 60 c 257
EndSplineSet
EndChar

StartChar: BaO
Encoding: 28 -1 28
GlifName: B_aO_
Width: 904
VWidth: 0
Flags: HW
LayerCount: 2
Back
Fore
SplineSet
184 5 m 256
 227.804597318 5 267.58373837 37.7112370022 292 65 c 257
 313 44 332 28 351 17 c 256
 372 5 390 -1 407 -1 c 256
 456 -1 501 22 542 68 c 256
 583 115 603 165 603 219 c 256
 603 270 585 318 545 361 c 256
 505 405 461 426 414 426 c 258
 389 426 l 258
NamedP: "hr00"
 360.91317872 426 341 459.762136233 341 491 c 256
 341 515.784934454 364.864283413 533 389 533 c 258
 436 533 l 258
 480.891417822 533 514.443161648 512.44631033 534 484 c 257
 549 500 564 512 577 520 c 256
 590 529 601 533 612 533 c 258
 739 533 l 257
 723 519 710 505 701 491 c 256
 691 476 686 462 686 450 c 256
 686 426 699 404 724 383 c 256
 751 362 779 352 809 352 c 256
 836 352 863 369 891 403 c 256
 918 437 931 471 931 504 c 256
 931 532 921 558 897 579 c 256
 874 600 846 609 815 609 c 258
 667 609 l 258
 655 609 641 605 624 596 c 256
 607 588 589 576 570 560 c 257
 546.979064075 588.3334596 508.852623672 609 461 609 c 258
 419 609 l 258
 390 609 360 593 329 561 c 256
 299 530 284 499 284 468 c 256
 284 436 293 408 314 385 c 256
 334 364 357 352 384 352 c 258
 414 352 l 258
 493.737554514 352 553 270.840360793 553 189 c 256
 553 128.899960371 512.363944666 67 456 67 c 256
 399.783911472 67 361.073966133 105.871370426 329 141 c 257
 308 121 287 106 266 96 c 256
 245 85 226 80 207 80 c 256
 159.620035363 80 117 111.376392773 117 158 c 256
 117 193.050646484 146.691780842 220.11281226 172 235 c 257
 197 254 217 272 230 290 c 256
 244 309 251 325 251 340 c 256
 251 387.03109776 212.043456868 426 165 426 c 256
 132 426 101 413 73 386 c 256
 44 359 30 329 30 298 c 256
 30 259.215532977 68.5878786724 230 107 230 c 257
 78.8746781525 208.124749674 49 166.473388423 49 121 c 256
 49 96 64 70 94 44 c 256
 125 17 155 5 184 5 c 256
875 468 m 256
 875 444.655362345 855.792999785 426 834 426 c 256
 794.306011091 426 755 452.804845751 755 491 c 256
 755 514.344637655 774.207000215 533 796 533 c 256
 819 533 837 526 851 513 c 257
 867 501 875 486 875 468 c 256
176 321 m 256
 176 300.521881162 165.305185878 280 146 280 c 256
 119.278180519 280 93 313.917234287 93 340 c 256
 93 362.811858949 108.199786001 382 129 382 c 256
 154.148338358 382 176 347.263432647 176 321 c 256
EndSplineSet
EndChar

StartChar: BaOO
Encoding: 29 -1 29
GlifName: B_aO_O_
Width: 924
VWidth: 0
Flags: HW
LayerCount: 2
Back
Fore
SplineSet
184 5 m 256
 227.804597318 5 267.58373837 37.7112370022 292 65 c 257
 313 44 332 28 351 17 c 256
 372 5 390 -1 407 -1 c 256
 456 -1 501 22 542 68 c 256
 583 115 603 165 603 219 c 256
 603 270 584 317 545 361 c 256
 506 403 464 426 419 426 c 258
 395 426 l 258
NamedP: "hr00"
 366.91317872 426 347 459.762136233 347 491 c 256
 347 515.784934454 370.864283413 533 395 533 c 258
 442 533 l 258
 487.67365565 533 520.182544984 512.825389115 540 484 c 257
 555 500 570 512 583 520 c 256
 596 529 608 533 619 533 c 258
 741 533 l 257
 724 518 711 502 701 487 c 256
 692 472 688 460 688 450 c 256
 688 426 700 404 725 383 c 256
 752 362 780 352 810 352 c 256
 837 352 864 369 892 403 c 256
 919 437 932 471 932 504 c 256
 932 545.760646185 906.579390294 577.507453339 878 596 c 258
 830 626 l 258
 813 636 800 647 790 659 c 256
 780 670 775 682 775 693 c 256
 775 717.314797033 796.989657059 734 822 734 c 256
 830 734 838 730 845 723 c 256
 854 716 863 705 871 692 c 257
 951 741 l 257
 935.805201755 768.012974657 908.500064381 790 871 790 c 256
 836 790 801 777 765 750 c 256
 729 722 711 695 711 668 c 256
 711 643.084392685 734.372452674 622.220660495 752 609 c 257
 674 609 l 258
 661 609 647 605 630 596 c 256
 613 588 595 576 576 560 c 257
 552.695899142 588.681970286 515.676158999 609 467 609 c 258
 425 609 l 258
 396 609 366 593 335 561 c 256
 305 530 290 499 290 468 c 256
 290 436 299 407 320 385 c 256
 338 365 360 355 383 353 c 257
 383 352 l 257
 414 352 l 258
 493.737554514 352 553 270.840360793 553 189 c 256
 553 128.899960371 512.363944666 67 456 67 c 256
 399.783911472 67 361.073966133 105.871370426 329 141 c 257
 308 121 287 106 266 96 c 256
 245 85 226 80 207 80 c 256
 159.620035363 80 117 111.376392773 117 158 c 256
 117 193.050646484 146.691780842 220.11281226 172 235 c 257
 197 254 217 272 230 290 c 256
 244 309 251 325 251 340 c 256
 251 387.03109776 212.043456868 426 165 426 c 256
 132 426 101 413 73 386 c 256
 44 359 30 329 30 298 c 256
 30 259.215532977 68.5878786724 230 107 230 c 257
 78.8746781525 208.124749674 49 166.473388423 49 121 c 256
 49 96 64 70 94 44 c 256
 125 17 155 5 184 5 c 256
876 468 m 256
 876 444.655362345 856.792999785 426 835 426 c 256
 812 426 794 433 780 446 c 257
 764 458 756 473 756 491 c 256
 756 514.344637655 775.207000215 533 797 533 c 256
 836.693988909 533 876 506.195154249 876 468 c 256
176 321 m 256
 176 300.521881162 165.305185878 280 146 280 c 256
 119.278180519 280 93 313.917234287 93 340 c 256
 93 362.811858949 108.199786001 382 129 382 c 256
 154.148338358 382 176 347.263432647 176 321 c 256
EndSplineSet
EndChar

StartChar: BaOttu
Encoding: 30 -1 30
GlifName: B_aO_ttu
Width: 208
VWidth: 0
Flags: HW
LayerCount: 2
Back
Fore
SplineSet
-125 -82 m 256
 -125 -86.1622969498 -127.606884488 -92 -131 -92 c 256
NamedP: "hr00"
 -141.98452224 -92 -155 -83.3421623283 -155 -72 c 256
 -155 -67.0629851289 -150.560628216 -62 -146 -62 c 256
 -136.753171358 -62 -125 -72.117867162 -125 -82 c 256
-211 -99 m 256
 -211 -124.778873928 -191.815654616 -148 -167 -148 c 256
 -164 -148 -164 -149 -167 -150 c 256
 -176 -156 -186 -166 -196 -181 c 256
 -207 -197 -211 -212 -211 -226 c 256
 -211 -251 -201 -275 -179 -297 c 256
 -157 -319 -134 -329 -110 -329 c 256
 -72.2186108506 -329 -40.626844798 -297.207564215 -24 -270 c 257
 -8.07123587245 -298.67177543 22.5779090391 -329 62 -329 c 256
 99 -329 129 -306 152 -259 c 256
 174 -214 185 -153 185 -77 c 256
 185 31.2166800529 129.160837948 120.110785102 67 179 c 257
 1 124 l 257
 44 87 77 49 100 8 c 256
 123 -34 135 -75 135 -114 c 256
 135 -160 129 -199 114 -231 c 256
 100 -262 82 -278 62 -278 c 256
 23.4933283029 -278 -4.27292720444 -249.796941348 -24 -224 c 257
 -37 -240 -50 -252 -61 -260 c 257
 -71 -269 -80 -273 -87 -273 c 256
 -120.086863579 -273 -151 -232.66474131 -151 -199 c 256
 -151 -186 -145 -173 -133 -159 c 256
 -122 -145 -106 -132 -87 -120 c 257
 -65.6993826778 -109.349691339 -43 -89.181224613 -43 -61 c 256
 -43 -33.1573708733 -68.9676422218 -12 -98 -12 c 256
 -126 -12 -152 -20 -176 -39 c 256
 -199 -57 -211 -78 -211 -99 c 256
EndSplineSet
EndChar

StartChar: BaU
Encoding: 31 -1 31
GlifName: B_aU_
Width: 943
VWidth: 0
Flags: HW
LayerCount: 2
Back
Fore
SplineSet
184 5 m 256
 227.804597318 5 267.58373837 37.7112370022 292 65 c 257
 313 44 332 28 351 17 c 256
 372 5 390 -1 407 -1 c 256
 456 -1 501 19 542 60 c 258
 552 70 l 257
NamedP: "hr00"
 576.44651302 32.2190253328 626.200961539 -1 681 -1 c 256
 740 -1 795 23 845 72 c 256
 895 121 920 174 920 231 c 256
 920 284 901 332 861 370 c 256
 822 408 773 426 718 426 c 257
 674 352 l 257
 725 352 769 335 804 300 c 256
 839 266 856 225 856 176 c 256
 856 111.545352548 795.455359951 62 730 62 c 256
 670.420955098 62 622.366235895 104.253459833 596 146 c 257
 601 161 603 177 603 194 c 256
 603 251 580 305 531 354 c 256
 482 403 428 426 370 426 c 257
 320 352 l 257
 379 352 432 332 480 294 c 256
 528 256 553 215 553 170 c 256
 553 116.226346012 510.167650662 67 456 67 c 256
 399.783911472 67 361.073966133 105.871370426 329 141 c 257
 308 121 287 106 266 96 c 256
 245 85 226 80 207 80 c 256
 159.620035363 80 117 111.376392773 117 158 c 256
 117 193.050646484 146.691780842 220.11281226 172 235 c 257
 197 254 217 272 230 290 c 256
 244 309 251 325 251 340 c 256
 251 387.03109776 212.043456868 426 165 426 c 256
 132 426 101 413 73 386 c 256
 44 359 30 329 30 298 c 256
 30 259.215532977 68.5878786724 230 107 230 c 257
 78.8746781525 208.124749674 49 166.473388423 49 121 c 256
 49 96 64 70 94 44 c 256
 125 17 155 5 184 5 c 256
176 321 m 256
 176 300.521881162 165.305185878 280 146 280 c 256
 119.278180519 280 93 313.917234287 93 340 c 256
 93 362.811858949 108.199786001 382 129 382 c 256
 154.148338358 382 176 347.263432647 176 321 c 256
EndSplineSet
EndChar

StartChar: BaUU
Encoding: 32 -1 32
GlifName: B_aU_U_
Width: 1293
VWidth: 0
Flags: HW
LayerCount: 2
Back
Fore
SplineSet
184 5 m 256
 227.804597318 5 267.58373837 37.7112370022 292 65 c 257
 313 44 332 28 351 17 c 256
 372 5 390 -1 407 -1 c 256
 456 -1 501 19 542 60 c 256
 551 68 558 76 564 85 c 257
NamedP: "hr00"
 577 64 592 47 611 32 c 256
 641 10 672 -1 704 -1 c 256
 759 -1 811 22 858 68 c 256
 906 115 930 165 930 219 c 256
 930 240 923 263 912 286 c 256
 900 310 884 332 863 352 c 257
 1053 352 l 257
 1011.30114606 323.644779324 970 270.310153373 970 206 c 256
 970 146.733711716 1036.86587178 108 1099 108 c 256
 1139 108 1178 129 1215 172 c 256
 1252 214 1270 258 1270 304 c 256
 1270 337 1257 367 1227 391 c 256
 1198 415 1162 426 1122 426 c 258
 715 426 l 257
 665 352 l 257
 704 352 l 258
 793.314298157 352 860 262.959003295 860 170 c 256
 860 111.959798279 814.570902799 62 757 62 c 256
 689.331663359 62 627.012695691 104.826622014 597 151 c 257
 601 165 603 179 603 194 c 256
 603 251 580 305 531 354 c 256
 482 403 428 426 370 426 c 257
 320 352 l 257
 379 352 432 332 480 294 c 256
 528 256 553 215 553 170 c 256
 553 116.226346012 510.167650662 67 456 67 c 256
 399.783911472 67 361.073966133 105.871370426 329 141 c 257
 308 121 287 106 266 96 c 256
 245 85 226 80 207 80 c 256
 159.620035363 80 117 111.376392773 117 158 c 256
 117 193.050646484 146.691780842 220.11281226 172 235 c 257
 197 254 217 272 230 290 c 256
 244 309 251 325 251 340 c 256
 251 387.03109776 212.043456868 426 165 426 c 256
 132 426 101 413 73 386 c 256
 44 359 30 329 30 298 c 256
 30 259.215532977 68.5878786724 230 107 230 c 257
 78.8746781525 208.124749674 49 166.473388423 49 121 c 256
 49 96 64 70 94 44 c 256
 125 17 155 5 184 5 c 256
1213 255 m 256
 1213 214.237227213 1175.56718413 184 1135 184 c 256
 1085.72730569 184 1038 219.948821064 1038 268 c 256
 1038 308.805238362 1065.30513812 352 1104 352 c 256
 1152.09871777 352 1213 302.655221427 1213 255 c 256
176 321 m 256
 176 300.521881162 165.305185878 280 146 280 c 256
 119.278180519 280 93 313.917234287 93 340 c 256
 93 362.811858949 108.199786001 382 129 382 c 256
 154.148338358 382 176 347.263432647 176 321 c 256
EndSplineSet
EndChar

StartChar: Bha
Encoding: 33 3117 33
GlifName: B_ha
Width: 685
VWidth: 0
Flags: HW
LayerCount: 2
Back
Fore
SplineSet
184 5 m 256
 227.804597318 5 267.58373837 37.7112370022 292 65 c 257
 313 44 332 28 351 17 c 256
 372 5 390 -1 407 -1 c 256
 456 -1 501 22 542 68 c 256
 583 115 603 165 603 219 c 256
 603 270 584 317 546 361 c 256
 525 385 503 402 481 412 c 257
 662 524 l 257
NamedP: "hr00"
 662 618 l 257
 369 441 l 257
 369 342 l 257
 384 352 l 257
 414 352 l 258
 493.737554514 352 553 270.840360793 553 189 c 256
 553 128.899960371 512.363944666 67 456 67 c 256
 399.783911472 67 361.073966133 105.871370426 329 141 c 257
 308 121 287 106 266 96 c 256
 245 85 226 80 207 80 c 256
 159.620035363 80 117 111.376392773 117 158 c 256
 117 193.050646484 146.691780842 220.11281226 172 235 c 257
 197 254 217 272 230 290 c 256
 244 309 251 325 251 340 c 256
 251 387.03109776 212.043456868 426 165 426 c 256
 132 426 101 413 73 386 c 256
 44 359 30 329 30 298 c 256
 30 259.215532977 68.5878786724 230 107 230 c 257
 78.8746781525 208.124749674 49 166.473388423 49 121 c 256
 49 96 64 70 94 44 c 256
 125 17 155 5 184 5 c 256
255 -208 m 257
 330 -158 l 257
 330 32 l 257
 255 -18 l 257
 255 -208 l 257
176 321 m 256
 176 300.521881162 165.305185878 280 146 280 c 256
 119.278180519 280 93 313.917234287 93 340 c 256
 93 362.811858949 108.199786001 382 129 382 c 256
 154.148338358 382 176 347.263432647 176 321 c 256
EndSplineSet
EndChar

StartChar: BhaAA
Encoding: 34 -1 34
GlifName: B_haA_A_
Width: 1005
VWidth: 0
Flags: HW
LayerCount: 2
Back
Fore
SplineSet
184 5 m 256
 227.804597318 5 267.58373837 37.7112370022 292 65 c 257
 313 44 332 28 351 17 c 256
 372 5 390 -1 407 -1 c 256
 456 -1 501 22 542 68 c 256
 583 115 603 165 603 219 c 256
 603 267 586 311 553 352 c 257
 771 352 l 257
NamedP: "hr00"
 727.005634298 327.363155207 689 277.14244066 689 213 c 256
 689 152.960408399 743.310142175 108 805 108 c 256
 846 108 887 127 925 167 c 256
 964 207 982 249 982 291 c 256
 982 328 970 360 943 387 c 256
 916 414 884 426 847 426 c 258
 375 426 l 257
 370 352 l 257
 414 352 l 258
 493.737554514 352 553 270.840360793 553 189 c 256
 553 128.899960371 512.363944666 67 456 67 c 256
 399.783911472 67 361.073966133 105.871370426 329 141 c 257
 308 121 287 106 266 96 c 256
 245 85 226 80 207 80 c 256
 159.620035363 80 117 111.376392773 117 158 c 256
 117 193.050646484 146.691780842 220.11281226 172 235 c 257
 197 254 217 272 230 290 c 256
 244 309 251 325 251 340 c 256
 251 387.03109776 212.043456868 426 165 426 c 256
 132 426 101 413 73 386 c 256
 44 359 30 329 30 298 c 256
 30 259.215532977 68.5878786724 230 107 230 c 257
 78.8746781525 208.124749674 49 166.473388423 49 121 c 256
 49 96 64 70 94 44 c 256
 125 17 155 5 184 5 c 256
238 -208 m 257
 313 -158 l 257
 313 32 l 257
 238 -18 l 257
 238 -208 l 257
925 255 m 256
 925 210.0210599 885.972436479 171 841 171 c 256
 789.941713084 171 740 206.892829112 740 255 c 256
 740 292.872392274 787.310392153 352 824 352 c 256
 878.012984826 352 925 308.140222638 925 255 c 256
176 321 m 256
 176 300.521881162 165.305185878 280 146 280 c 256
 119.278180519 280 93 313.917234287 93 340 c 256
 93 362.811858949 108.199786001 382 129 382 c 256
 154.148338358 382 176 347.263432647 176 321 c 256
EndSplineSet
EndChar

StartChar: BhaAU
Encoding: 35 -1 35
GlifName: B_haA_U_
Width: 923
VWidth: 0
Flags: HW
LayerCount: 2
Back
Fore
SplineSet
245 -208 m 257
NamedP: "hr00"
 320 -158 l 257
 320 32 l 257
 245 -18 l 257
 245 -208 l 257
NamedP: "hr00"
184 5 m 256
 227.804597318 5 267.58373837 37.7112370022 292 65 c 257
 313 44 332 28 351 17 c 256
 372 5 390 -1 407 -1 c 256
 456 -1 501 22 542 68 c 256
 583 115 603 165 603 219 c 256
 603 270 584 317 545 361 c 256
 527 381 508 396 489 406 c 257
 525.794203993 442.794203993 546 481.283103398 546 511 c 256
 546 531.09517212 534.166309957 549.428877179 523 559 c 257
 733 559 l 257
 709.42741743 542.680519759 686 513.337153571 686 475 c 256
 686 442 699 411 726 383 c 256
 753 354 783 340 815 340 c 256
 844 340 874 356 905 389 c 256
 935 422 950 455 950 487 c 256
 950 562.560546418 895.502363198 635 821 635 c 258
 235 635 l 257
 179 559 l 257
 381 559 l 258
 431.239489923 559 471 518.650735923 471 469 c 256
 471 443.670439624 448.434477604 427 424 427 c 256
 412 427 400 431 388 440 c 256
 375 449 362 461 351 477 c 257
 278 407 l 257
 298.025064317 376.052173329 334.564169855 356.421791507 383 354 c 257
 383 352 l 257
 414 352 l 258
 493.737554514 352 553 270.840360793 553 189 c 256
 553 128.899960371 512.363944666 67 456 67 c 256
 399.783911472 67 361.073966133 105.871370426 329 141 c 257
 308 121 287 106 266 96 c 256
 245 85 226 80 207 80 c 256
 159.620035363 80 117 111.376392773 117 158 c 256
 117 193.050646484 146.691780842 220.11281226 172 235 c 257
 197 254 217 272 230 290 c 256
 244 309 251 325 251 340 c 256
 251 387.03109776 212.043456868 426 165 426 c 256
 132 426 101 413 73 386 c 256
 44 359 30 329 30 298 c 256
 30 259.215532977 68.5878786724 230 107 230 c 257
 78.8746781525 208.124749674 49 166.473388423 49 121 c 256
 49 96 64 70 94 44 c 256
 125 17 155 5 184 5 c 256
886 456 m 256
 886 429.067684724 865.751848977 408 839 408 c 256
 795.63546103 408 748 459.548973212 748 505 c 256
 748 533.070393577 773.125992245 559 802 559 c 256
 846.510247397 559 886 502.833221182 886 456 c 256
176 321 m 256
 176 300.521881162 165.305185878 280 146 280 c 256
 119.278180519 280 93 313.917234287 93 340 c 256
 93 362.811858949 108.199786001 382 129 382 c 256
 154.148338358 382 176 347.263432647 176 321 c 256
EndSplineSet
EndChar

StartChar: BhaE
Encoding: 36 -1 36
GlifName: B_haE_
Width: 626
VWidth: 0
Flags: HW
LayerCount: 2
Back
Fore
SplineSet
245 -208 m 257
NamedP: "hr00"
 320 -158 l 257
 320 32 l 257
 245 -18 l 257
 245 -208 l 257
NamedP: "hr00"
603 219 m 256
 603 276.318368008 573.385329841 339.345558466 527 378 c 257
 536 385 546 395 556 407 c 256
 587 444 602 481 602 516 c 256
 602 556.908116596 579.085817647 597 541 597 c 258
 170 597 l 257
 102 522 l 257
 486 522 l 258
 512.395803918 522 534 500.400106999 534 474 c 256
 534 447.604196082 512.400106999 426 486 426 c 258
 449 426 l 258
 412.580721681 426 388.274281434 441.973511163 369 463 c 257
 325 395 l 257
 336.091185995 377.747044008 358.960635894 361.173227351 384 357 c 258
 414 352 l 257
 493.737554514 352 553 270.840360793 553 189 c 256
 553 128.899960371 512.363944666 67 456 67 c 256
 399.783911472 67 361.073966133 105.871370426 329 141 c 257
 308 121 287 106 266 96 c 256
 245 85 226 80 207 80 c 256
 159.620035363 80 117 111.376392773 117 158 c 256
 117 193.050646484 146.691780842 220.11281226 172 235 c 257
 197 254 217 272 230 290 c 256
 244 309 251 325 251 340 c 256
 251 387.03109776 212.043456868 426 165 426 c 256
 132 426 101 413 73 386 c 256
 44 359 30 329 30 298 c 256
 30 259.215532977 68.5878786724 230 107 230 c 257
 78.8746781525 208.124749674 49 166.473388423 49 121 c 256
 49 96 64 70 94 44 c 256
 125 17 155 5 184 5 c 256
 227.804597318 5 267.58373837 37.7112370022 292 65 c 257
 313 44 332 28 351 17 c 256
 372 5 390 -1 407 -1 c 256
 456 -1 501 22 542 68 c 256
 583 115 603 165 603 219 c 256
176 321 m 256
 176 300.521881162 165.305185878 280 146 280 c 256
 119.278180519 280 93 313.917234287 93 340 c 256
 93 362.811858949 108.199786001 382 129 382 c 256
 154.148338358 382 176 347.263432647 176 321 c 256
EndSplineSet
EndChar

StartChar: BhaEE
Encoding: 37 -1 37
GlifName: B_haE_E_
Width: 626
VWidth: 0
Flags: HW
LayerCount: 2
Back
Fore
SplineSet
245 -208 m 257
NamedP: "hr00"
 320 -158 l 257
 320 32 l 257
 245 -18 l 257
 245 -208 l 257
NamedP: "hr00"
413 639 m 256
 413 619.756729292 423.070105705 606.108245246 434 597 c 257
 170 597 l 257
 102 522 l 257
 486 522 l 258
 512.395803918 522 534 500.400106999 534 474 c 256
 534 447.604196082 512.400106999 426 486 426 c 258
 449 426 l 258
 412.580721681 426 388.274281434 441.973511163 369 463 c 257
 325 395 l 257
 336.091185995 377.747044008 358.960635894 361.173227351 384 357 c 258
 414 352 l 257
 493.737554514 352 553 270.840360793 553 189 c 256
 553 128.899960371 512.363944666 67 456 67 c 256
 399.783911472 67 361.073966133 105.871370426 329 141 c 257
 308 121 287 106 266 96 c 256
 245 85 226 80 207 80 c 256
 159.620035363 80 117 111.376392773 117 158 c 256
 117 193.050646484 146.691780842 220.11281226 172 235 c 257
 197 254 217 272 230 290 c 256
 244 309 251 325 251 340 c 256
 251 387.03109776 212.043456868 426 165 426 c 256
 132 426 101 413 73 386 c 256
 44 359 30 329 30 298 c 256
 30 259.215532977 68.5878786724 230 107 230 c 257
 78.8746781525 208.124749674 49 166.473388423 49 121 c 256
 49 96 64 70 94 44 c 256
 125 17 155 5 184 5 c 256
 227.804597318 5 267.58373837 37.7112370022 292 65 c 257
 313 44 332 28 351 17 c 256
 372 5 390 -1 407 -1 c 256
 456 -1 501 22 542 68 c 256
 583 115 603 165 603 219 c 256
 603 276.318368008 573.385329841 339.345558466 527 378 c 257
 536 385 546 395 556 407 c 256
 587 444 602 481 602 516 c 256
 602 556.908116596 579.085817647 597 541 597 c 258
 522 597 l 257
 509 609 499 620 492 629 c 256
 485 637 481 644 481 650 c 256
 481 660.552117914 488.44302887 668 499 668 c 256
 516.386567458 668 529.982945396 654.017054604 541 643 c 257
 591 686 l 257
 578.647548704 710.704902591 556.586805518 730 522 730 c 256
 503 730 480 719 453 697 c 256
 426 674 413 655 413 639 c 256
176 321 m 256
 176 300.521881162 165.305185878 280 146 280 c 256
 119.278180519 280 93 313.917234287 93 340 c 256
 93 362.811858949 108.199786001 382 129 382 c 256
 154.148338358 382 176 347.263432647 176 321 c 256
EndSplineSet
EndChar

StartChar: BhaHalanth
Encoding: 38 -1 38
GlifName: B_haH_alanth
Width: 783
VWidth: 0
Flags: HW
LayerCount: 2
Back
Fore
SplineSet
184 5 m 256
 227.804597318 5 267.58373837 37.7112370022 292 65 c 257
 313 44 332 28 351 17 c 256
 372 5 390 -1 407 -1 c 256
 456 -1 501 22 542 68 c 256
 583 115 603 165 603 219 c 256
 603 270 585 317 546 361 c 256
 508 404 465 426 420 426 c 258
 400 426 l 258
NamedP: "hr00"
 375.856551456 426 352 443.217930037 352 468 c 256
 352 476 359 487 373 498 c 256
 388 510 408 521 434 534 c 257
 395.786628157 543.907170478 346 568.03453966 346 608 c 256
 346 626.078381192 368.412656746 637 387 637 c 256
 410 637 435 631 461 618 c 256
 520 589 588 575 667 575 c 256
 690 575 710 581 728 594 c 257
 830 709 l 257
 791.732426121 675.95073165 754.250460072 662 691 662 c 256
 640 662 582 670 515 687 c 256
 482 696 452 700 425 700 c 256
 392 700 361 687 333 660 c 256
 304 633 290 603 290 571 c 256
 290 543.50635462 315.697860631 520.407665039 338 510 c 257
 319 494 305 478 294 462 c 256
 283 446 278 432 278 419 c 256
 278 377.93032976 322.416590748 352 364 352 c 258
 414 352 l 258
 493.737554514 352 553 270.840360793 553 189 c 256
 553 128.899960371 512.363944666 67 456 67 c 256
 399.783911472 67 361.073966133 105.871370426 329 141 c 257
 308 121 287 106 266 96 c 256
 245 85 226 80 207 80 c 256
 159.620035363 80 117 111.376392773 117 158 c 256
 117 193.050646484 146.691780842 220.11281226 172 235 c 257
 197 254 217 272 230 290 c 256
 244 309 251 325 251 340 c 256
 251 387.03109776 212.043456868 426 165 426 c 256
 132 426 101 413 73 386 c 256
 44 359 30 329 30 298 c 256
 30 259.215532977 68.5878786724 230 107 230 c 257
 78.8746781525 208.124749674 49 166.473388423 49 121 c 256
 49 96 64 70 94 44 c 256
 125 17 155 5 184 5 c 256
255 -208 m 257
 330 -158 l 257
 330 32 l 257
 255 -18 l 257
 255 -208 l 257
176 321 m 256
 176 300.521881162 165.305185878 280 146 280 c 256
 119.278180519 280 93 313.917234287 93 340 c 256
 93 362.811858949 108.199786001 382 129 382 c 256
 154.148338358 382 176 347.263432647 176 321 c 256
EndSplineSet
EndChar

StartChar: BhaI
Encoding: 39 -1 39
GlifName: B_haI_
Width: 638
VWidth: 0
Flags: HW
LayerCount: 2
Back
Fore
SplineSet
229 -214 m 257
NamedP: "hr00"
 303 -165 l 257
 303 26 l 257
 229 -23 l 257
 229 -86.6666666667 229 -150.333333333 229 -214 c 257
NamedP: "hr00"
353 589 m 257
 337.54218841 547.263908706 299.958974973 499 249 499 c 256
 219.083489174 499 190 516.823606773 190 546 c 256
 190 585.569423513 232.579896034 613 274 613 c 256
 291 613 307 611 321 607 c 257
 334 602 345 596 353 589 c 257
176 316 m 256
 176 296.04053877 160.234298199 280 140 280 c 256
 113.850929223 280 87 313.917234287 87 340 c 256
 87 359.765529007 102.235296196 375 122 375 c 256
 149.795180157 375 176 344.473033207 176 316 c 256
280 60 m 257
 309.106332288 30.8936677124 350.087768945 -1 400 -1 c 256
 457 -1 507 28 550 85 c 256
 593 144 615 211 615 285 c 256
 615 392 590 484 537 561 c 256
 485 637 421 675 347 675 c 256
 290 675 239 659 194 627 c 256
 150 595 128 558 128 516 c 256
 128 495 137 476 154 459 c 257
 173 444 195 437 220 437 c 256
 299.366143571 437 354.249988556 510.083302054 378 575 c 257
 480.622944011 524.621463849 559 402.811240763 559 255 c 256
 559 173.875601295 520.775022452 67 450 67 c 256
 428 67 407 75 385 89 c 256
 363 104 341 123 322 148 c 257
 300 123 278 104 256 89 c 256
 235 75 214 67 195 67 c 256
 151.240237379 67 117 106.542110169 117 151 c 256
 117 169 123 187 135 204 c 256
 147 223 163 240 185 254 c 256
 217.755491957 275.836994638 257 310.961570789 257 359 c 256
 257 399.259576744 217.193028746 426 177 426 c 256
 142 426 108 413 76 386 c 256
 45 359 30 329 30 298 c 256
 30 261.814182934 57.3235569029 230 92 230 c 256
 97 230 104 231 113 234 c 257
 86.1793472782 202.709238491 55 158.289943438 55 109 c 256
 55 80 67 54 90 32 c 256
 114 9 141 -1 171 -1 c 256
 216.527226466 -1 251.955724091 31.9557240908 280 60 c 257
EndSplineSet
EndChar

StartChar: BhaII
Encoding: 40 -1 40
GlifName: B_haI_I_
Width: 638
VWidth: 0
Flags: HW
LayerCount: 2
Back
Fore
SplineSet
229 -221 m 257
NamedP: "hr00"
 303 -171 l 257
 303 21 l 257
 229 -29 l 257
 229 -93 229 -157 229 -221 c 257
NamedP: "hr00"
353 589 m 257
 337.54218841 547.263908706 299.958974973 499 249 499 c 256
 219.083489174 499 190 516.823606773 190 546 c 256
 190 585.569423513 232.579896034 613 274 613 c 256
 291 613 307 611 321 607 c 257
 334 602 345 596 353 589 c 257
176 316 m 256
 176 296.04053877 160.234298199 280 140 280 c 256
 113.850929223 280 87 313.917234287 87 340 c 256
 87 359.765529007 102.235296196 375 122 375 c 256
 149.795180157 375 176 344.473033207 176 316 c 256
280 60 m 257
 309.106332288 30.8936677124 350.087768945 -1 400 -1 c 256
 457 -1 507 28 550 85 c 256
 593 144 615 211 615 285 c 256
 615 380 592 464 547 535 c 256
 501 606 443 651 372 669 c 257
 377.915304403 682.802376941 394.944500553 698 414 698 c 256
 426.57929851 698 435.696319986 687.303680014 444 679 c 257
 518 735 l 257
 503.012208234 766.849057504 464.698786679 790 420 790 c 256
 375.521020154 790 340 754.486485738 340 710 c 257
 346 675 l 257
 289 675 239 659 194 627 c 256
 150 595 128 558 128 516 c 256
 128 495 137 476 154 459 c 257
 173 444 195 437 220 437 c 256
 299.366143571 437 354.249988556 510.083302054 378 575 c 257
 480.622944011 524.621463849 559 402.811240763 559 255 c 256
 559 173.875601295 520.775022452 67 450 67 c 256
 428 67 407 75 385 89 c 256
 363 104 341 123 322 148 c 257
 300 123 278 104 256 89 c 256
 235 75 214 67 195 67 c 256
 151.240237379 67 117 106.542110169 117 151 c 256
 117 169 123 187 135 204 c 256
 147 223 163 240 185 254 c 256
 217.755491957 275.836994638 257 310.961570789 257 359 c 256
 257 399.259576744 217.193028746 426 177 426 c 256
 142 426 108 413 76 386 c 256
 45 359 30 329 30 298 c 256
 30 261.814182934 57.3235569029 230 92 230 c 256
 97 230 104 231 113 234 c 257
 86.1793472782 202.709238491 55 158.289943438 55 109 c 256
 55 80 67 54 90 32 c 256
 114 9 141 -1 171 -1 c 256
 216.527226466 -1 251.955724091 31.9557240908 280 60 c 257
EndSplineSet
EndChar

StartChar: BhaO
Encoding: 41 -1 41
GlifName: B_haO_
Width: 904
VWidth: 0
Flags: HW
LayerCount: 2
Back
Fore
SplineSet
245 -208 m 257
NamedP: "hr00"
 320 -158 l 257
 320 32 l 257
 245 -18 l 257
 245 -208 l 257
NamedP: "hr00"
184 5 m 256
 227.804597318 5 267.58373837 37.7112370022 292 65 c 257
 313 44 332 28 351 17 c 256
 372 5 390 -1 407 -1 c 256
 456 -1 501 22 542 68 c 256
 583 115 603 165 603 219 c 256
 603 270 585 318 545 361 c 256
 505 405 461 426 414 426 c 258
 389 426 l 258
 360.91317872 426 341 459.762136233 341 491 c 256
 341 515.784934454 364.864283413 533 389 533 c 258
 436 533 l 258
 480.891417822 533 514.443161648 512.44631033 534 484 c 257
 549 500 564 512 577 520 c 256
 590 529 601 533 612 533 c 258
 739 533 l 257
 723 519 710 505 701 491 c 256
 691 476 686 462 686 450 c 256
 686 426 699 404 724 383 c 256
 751 362 779 352 809 352 c 256
 836 352 863 369 891 403 c 256
 918 437 931 471 931 504 c 256
 931 532 921 558 897 579 c 256
 874 600 846 609 815 609 c 258
 667 609 l 258
 655 609 641 605 624 596 c 256
 607 588 589 576 570 560 c 257
 546.979064075 588.3334596 508.852623672 609 461 609 c 258
 419 609 l 258
 390 609 360 593 329 561 c 256
 299 530 284 499 284 468 c 256
 284 436 293 408 314 385 c 256
 334 364 357 352 384 352 c 258
 414 352 l 258
 493.737554514 352 553 270.840360793 553 189 c 256
 553 128.899960371 512.363944666 67 456 67 c 256
 399.783911472 67 361.073966133 105.871370426 329 141 c 257
 308 121 287 106 266 96 c 256
 245 85 226 80 207 80 c 256
 159.620035363 80 117 111.376392773 117 158 c 256
 117 193.050646484 146.691780842 220.11281226 172 235 c 257
 197 254 217 272 230 290 c 256
 244 309 251 325 251 340 c 256
 251 387.03109776 212.043456868 426 165 426 c 256
 132 426 101 413 73 386 c 256
 44 359 30 329 30 298 c 256
 30 259.215532977 68.5878786724 230 107 230 c 257
 78.8746781525 208.124749674 49 166.473388423 49 121 c 256
 49 96 64 70 94 44 c 256
 125 17 155 5 184 5 c 256
875 468 m 256
 875 444.655362345 855.792999785 426 834 426 c 256
 794.306011091 426 755 452.804845751 755 491 c 256
 755 514.344637655 774.207000215 533 796 533 c 256
 819 533 837 526 851 513 c 257
 867 501 875 486 875 468 c 256
176 321 m 256
 176 300.521881162 165.305185878 280 146 280 c 256
 119.278180519 280 93 313.917234287 93 340 c 256
 93 362.811858949 108.199786001 382 129 382 c 256
 154.148338358 382 176 347.263432647 176 321 c 256
EndSplineSet
EndChar

StartChar: BhaOO
Encoding: 42 -1 42
GlifName: B_haO_O_
Width: 924
VWidth: 0
Flags: HW
LayerCount: 2
Back
Fore
SplineSet
245 -208 m 257
NamedP: "hr00"
 320 -158 l 257
 320 32 l 257
 245 -18 l 257
 245 -208 l 257
NamedP: "hr00"
184 5 m 256
 227.804597318 5 267.58373837 37.7112370022 292 65 c 257
 313 44 332 28 351 17 c 256
 372 5 390 -1 407 -1 c 256
 456 -1 501 22 542 68 c 256
 583 115 603 165 603 219 c 256
 603 270 584 317 545 361 c 256
 506 403 464 426 419 426 c 258
 395 426 l 258
 366.91317872 426 347 459.762136233 347 491 c 256
 347 515.784934454 370.864283413 533 395 533 c 258
 442 533 l 258
 487.67365565 533 520.182544984 512.825389115 540 484 c 257
 555 500 570 512 583 520 c 256
 596 529 608 533 619 533 c 258
 741 533 l 257
 724 518 711 502 701 487 c 256
 692 472 688 460 688 450 c 256
 688 426 700 404 725 383 c 256
 752 362 780 352 810 352 c 256
 837 352 864 369 892 403 c 256
 919 437 932 471 932 504 c 256
 932 545.760646185 906.579390294 577.507453339 878 596 c 258
 830 626 l 258
 813 636 800 647 790 659 c 256
 780 670 775 682 775 693 c 256
 775 717.314797033 796.989657059 734 822 734 c 256
 830 734 838 730 845 723 c 256
 854 716 863 705 871 692 c 257
 951 741 l 257
 935.805201755 768.012974657 908.500064381 790 871 790 c 256
 836 790 801 777 765 750 c 256
 729 722 711 695 711 668 c 256
 711 643.084392685 734.372452674 622.220660495 752 609 c 257
 674 609 l 258
 661 609 647 605 630 596 c 256
 613 588 595 576 576 560 c 257
 552.695899142 588.681970286 515.676158999 609 467 609 c 258
 425 609 l 258
 396 609 366 593 335 561 c 256
 305 530 290 499 290 468 c 256
 290 436 299 407 320 385 c 256
 338 365 360 355 383 353 c 257
 383 352 l 257
 414 352 l 258
 493.737554514 352 553 270.840360793 553 189 c 256
 553 128.899960371 512.363944666 67 456 67 c 256
 399.783911472 67 361.073966133 105.871370426 329 141 c 257
 308 121 287 106 266 96 c 256
 245 85 226 80 207 80 c 256
 159.620035363 80 117 111.376392773 117 158 c 256
 117 193.050646484 146.691780842 220.11281226 172 235 c 257
 197 254 217 272 230 290 c 256
 244 309 251 325 251 340 c 256
 251 387.03109776 212.043456868 426 165 426 c 256
 132 426 101 413 73 386 c 256
 44 359 30 329 30 298 c 256
 30 259.215532977 68.5878786724 230 107 230 c 257
 78.8746781525 208.124749674 49 166.473388423 49 121 c 256
 49 96 64 70 94 44 c 256
 125 17 155 5 184 5 c 256
876 468 m 256
 876 444.655362345 856.792999785 426 835 426 c 256
 812 426 794 433 780 446 c 257
 764 458 756 473 756 491 c 256
 756 514.344637655 775.207000215 533 797 533 c 256
 836.693988909 533 876 506.195154249 876 468 c 256
176 321 m 256
 176 300.521881162 165.305185878 280 146 280 c 256
 119.278180519 280 93 313.917234287 93 340 c 256
 93 362.811858949 108.199786001 382 129 382 c 256
 154.148338358 382 176 347.263432647 176 321 c 256
EndSplineSet
EndChar

StartChar: BhaOttu
Encoding: 43 -1 43
GlifName: B_haO_ttu
Width: 208
VWidth: 0
Flags: HW
LayerCount: 2
Back
Fore
SplineSet
-67 -431 m 257
NamedP: "hr00"
 -2 -403 l 257
 -2 -304 l 257
 -67 -337 l 257
 -67 -368.333333333 -67 -399.666666667 -67 -431 c 257
NamedP: "hr00"
-125 -82 m 256
 -125 -86.1622969498 -127.606884488 -92 -131 -92 c 256
 -141.98452224 -92 -155 -83.3421623283 -155 -72 c 256
 -155 -67.0629851289 -150.560628216 -62 -146 -62 c 256
 -136.753171358 -62 -125 -72.117867162 -125 -82 c 256
-211 -99 m 256
 -211 -124.778873928 -191.815654616 -148 -167 -148 c 256
 -164 -148 -164 -149 -167 -150 c 256
 -176 -156 -186 -166 -196 -181 c 256
 -207 -197 -211 -212 -211 -226 c 256
 -211 -251 -201 -275 -179 -297 c 256
 -157 -319 -134 -329 -110 -329 c 256
 -72.2186108506 -329 -40.626844798 -297.207564215 -24 -270 c 257
 -8.07123587245 -298.67177543 22.5779090391 -329 62 -329 c 256
 99 -329 129 -306 152 -259 c 256
 174 -214 185 -153 185 -77 c 256
 185 31.2166800529 129.160837948 120.110785102 67 179 c 257
 1 124 l 257
 44 87 77 49 100 8 c 256
 123 -34 135 -75 135 -114 c 256
 135 -160 129 -199 114 -231 c 256
 100 -262 82 -278 62 -278 c 256
 23.4933283029 -278 -4.27292720444 -249.796941348 -24 -224 c 257
 -37 -240 -50 -252 -61 -260 c 257
 -71 -269 -80 -273 -87 -273 c 256
 -120.086863579 -273 -151 -232.66474131 -151 -199 c 256
 -151 -186 -145 -173 -133 -159 c 256
 -122 -145 -106 -132 -87 -120 c 257
 -65.6993826778 -109.349691339 -43 -89.181224613 -43 -61 c 256
 -43 -33.1573708733 -68.9676422218 -12 -98 -12 c 256
 -126 -12 -152 -20 -176 -39 c 256
 -199 -57 -211 -78 -211 -99 c 256
EndSplineSet
EndChar

StartChar: BhaU
Encoding: 44 -1 44
GlifName: B_haU_
Width: 937
VWidth: 0
Flags: HW
LayerCount: 2
Back
Fore
SplineSet
851 176 m 256
 851 112.926136777 789.72613898 62 724 62 c 256
 664.630485763 62 616.091509917 104.688442631 590 146 c 257
NamedP: "hr00"
 599 169 603 194 603 219 c 256
 603 270 584 317 546 361 c 256
 525 385 503 402 481 412 c 257
 662 524 l 257
 662 618 l 257
 369 441 l 257
 369 342 l 257
 384 352 l 257
 414 352 l 258
 493.737554514 352 553 270.840360793 553 189 c 256
 553 128.899960371 512.363944666 67 456 67 c 256
 399.783911472 67 361.073966133 105.871370426 329 141 c 257
 308 121 287 106 266 96 c 256
 245 85 226 80 207 80 c 256
 159.620035363 80 117 111.376392773 117 158 c 256
 117 193.050646484 146.691780842 220.11281226 172 235 c 257
 197 254 217 272 230 290 c 256
 244 309 251 325 251 340 c 256
 251 387.03109776 212.043456868 426 165 426 c 256
 132 426 101 413 73 386 c 256
 44 359 30 329 30 298 c 256
 30 259.215532977 68.5878786724 230 107 230 c 257
 78.8746781525 208.124749674 49 166.473388423 49 121 c 256
 49 96 64 70 94 44 c 256
 125 17 155 5 184 5 c 256
 227.804597318 5 267.58373837 37.7112370022 292 65 c 257
 313 44 332 28 351 17 c 256
 372 5 390 -1 407 -1 c 256
 458.595516349 -1 507.484399984 21.9791999785 545 72 c 257
 569.694124664 33.836352792 618.81939914 -1 675 -1 c 256
 734 -1 789 23 839 72 c 256
 889 121 914 174 914 231 c 256
 914 284 895 332 855 370 c 256
 816 408 767 426 712 426 c 257
 668 352 l 257
 719 352 763 335 798 300 c 256
 833 266 851 225 851 176 c 256
255 -208 m 257
 330 -158 l 257
 330 32 l 257
 255 -18 l 257
 255 -208 l 257
176 321 m 256
 176 300.521881162 165.305185878 280 146 280 c 256
 119.278180519 280 93 313.917234287 93 340 c 256
 93 362.811858949 108.199786001 382 129 382 c 256
 154.148338358 382 176 347.263432647 176 321 c 256
EndSplineSet
EndChar

StartChar: BhaUU
Encoding: 45 -1 45
GlifName: B_haU_U_
Width: 1287
VWidth: 0
Flags: HW
LayerCount: 2
Back
Fore
SplineSet
854 170 m 256
 854 112.507350248 808.568842094 62 752 62 c 256
 684.156313787 62 621.324648524 104.629413923 592 152 c 257
NamedP: "hr00"
 599 173 603 196 603 219 c 256
 603 270 584 317 546 361 c 256
 525 385 503 402 481 412 c 257
 662 524 l 257
 662 618 l 257
 369 441 l 257
 369 342 l 257
 384 352 l 257
 414 352 l 258
 493.737554514 352 553 270.840360793 553 189 c 256
 553 128.899960371 512.363944666 67 456 67 c 256
 399.783911472 67 361.073966133 105.871370426 329 141 c 257
 308 121 287 106 266 96 c 256
 245 85 226 80 207 80 c 256
 159.620035363 80 117 111.376392773 117 158 c 256
 117 193.050646484 146.691780842 220.11281226 172 235 c 257
 197 254 217 272 230 290 c 256
 244 309 251 325 251 340 c 256
 251 387.03109776 212.043456868 426 165 426 c 256
 132 426 101 413 73 386 c 256
 44 359 30 329 30 298 c 256
 30 259.215532977 68.5878786724 230 107 230 c 257
 78.8746781525 208.124749674 49 166.473388423 49 121 c 256
 49 96 64 70 94 44 c 256
 125 17 155 5 184 5 c 256
 227.804597318 5 267.58373837 37.7112370022 292 65 c 257
 313 44 332 28 351 17 c 256
 372 5 390 -1 407 -1 c 256
 456 -1 501 22 542 68 c 256
 547 75 552 81 557 86 c 257
 583.7455667 42.7956230232 637.301209275 -1 698 -1 c 256
 754 -1 806 22 853 68 c 256
 900 115 924 165 924 219 c 256
 924 240 917 263 906 286 c 256
 894 310 878 332 857 352 c 257
 1047 352 l 257
 1005.30114606 323.644779324 964 270.310153373 964 206 c 256
 964 146.733711716 1030.86587178 108 1093 108 c 256
 1133 108 1172 129 1209 172 c 256
 1246 214 1264 258 1264 304 c 256
 1264 337 1250 367 1221 391 c 256
 1192 415 1157 426 1117 426 c 258
 709 426 l 257
 660 352 l 257
 698 352 l 258
 787.314298157 352 854 262.959003295 854 170 c 256
255 -208 m 257
 330 -158 l 257
 330 32 l 257
 255 -18 l 257
 255 -208 l 257
176 321 m 256
 176 300.521881162 165.305185878 280 146 280 c 256
 119.278180519 280 93 313.917234287 93 340 c 256
 93 362.811858949 108.199786001 382 129 382 c 256
 154.148338358 382 176 347.263432647 176 321 c 256
1207 255 m 256
 1207 214.237227213 1170.06235887 184 1129 184 c 256
 1079.4081343 184 1033 219.433327398 1033 268 c 256
 1033 308.189565986 1060.34397246 352 1098 352 c 256
 1146.09871777 352 1207 302.655221427 1207 255 c 256
EndSplineSet
EndChar

StartChar: C
Encoding: 46 67 46
GlifName: C_
Width: 434
VWidth: 0
Flags: HW
LayerCount: 2
Back
Fore
SplineSet
259 38 m 256
 317.349963752 38 361.488762431 58.114605967 405 79 c 257
 411 29 l 257
 367 3 315 -11 253 -11 c 256
 119.531913718 -11 35 65.9358609059 35 202 c 256
 35 347.070598872 114.547808808 431 260 431 c 256
 316.221807232 431 369.776629394 415.250645966 404 396 c 257
 398 303 l 257
 341 303 l 257
 331.11171186 342.55315256 307.518972828 387 258 387 c 256
 169.255299374 387 137 308.745274638 137 215 c 256
 137 97 182 38 259 38 c 256
EndSplineSet
EndChar

StartChar: Ca
Encoding: 48 3098 48
GlifName: C_a
Width: 748
VWidth: 0
Flags: HW
LayerCount: 2
Back
Fore
SplineSet
415 60 m 257
 442.806086117 26.9802727357 490.538881701 -1 548 -1 c 256
 591 -1 633 20 671 64 c 256
 709 107 726 155 726 206 c 256
 726 261 704 311 661 357 c 256
 623 397 583 420 540 425 c 257
 693 519 l 257
NamedP: "hr00"
 693 613 l 257
 400 436 l 257
 400 337 l 257
 425 353 l 257
 425 352 l 257
 468 352 l 258
 521 352 569 334 614 297 c 256
 659 260 681 219 681 176 c 256
 681 122.656746589 638.716205106 74 585 74 c 256
 529.02114892 74 483.926459555 109.986174746 457 148 c 257
 434 121 410 100 387 85 c 256
 364 70 343 62 323 62 c 256
 277.634349516 62 239 123.527021569 239 170 c 256
 239 238.867807015 292.781260366 283.641102568 347 305 c 257
 87 305 l 257
 30 230 l 257
 199 230 l 257
 179.954061441 212.858655296 165 176.616457099 165 140 c 256
 165 105 176 72 202 43 c 256
 228 13 257 -1 287 -1 c 256
 304 -1 324 5 346 15 c 256
 369 26 392 40 415 60 c 257
EndSplineSet
EndChar

StartChar: CaAA
Encoding: 49 -1 49
GlifName: C_aA_A_
Width: 1125
VWidth: 0
Flags: HW
LayerCount: 2
Back
Fore
SplineSet
415 60 m 257
 442.806086117 26.9802727357 490.538881701 -1 548 -1 c 256
 591 -1 633 20 671 64 c 256
 709 107 726 155 726 206 c 256
 726 259 706 308 665 352 c 257
 892 352 l 257
NamedP: "hr00"
 847.859830934 327.281505323 810 272.03805876 810 206 c 256
 810 147.022649146 872.21461894 108 932 108 c 256
 972 108 1011 128 1048 167 c 256
 1086 208 1103 249 1103 291 c 256
 1103 364.292340259 1043.95385793 426 970 426 c 258
 227 426 l 257
 204 352 l 257
 468 352 l 258
 521 352 569 334 614 297 c 256
 659 260 681 219 681 176 c 256
 681 122.656746589 638.716205106 74 585 74 c 256
 529.02114892 74 483.926459555 109.986174746 457 148 c 257
 434 121 410 100 387 85 c 256
 364 70 343 62 323 62 c 256
 277.634349516 62 239 123.527021569 239 170 c 256
 239 238.867807015 292.781260366 283.641102568 347 305 c 257
 87 305 l 257
 30 230 l 257
 199 230 l 257
 179.954061441 212.858655296 165 176.616457099 165 140 c 256
 165 105 176 72 202 43 c 256
 228 13 257 -1 287 -1 c 256
 304 -1 324 5 346 15 c 256
 369 26 392 40 415 60 c 257
1054 268 m 256
 1054 218.942902902 1012.05086854 177 963 177 c 256
 914.816382032 177 867 209.872081133 867 255 c 256
 867 291.682593776 915.669043115 352 951 352 c 256
 1001.70106347 352 1054 317.905448805 1054 268 c 256
EndSplineSet
EndChar

StartChar: CaAU
Encoding: 50 -1 50
GlifName: C_aA_U_
Width: 1045
VWidth: 0
Flags: HW
LayerCount: 2
Back
Fore
SplineSet
415 60 m 257
 442.806086117 26.9802727357 490.538881701 -1 548 -1 c 256
 591 -1 633 20 671 64 c 256
 709 107 726 155 726 206 c 256
 726 261 704 311 661 357 c 256
 626 395 587 417 546 424 c 257
NamedP: "hr00"
 574 457 588 485 588 510 c 256
 588 526.988536669 583.720481118 546.799198136 577 558 c 257
 857 558 l 257
 830.251204717 540.80434589 810 504.589649705 810 461 c 256
 810 431 823 403 850 377 c 256
 877 352 907 339 938 339 c 256
 967 339 998 356 1028 390 c 256
 1059 425 1073 460 1073 493 c 256
 1073 566.619905994 1016.82624301 634 945 634 c 258
 343 634 l 257
 281 558 l 257
 423 558 l 258
 469.402935911 558 512 525.219532773 512 480 c 256
 512 452.014620509 493.225509986 426 466 426 c 256
 427.749774192 426 397.483745639 450.569097253 380 476 c 257
 319 406 l 257
 338.224539947 376.289347355 378.144516429 352 426 352 c 258
 468 352 l 258
 521 352 569 334 614 297 c 256
 659 260 681 219 681 176 c 256
 681 122.656746589 638.716205106 74 585 74 c 256
 529.02114892 74 483.926459555 109.986174746 457 148 c 257
 434 121 410 100 387 85 c 256
 364 70 343 62 323 62 c 256
 277.634349516 62 239 123.527021569 239 170 c 256
 239 238.867807015 292.781260366 283.641102568 347 305 c 257
 87 305 l 257
 30 230 l 257
 199 230 l 257
 179.954061441 212.858655296 165 176.616457099 165 140 c 256
 165 105 176 72 202 43 c 256
 228 13 257 -1 287 -1 c 256
 304 -1 324 5 346 15 c 256
 369 26 392 40 415 60 c 257
1010 455 m 256
 1010 428.604196082 988.400106999 407 962 407 c 256
 918.830455006 407 872 459.983394808 872 504 c 256
 872 534.280264363 890.681927266 564 920 564 c 256
 965.871893909 564 1010 503.220284389 1010 455 c 256
EndSplineSet
EndChar

StartChar: CaE
Encoding: 51 -1 51
GlifName: C_aE_
Width: 748
VWidth: 0
Flags: HW
LayerCount: 2
Back
Fore
SplineSet
415 60 m 257
 442.806086117 26.9802727357 490.538881701 -1 548 -1 c 256
 591 -1 633 20 671 64 c 256
 709 107 726 155 726 206 c 256
 726 261 704 311 661 357 c 256
 630 390 596 412 561 421 c 257
NamedP: "hr00"
 604 463 626 501 626 535 c 256
 626 568.932767607 600.084433678 597 565 597 c 258
 272 597 l 257
 204 522 l 257
 510 522 l 258
 534.435457293 522 557 505.328534186 557 480 c 256
 557 442.666708291 494.602471662 426 452 426 c 256
 426.633647567 426 410.37799461 436.853720446 398 451 c 257
 355 383 l 257
 364.549782991 363.900434019 394.814412682 352 426 352 c 258
 468 352 l 258
 521 352 569 334 614 297 c 256
 659 260 681 219 681 176 c 256
 681 122.656746589 638.716205106 74 585 74 c 256
 529.02114892 74 483.926459555 109.986174746 457 148 c 257
 434 121 410 100 387 85 c 256
 364 70 343 62 323 62 c 256
 277.634349516 62 239 123.527021569 239 170 c 256
 239 238.867807015 292.781260366 283.641102568 347 305 c 257
 87 305 l 257
 30 230 l 257
 199 230 l 257
 179.954061441 212.858655296 165 176.616457099 165 140 c 256
 165 105 176 72 202 43 c 256
 228 13 257 -1 287 -1 c 256
 304 -1 324 5 346 15 c 256
 369 26 392 40 415 60 c 257
EndSplineSet
EndChar

StartChar: CaEE
Encoding: 52 -1 52
GlifName: C_aE_E_
Width: 748
VWidth: 0
Flags: HW
LayerCount: 2
Back
Fore
SplineSet
415 60 m 257
 442.806086117 26.9802727357 490.538881701 -1 548 -1 c 256
 591 -1 633 20 671 64 c 256
 709 107 726 155 726 206 c 256
 726 261 704 311 661 357 c 256
 630 390 596 412 561 421 c 257
NamedP: "hr00"
 604 463 626 501 626 535 c 256
 626 568.932767607 600.084433678 597 565 597 c 258
 546 597 l 257
 533 609 523 620 516 629 c 257
 508 637 504 644 504 650 c 256
 504 660.552117914 512.035535816 668 522 668 c 256
 539.765954455 668 552.785580652 653.857261643 565 643 c 257
 614 686 l 257
 601.499315914 711.001368173 580.207017155 730 546 730 c 256
 529 730 508 719 484 697 c 256
 459 674 447 655 447 639 c 256
 447 622.344146628 459.769660979 605.525282517 470 597 c 257
 272 597 l 257
 204 522 l 257
 510 522 l 258
 536.772019621 522 557 496.377317507 557 468 c 256
 557 437.251884423 490.657883451 426 453 426 c 256
 427.662434837 426 410.509537211 436.703386044 398 451 c 257
 355 383 l 257
 364.549782991 363.900434019 394.814412682 352 426 352 c 258
 468 352 l 258
 521 352 569 334 614 297 c 256
 659 260 681 219 681 176 c 256
 681 122.656746589 638.716205106 74 585 74 c 256
 529.02114892 74 483.926459555 109.986174746 457 148 c 257
 434 121 410 100 387 85 c 256
 364 70 343 62 323 62 c 256
 277.634349516 62 239 123.527021569 239 170 c 256
 239 238.867807015 292.781260366 283.641102568 347 305 c 257
 87 305 l 257
 30 230 l 257
 199 230 l 257
 179.954061441 212.858655296 165 176.616457099 165 140 c 256
 165 105 176 72 202 43 c 256
 228 13 257 -1 287 -1 c 256
 304 -1 324 5 346 15 c 256
 369 26 392 40 415 60 c 257
EndSplineSet
EndChar

StartChar: CaHalanth
Encoding: 53 -1 53
GlifName: C_aH_alanth
Width: 823
VWidth: 0
Flags: HW
LayerCount: 2
Back
Fore
SplineSet
415 60 m 257
 442.806086117 26.9802727357 490.538881701 -1 548 -1 c 256
 591 -1 633 20 671 64 c 256
 709 107 726 155 726 206 c 256
 726 261 704 311 661 357 c 256
 617 403 569 426 517 426 c 258
 441 426 l 258
NamedP: "hr00"
 416.856551456 426 393 443.217930037 393 468 c 256
 393 476 400 487 414 498 c 256
 429 510 449 521 475 534 c 257
 436.786628157 543.907170478 387 568.03453966 387 608 c 256
 387 626.078381192 409.412656746 637 428 637 c 256
 451 637 476 631 502 618 c 256
 561 589 629 575 708 575 c 256
 731 575 751 581 769 594 c 257
 871 709 l 257
 832.732426121 675.95073165 795.250460072 662 732 662 c 256
 681 662 623 670 556 687 c 256
 523 696 493 700 466 700 c 256
 433 700 402 687 374 660 c 256
 345 633 331 603 331 571 c 256
 331 543.50635462 356.697860631 520.407665039 379 510 c 257
 360 494 346 478 335 462 c 256
 324 446 319 432 319 419 c 256
 319 377.93032976 363.416590748 352 405 352 c 258
 468 352 l 258
 521 352 569 334 614 297 c 256
 659 260 681 219 681 176 c 256
 681 122.656746589 638.716205106 74 585 74 c 256
 529.02114892 74 483.926459555 109.986174746 457 148 c 257
 434 121 410 100 387 85 c 256
 364 70 343 62 323 62 c 256
 277.634349516 62 239 123.527021569 239 170 c 256
 239 238.867807015 292.781260366 283.641102568 347 305 c 257
 87 305 l 257
 30 230 l 257
 199 230 l 257
 179.954061441 212.858655296 165 176.616457099 165 140 c 256
 165 105 176 72 202 43 c 256
 228 13 257 -1 287 -1 c 256
 304 -1 324 5 346 15 c 256
 369 26 392 40 415 60 c 257
EndSplineSet
EndChar

StartChar: CaI
Encoding: 54 -1 54
GlifName: C_aI_
Width: 753
VWidth: 0
Flags: HW
LayerCount: 2
Back
Fore
SplineSet
474 486 m 257
 461.449539615 448.348618845 429.68515673 402 384 402 c 256
NamedP: "hr00"
 350.942633119 402 318 427.765373103 318 461 c 256
 318 490.574226622 353.033369846 509 385 509 c 256
 422.593938239 509 456.677206417 503.322793583 474 486 c 257
194 230 m 257
 175.564370899 203.370757965 165 167.241394566 165 121 c 256
 165 91 175 63 199 37 c 256
 222 12 248 -1 274 -1 c 256
 331.103693173 -1 377.454781074 28.4547810736 408 59 c 257
 429.365039617 26.9524405743 471.63643551 -1 523 -1 c 256
 580 -1 630 25 671 79 c 256
 712 133 731 199 731 274 c 256
 731 357 703 427 647 485 c 256
 590 543 523 572 445 572 c 256
 400 572 358 557 317 525 c 256
 276 493 256 459 256 425 c 256
 256 376.459917928 302.600468843 339 353 339 c 256
 427.759642254 339 477.932273747 411.486063324 501 473 c 257
 554 446 596 411 627 368 c 256
 659 325 675 279 675 231 c 256
 675 156.095785411 638.877222897 62 572 62 c 256
 513.951291326 62 472.655909635 104.688180729 451 148 c 257
 430 124 410 105 389 92 c 256
 368 80 349 74 330 74 c 256
 275.763060156 74 227 111.271264033 227 164 c 256
 227 231.724911925 275.787564734 281.267074879 328 305 c 257
 87 305 l 257
 30 230 l 257
 194 230 l 257
EndSplineSet
EndChar

StartChar: CaII
Encoding: 55 -1 55
GlifName: C_aI_I_
Width: 753
VWidth: 0
Flags: HW
LayerCount: 2
Back
Fore
SplineSet
474 486 m 257
 461.449539615 448.348618845 429.68515673 402 384 402 c 256
NamedP: "hr00"
 350.942633119 402 318 427.765373103 318 461 c 256
 318 490.574226622 353.033369846 509 385 509 c 256
 422.593938239 509 456.677206417 503.322793583 474 486 c 257
194 230 m 257
 175.564370899 203.370757965 165 167.241394566 165 121 c 256
 165 91 175 63 199 37 c 256
 222 12 248 -1 274 -1 c 256
 331.103693173 -1 377.454781074 28.4547810736 408 59 c 257
 429.365039617 26.9524405743 471.63643551 -1 523 -1 c 256
 580 -1 630 25 671 79 c 256
 712 133 731 199 731 274 c 256
 731 347 708 413 662 470 c 256
 616 526 558 560 489 572 c 257
 494.644972562 585.171602646 511.537534127 594 530 594 c 256
 544.54538218 594 556.759640898 580.560410403 566 570 c 257
 641 631 l 257
 627.540616698 667.53261182 590.190198789 694 542 694 c 256
 493.107847489 694 466.445067817 622.377435254 462 572 c 257
 421 572 l 258
 382 572 345 556 310 525 c 256
 274 492 256 459 256 425 c 256
 256 376.459917928 302.600468843 339 353 339 c 256
 427.759642254 339 477.932273747 411.486063324 501 473 c 257
 554 446 596 411 627 368 c 256
 659 325 675 279 675 231 c 256
 675 156.095785411 638.877222897 62 572 62 c 256
 513.951291326 62 472.655909635 104.688180729 451 148 c 257
 430 124 410 105 389 92 c 256
 368 80 349 74 330 74 c 256
 275.763060156 74 227 111.271264033 227 164 c 256
 227 231.724911925 275.787564734 281.267074879 328 305 c 257
 87 305 l 257
 30 230 l 257
 194 230 l 257
EndSplineSet
EndChar

StartChar: CaNukta
Encoding: 56 3160 56
GlifName: C_aN_ukta
Width: 748
VWidth: 0
Flags: HW
LayerCount: 2
Back
Fore
SplineSet
495 671 m 256
 495 655.812535518 478.987950497 647 463 647 c 256
NamedP: "hr00"
 442.597978369 647 416 666.308767117 416 688 c 256
 416 702.439017986 425.742957846 719 440 719 c 256
 468.456405771 719 495 698.893836519 495 671 c 256
483 764 m 256
 427.758662463 764 354 723.615387045 354 671 c 256
 354 668 356 662 359 653 c 257
 116 653 l 257
 48 591 l 257
 48 590 l 257
 453 590 l 258
 478 590 502 601 527 623 c 256
 552 646 564 667 564 688 c 256
 564 731.912452053 525.99208132 764 483 764 c 256
415 60 m 257
 442.806086117 26.9802727357 490.538881701 -1 548 -1 c 256
 591 -1 633 20 671 64 c 256
 709 107 726 155 726 206 c 256
 726 261 704 311 661 357 c 256
 623 397 583 420 540 425 c 257
 693 519 l 257
 693 613 l 257
 400 436 l 257
 400 337 l 257
 425 353 l 257
 425 352 l 257
 468 352 l 258
 521 352 569 334 614 297 c 256
 659 260 681 219 681 176 c 256
 681 122.656746589 638.716205106 74 585 74 c 256
 529.02114892 74 483.926459555 109.986174746 457 148 c 257
 434 121 410 100 387 85 c 256
 364 70 343 62 323 62 c 256
 277.634349516 62 239 123.527021569 239 170 c 256
 239 238.867807015 292.781260366 283.641102568 347 305 c 257
 87 305 l 257
 30 230 l 257
 199 230 l 257
 179.954061441 212.858655296 165 176.616457099 165 140 c 256
 165 105 176 72 202 43 c 256
 228 13 257 -1 287 -1 c 256
 304 -1 324 5 346 15 c 256
 369 26 392 40 415 60 c 257
EndSplineSet
EndChar

StartChar: CaNuktaAA
Encoding: 57 -1 57
GlifName: C_aN_uktaA_A_
Width: 1125
VWidth: 0
Flags: HW
LayerCount: 2
Back
Fore
SplineSet
604 655 m 256
 604 639.812535518 587.987950497 631 572 631 c 256
NamedP: "hr00"
 551.597978369 631 525 650.308767117 525 672 c 256
 525 686.439017986 534.742957846 703 549 703 c 256
 577.456405771 703 604 682.893836519 604 655 c 256
592 748 m 256
 536.758662463 748 463 707.615387045 463 655 c 256
 463 652 465 646 468 637 c 257
 225 637 l 257
 157 575 l 257
 157 574 l 257
 562 574 l 258
 587 574 611 585 636 607 c 256
 661 630 673 651 673 672 c 256
 673 715.912452053 634.99208132 748 592 748 c 256
415 60 m 257
 442.806086117 26.9802727357 490.538881701 -1 548 -1 c 256
 591 -1 633 20 671 64 c 256
 709 107 726 155 726 206 c 256
 726 259 706 308 665 352 c 257
 892 352 l 257
 847.859830934 327.281505323 810 272.03805876 810 206 c 256
 810 147.022649146 872.21461894 108 932 108 c 256
 972 108 1011 128 1048 167 c 256
 1086 208 1103 249 1103 291 c 256
 1103 364.292340259 1043.95385793 426 970 426 c 258
 227 426 l 257
 204 352 l 257
 468 352 l 258
 521 352 569 334 614 297 c 256
 659 260 681 219 681 176 c 256
 681 122.656746589 638.716205106 74 585 74 c 256
 529.02114892 74 483.926459555 109.986174746 457 148 c 257
 434 121 410 100 387 85 c 256
 364 70 343 62 323 62 c 256
 277.634349516 62 239 123.527021569 239 170 c 256
 239 238.867807015 292.781260366 283.641102568 347 305 c 257
 87 305 l 257
 30 230 l 257
 199 230 l 257
 179.954061441 212.858655296 165 176.616457099 165 140 c 256
 165 105 176 72 202 43 c 256
 228 13 257 -1 287 -1 c 256
 304 -1 324 5 346 15 c 256
 369 26 392 40 415 60 c 257
1054 268 m 256
 1054 218.942902902 1012.05086854 177 963 177 c 256
 914.816382032 177 867 209.872081133 867 255 c 256
 867 291.682593776 915.669043115 352 951 352 c 256
 1001.70106347 352 1054 317.905448805 1054 268 c 256
EndSplineSet
EndChar

StartChar: CaNuktaAU
Encoding: 58 -1 58
GlifName: C_aN_uktaA_U_
Width: 1045
VWidth: 0
Flags: HW
LayerCount: 2
Back
Fore
SplineSet
604 725 m 256
 604 709.812535518 587.987950497 701 572 701 c 256
NamedP: "hr00"
 551.597978369 701 525 720.308767117 525 742 c 256
 525 756.439017986 534.742957846 773 549 773 c 256
 577.456405771 773 604 752.893836519 604 725 c 256
592 818 m 256
 536.758662463 818 463 777.615387045 463 725 c 256
 463 722 465 716 468 707 c 257
 225 707 l 257
 157 645 l 257
 157 644 l 257
 562 644 l 258
 587 644 611 655 636 677 c 256
 661 700 673 721 673 742 c 256
 673 785.912452053 634.99208132 818 592 818 c 256
415 60 m 257
 442.806086117 26.9802727357 490.538881701 -1 548 -1 c 256
 591 -1 633 20 671 64 c 256
 709 107 726 155 726 206 c 256
 726 261 704 311 661 357 c 256
 626 395 587 417 546 424 c 257
 574 457 588 485 588 510 c 256
 588 526.988536669 583.720481118 546.799198136 577 558 c 257
 857 558 l 257
 830.251204717 540.80434589 810 504.589649705 810 461 c 256
 810 431 823 403 850 377 c 256
 877 352 907 339 938 339 c 256
 967 339 998 356 1028 390 c 256
 1059 425 1073 460 1073 493 c 256
 1073 566.619905994 1016.82624301 634 945 634 c 258
 343 634 l 257
 281 558 l 257
 423 558 l 258
 469.402935911 558 512 525.219532773 512 480 c 256
 512 452.014620509 493.225509986 426 466 426 c 256
 427.749774192 426 397.483745639 450.569097253 380 476 c 257
 319 406 l 257
 338.224539947 376.289347355 378.144516429 352 426 352 c 258
 468 352 l 258
 521 352 569 334 614 297 c 256
 659 260 681 219 681 176 c 256
 681 122.656746589 638.716205106 74 585 74 c 256
 529.02114892 74 483.926459555 109.986174746 457 148 c 257
 434 121 410 100 387 85 c 256
 364 70 343 62 323 62 c 256
 277.634349516 62 239 123.527021569 239 170 c 256
 239 238.867807015 292.781260366 283.641102568 347 305 c 257
 87 305 l 257
 30 230 l 257
 199 230 l 257
 179.954061441 212.858655296 165 176.616457099 165 140 c 256
 165 105 176 72 202 43 c 256
 228 13 257 -1 287 -1 c 256
 304 -1 324 5 346 15 c 256
 369 26 392 40 415 60 c 257
1010 455 m 256
 1010 428.604196082 988.400106999 407 962 407 c 256
 918.830455006 407 872 459.983394808 872 504 c 256
 872 534.280264363 890.681927266 564 920 564 c 256
 965.871893909 564 1010 503.220284389 1010 455 c 256
EndSplineSet
EndChar

StartChar: CaNuktaHalanth
Encoding: 59 -1 59
GlifName: C_aN_uktaH_alanth
Width: 823
VWidth: 0
Flags: HW
LayerCount: 2
Back
Fore
SplineSet
483 904 m 256
 427.758662463 904 354 863.615387045 354 811 c 256
 354 808 356 802 359 793 c 257
 116 793 l 257
 46 730 l 257
 453 730 l 258
NamedP: "hr00"
 478 730 502 741 527 763 c 256
 552 786 564 807 564 828 c 256
 564 871.912452053 525.99208132 904 483 904 c 256
415 60 m 257
 442.806086117 26.9802727357 490.538881701 -1 548 -1 c 256
 591 -1 633 20 671 64 c 256
 709 107 726 155 726 206 c 256
 726 261 704 311 661 357 c 256
 617 403 569 426 517 426 c 258
 441 426 l 258
 416.856551456 426 393 443.217930037 393 468 c 256
 393 476 400 487 414 498 c 256
 429 510 449 521 475 534 c 257
 436.786628157 543.907170478 387 568.03453966 387 608 c 256
 387 626.078381192 409.412656746 637 428 637 c 256
 451 637 476 631 502 618 c 256
 561 589 629 575 708 575 c 256
 731 575 751 581 769 594 c 257
 871 709 l 257
 832.732426121 675.95073165 795.250460072 662 732 662 c 256
 681 662 623 670 556 687 c 256
 523 696 493 700 466 700 c 256
 433 700 402 687 374 660 c 256
 345 633 331 603 331 571 c 256
 331 543.50635462 356.697860631 520.407665039 379 510 c 257
 360 494 346 478 335 462 c 256
 324 446 319 432 319 419 c 256
 319 377.93032976 363.416590748 352 405 352 c 258
 468 352 l 258
 521 352 569 334 614 297 c 256
 659 260 681 219 681 176 c 256
 681 122.656746589 638.716205106 74 585 74 c 256
 529.02114892 74 483.926459555 109.986174746 457 148 c 257
 434 121 410 100 387 85 c 256
 364 70 343 62 323 62 c 256
 277.634349516 62 239 123.527021569 239 170 c 256
 239 238.867807015 292.781260366 283.641102568 347 305 c 257
 87 305 l 257
 30 230 l 257
 199 230 l 257
 179.954061441 212.858655296 165 176.616457099 165 140 c 256
 165 105 176 72 202 43 c 256
 228 13 257 -1 287 -1 c 256
 304 -1 324 5 346 15 c 256
 369 26 392 40 415 60 c 257
495 811 m 256
 495 796.25257696 479.581771445 787 464 787 c 256
 443.173007764 787 416 805.821726498 416 828 c 256
 416 842.439017986 425.742957846 859 440 859 c 256
 468.456405771 859 495 838.893836519 495 811 c 256
EndSplineSet
EndChar

StartChar: CaNuktaO
Encoding: 60 -1 60
GlifName: C_aN_uktaO_
Width: 1023
VWidth: 0
Flags: HW
LayerCount: 2
Back
Fore
SplineSet
604 725 m 256
 604 709.812535518 587.987950497 701 572 701 c 256
NamedP: "hr00"
 551.597978369 701 525 720.308767117 525 742 c 256
 525 756.439017986 534.742957846 773 549 773 c 256
 577.456405771 773 604 752.893836519 604 725 c 256
592 818 m 256
 536.758662463 818 463 777.615387045 463 725 c 256
 463 722 465 716 468 707 c 257
 225 707 l 257
 157 645 l 257
 157 644 l 257
 562 644 l 258
 587 644 611 655 636 677 c 256
 661 700 673 721 673 742 c 256
 673 785.912452053 634.99208132 818 592 818 c 256
415 60 m 257
 442.806086117 26.9802727357 490.538881701 -1 548 -1 c 256
 591 -1 633 20 671 64 c 256
 709 107 726 155 726 206 c 256
 726 261 704 311 661 357 c 256
 617 403 569 426 517 426 c 258
 423 426 l 258
 386.091788355 426 351 454.180683839 351 491 c 256
 351 516.329560376 373.565522396 533 398 533 c 258
 470 533 l 258
 515.18971465 533 547.361052427 512.565741924 567 484 c 257
 583 500 598 512 611 520 c 256
 624 529 635 533 646 533 c 258
 860 533 l 257
 836.342855949 512.126049367 806 478.790113095 806 444 c 256
 806 421 819 399 844 380 c 256
 870 360 898 352 928 352 c 256
 955 352 983 369 1011 403 c 256
 1039 437 1051 471 1051 504 c 256
 1051 532 1041 558 1017 579 c 256
 994 600 966 609 935 609 c 258
 701 609 l 258
 688 609 674 605 657 596 c 256
 640 588 622 576 603 560 c 257
 580.014976591 588.28925958 542.61099192 609 495 609 c 258
 428 609 l 258
 399 609 370 593 340 561 c 256
 310 530 295 499 295 468 c 256
 295 436 304 408 325 385 c 256
 345 363 370 352 398 352 c 258
 468 352 l 258
 521 352 569 334 614 297 c 256
 659 260 681 219 681 176 c 256
 681 122.656746589 638.716205106 74 585 74 c 256
 529.02114892 74 483.926459555 109.986174746 457 148 c 257
 434 121 410 100 387 85 c 256
 364 70 343 62 323 62 c 256
 277.634349516 62 239 123.527021569 239 170 c 256
 239 238.867807015 292.781260366 283.641102568 347 305 c 257
 87 305 l 257
 30 230 l 257
 199 230 l 257
 179.954061441 212.858655296 165 176.616457099 165 140 c 256
 165 105 176 72 202 43 c 256
 228 13 257 -1 287 -1 c 256
 304 -1 324 5 346 15 c 256
 369 26 392 40 415 60 c 257
916 533 m 256
 954.196968874 533 994 505.688100168 994 468 c 256
 994 456 990 446 981 439 c 257
 974 430 964 426 952 426 c 256
 913.803031126 426 874 453.311899832 874 491 c 256
 874 503 878 513 887 520 c 257
 894 529 904 533 916 533 c 256
EndSplineSet
EndChar

StartChar: CaNuktaOO
Encoding: 61 -1 61
GlifName: C_aN_uktaO_O_
Width: 1043
VWidth: 0
Flags: HW
LayerCount: 2
Back
Fore
SplineSet
604 725 m 256
 604 709.812535518 587.987950497 701 572 701 c 256
NamedP: "hr00"
 551.597978369 701 525 720.308767117 525 742 c 256
 525 756.439017986 534.742957846 773 549 773 c 256
 577.456405771 773 604 752.893836519 604 725 c 256
592 818 m 256
 536.758662463 818 463 777.615387045 463 725 c 256
 463 722 465 716 468 707 c 257
 225 707 l 257
 157 645 l 257
 157 644 l 257
 562 644 l 258
 587 644 611 655 636 677 c 256
 661 700 673 721 673 742 c 256
 673 785.912452053 634.99208132 818 592 818 c 256
415 60 m 257
 442.806086117 26.9802727357 490.538881701 -1 548 -1 c 256
 591 -1 633 20 671 64 c 256
 709 107 726 155 726 206 c 256
 726 261 704 311 661 357 c 256
 617 403 569 426 517 426 c 258
 428 426 l 258
 390.948735285 426 357 455.541477559 357 491 c 256
 357 515.784934454 380.864283413 533 405 533 c 258
 476 533 l 258
 521.18971465 533 553.361052427 512.565741924 573 484 c 257
 589 500 604 512 617 520 c 256
 630 529 641 533 652 533 c 258
 860 533 l 257
 843 518 830 503 821 489 c 256
 812 473 807 460 807 450 c 256
 807 426 820 404 845 383 c 256
 872 362 900 352 930 352 c 256
 957 352 984 369 1012 403 c 256
 1039 437 1052 471 1052 504 c 256
 1052 544.865138556 1025.17307076 577.770365979 997 596 c 258
 948 626 l 258
 931 636 918 647 909 659 c 257
 899 670 894 681 894 693 c 256
 894 716.796726256 917.318824263 734 942 734 c 256
 963.56854287 734 978.172976345 709.083478613 990 692 c 257
 1071 741 l 257
 1055.5486977 768.468981862 1028.57560794 790 990 790 c 256
 955 790 919 777 884 750 c 256
 849 722 831 695 831 668 c 256
 831 641.740635276 854.226471278 622.330146541 872 609 c 257
 707 609 l 258
 694 609 680 605 663 596 c 256
 646 588 628 576 610 560 c 257
 587.078507524 588.211067662 548.345916131 609 501 609 c 258
 435 609 l 258
 406 609 376 593 345 561 c 256
 315 530 300 499 300 468 c 256
 300 405.789292362 343.057914507 352 405 352 c 258
 468 352 l 258
 521 352 569 334 614 297 c 256
 659 260 681 219 681 176 c 256
 681 122.656746589 638.716205106 74 585 74 c 256
 529.02114892 74 483.926459555 109.986174746 457 148 c 257
 434 121 410 100 387 85 c 256
 364 70 343 62 323 62 c 256
 277.634349516 62 239 123.527021569 239 170 c 256
 239 238.867807015 292.781260366 283.641102568 347 305 c 257
 87 305 l 257
 30 230 l 257
 199 230 l 257
 179.954061441 212.858655296 165 176.616457099 165 140 c 256
 165 105 176 72 202 43 c 256
 228 13 257 -1 287 -1 c 256
 304 -1 324 5 346 15 c 256
 369 26 392 40 415 60 c 257
917 533 m 256
 955.720332709 533 995 505.688100168 995 468 c 256
 995 456 991 446 982 439 c 257
 975 430 965 426 953 426 c 256
 914.537428898 426 876 452.749666899 876 491 c 256
 876 514.344637655 895.207000215 533 917 533 c 256
EndSplineSet
EndChar

StartChar: CaNuktaU
Encoding: 62 -1 62
GlifName: C_aN_uktaU_
Width: 1067
VWidth: 0
Flags: HW
LayerCount: 2
Back
Fore
SplineSet
604 655 m 256
 604 639.812535518 587.987950497 631 572 631 c 256
NamedP: "hr00"
 551.597978369 631 525 650.308767117 525 672 c 256
 525 686.439017986 534.742957846 703 549 703 c 256
 577.456405771 703 604 682.893836519 604 655 c 256
592 748 m 256
 536.758662463 748 463 707.615387045 463 655 c 256
 463 652 465 646 468 637 c 257
 225 637 l 257
 157 575 l 257
 157 574 l 257
 562 574 l 258
 587 574 611 585 636 607 c 256
 661 630 673 651 673 672 c 256
 673 715.912452053 634.99208132 748 592 748 c 256
982 176 m 256
 982 112.926136777 920.72613898 62 855 62 c 256
 794.496274149 62 744.234092079 106.840338861 719 151 c 257
 724 169 726 187 726 206 c 256
 726 261 704 311 661 357 c 256
 623 397 583 420 540 425 c 257
 693 519 l 257
 693 613 l 257
 400 436 l 257
 400 337 l 257
 425 353 l 257
 425 352 l 257
 468 352 l 258
 521 352 569 334 614 297 c 256
 659 260 681 219 681 176 c 256
 681 122.656746589 638.716205106 74 585 74 c 256
 529.02114892 74 483.926459555 109.986174746 457 148 c 257
 434 121 410 100 387 85 c 256
 364 70 343 62 323 62 c 256
 277.634349516 62 239 123.527021569 239 170 c 256
 239 238.867807015 292.781260366 283.641102568 347 305 c 257
 87 305 l 257
 30 230 l 257
 199 230 l 257
 179.954061441 212.858655296 165 176.616457099 165 140 c 256
 165 105 176 72 202 43 c 256
 228 13 257 -1 287 -1 c 256
 304 -1 324 5 346 15 c 256
 369 26 392 40 415 60 c 257
 442.806086117 26.9802727357 490.538881701 -1 548 -1 c 256
 591 -1 633 20 671 64 c 258
 677 71 l 257
 701.672270888 32.87012681 750.900190073 -1 807 -1 c 256
 866 -1 920 23 970 72 c 256
 1020 121 1045 174 1045 231 c 256
 1045 284 1026 332 986 370 c 256
 947 408 899 426 843 426 c 257
 800 352 l 257
 851 352 894 335 929 300 c 256
 964 266 982 225 982 176 c 256
EndSplineSet
EndChar

StartChar: CaNuktaUU
Encoding: 63 -1 63
GlifName: C_aN_uktaU_U_
Width: 1416
VWidth: 0
Flags: HW
LayerCount: 2
Back
Fore
SplineSet
604 655 m 256
 604 639.812535518 587.987950497 631 572 631 c 256
NamedP: "hr00"
 551.597978369 631 525 650.308767117 525 672 c 256
 525 686.439017986 534.742957846 703 549 703 c 256
 577.456405771 703 604 682.893836519 604 655 c 256
592 748 m 256
 536.758662463 748 463 707.615387045 463 655 c 256
 463 652 465 646 468 637 c 257
 225 637 l 257
 157 575 l 257
 157 574 l 257
 562 574 l 258
 587 574 611 585 636 607 c 256
 661 630 673 651 673 672 c 256
 673 715.912452053 634.99208132 748 592 748 c 256
985 170 m 256
 985 111.959798279 938.496354449 62 882 62 c 256
 811.981335768 62 749.002377959 106.919052685 720 156 c 257
 724 172 726 189 726 206 c 256
 726 261 704 311 661 357 c 256
 623 397 583 420 540 425 c 257
 693 519 l 257
 693 613 l 257
 400 436 l 257
 400 337 l 257
 425 353 l 257
 425 352 l 257
 468 352 l 258
 521 352 569 334 614 297 c 256
 659 260 681 219 681 176 c 256
 681 122.656746589 638.716205106 74 585 74 c 256
 529.02114892 74 483.926459555 109.986174746 457 148 c 257
 434 121 410 100 387 85 c 256
 364 70 343 62 323 62 c 256
 277.634349516 62 239 123.527021569 239 170 c 256
 239 238.867807015 292.781260366 283.641102568 347 305 c 257
 87 305 l 257
 30 230 l 257
 199 230 l 257
 179.954061441 212.858655296 165 176.616457099 165 140 c 256
 165 105 176 72 202 43 c 256
 228 13 257 -1 287 -1 c 256
 304 -1 324 5 346 15 c 256
 369 26 392 40 415 60 c 257
 442.806086117 26.9802727357 490.538881701 -1 548 -1 c 256
 591 -1 632 21 671 64 c 256
 677 71 682 79 687 86 c 257
 713.626992147 42.9871665325 768.59699635 -1 828 -1 c 256
 884 -1 936 22 983 68 c 256
 1030 115 1054 165 1054 219 c 256
 1054 274.084489115 1020.1726366 321.359393714 988 352 c 257
 1178 352 l 257
 1135.46030373 323.073006537 1095 272.030750491 1095 206 c 256
 1095 146.237046441 1161.23975942 108 1223 108 c 256
 1263 108 1302 129 1339 172 c 256
 1376 214 1394 258 1394 304 c 256
 1394 337 1381 367 1352 391 c 256
 1323 415 1287 426 1247 426 c 258
 840 426 l 257
 790 352 l 257
 828 352 l 258
 916.955468862 352 985 262.405627728 985 170 c 256
1337 255 m 256
 1337 213.224519553 1300.86718061 184 1259 184 c 256
 1209.57921778 184 1163 221.304540837 1163 268 c 256
 1163 308.189565986 1190.43311049 352 1228 352 c 256
 1276.09871777 352 1337 302.655221427 1337 255 c 256
EndSplineSet
EndChar

StartChar: CaO
Encoding: 64 -1 64
GlifName: C_aO_
Width: 1023
VWidth: 0
Flags: HW
LayerCount: 2
Back
Fore
SplineSet
415 60 m 257
 442.806086117 26.9802727357 490.538881701 -1 548 -1 c 256
 591 -1 633 20 671 64 c 256
 709 107 726 155 726 206 c 256
 726 261 704 311 661 357 c 256
 617 403 569 426 517 426 c 258
 423 426 l 258
NamedP: "hr00"
 386.091788355 426 351 454.180683839 351 491 c 256
 351 516.329560376 373.565522396 533 398 533 c 258
 470 533 l 258
 515.18971465 533 547.361052427 512.565741924 567 484 c 257
 583 500 598 512 611 520 c 256
 624 529 635 533 646 533 c 258
 860 533 l 257
 836.342855949 512.126049367 806 478.790113095 806 444 c 256
 806 421 819 399 844 380 c 256
 870 360 898 352 928 352 c 256
 955 352 983 369 1011 403 c 256
 1039 437 1051 471 1051 504 c 256
 1051 532 1041 558 1017 579 c 256
 994 600 966 609 935 609 c 258
 701 609 l 258
 688 609 674 605 657 596 c 256
 640 588 622 576 603 560 c 257
 580.014976591 588.28925958 542.61099192 609 495 609 c 258
 428 609 l 258
 399 609 370 593 340 561 c 256
 310 530 295 499 295 468 c 256
 295 436 304 408 325 385 c 256
 345 363 370 352 398 352 c 258
 468 352 l 258
 521 352 569 334 614 297 c 256
 659 260 681 219 681 176 c 256
 681 122.656746589 638.716205106 74 585 74 c 256
 529.02114892 74 483.926459555 109.986174746 457 148 c 257
 434 121 410 100 387 85 c 256
 364 70 343 62 323 62 c 256
 277.634349516 62 239 123.527021569 239 170 c 256
 239 238.867807015 292.781260366 283.641102568 347 305 c 257
 87 305 l 257
 30 230 l 257
 199 230 l 257
 179.954061441 212.858655296 165 176.616457099 165 140 c 256
 165 105 176 72 202 43 c 256
 228 13 257 -1 287 -1 c 256
 304 -1 324 5 346 15 c 256
 369 26 392 40 415 60 c 257
916 533 m 256
 954.196968874 533 994 505.688100168 994 468 c 256
 994 456 990 446 981 439 c 257
 974 430 964 426 952 426 c 256
 913.803031126 426 874 453.311899832 874 491 c 256
 874 503 878 513 887 520 c 257
 894 529 904 533 916 533 c 256
EndSplineSet
EndChar

StartChar: CaOO
Encoding: 65 -1 65
GlifName: C_aO_O_
Width: 1043
VWidth: 0
Flags: HW
LayerCount: 2
Back
Fore
SplineSet
415 60 m 257
 442.806086117 26.9802727357 490.538881701 -1 548 -1 c 256
 591 -1 633 20 671 64 c 256
 709 107 726 155 726 206 c 256
 726 261 704 311 661 357 c 256
 617 403 569 426 517 426 c 258
 428 426 l 258
NamedP: "hr00"
 390.948735285 426 357 455.541477559 357 491 c 256
 357 515.784934454 380.864283413 533 405 533 c 258
 476 533 l 258
 521.18971465 533 553.361052427 512.565741924 573 484 c 257
 589 500 604 512 617 520 c 256
 630 529 641 533 652 533 c 258
 860 533 l 257
 843 518 830 503 821 489 c 256
 812 473 807 460 807 450 c 256
 807 426 820 404 845 383 c 256
 872 362 900 352 930 352 c 256
 957 352 984 369 1012 403 c 256
 1039 437 1052 471 1052 504 c 256
 1052 544.865138556 1025.17307076 577.770365979 997 596 c 258
 948 626 l 258
 931 636 918 647 909 659 c 257
 899 670 894 681 894 693 c 256
 894 716.796726256 917.318824263 734 942 734 c 256
 963.56854287 734 978.172976345 709.083478613 990 692 c 257
 1071 741 l 257
 1055.5486977 768.468981862 1028.57560794 790 990 790 c 256
 955 790 919 777 884 750 c 256
 849 722 831 695 831 668 c 256
 831 641.740635276 854.226471278 622.330146541 872 609 c 257
 707 609 l 258
 694 609 680 605 663 596 c 256
 646 588 628 576 610 560 c 257
 587.078507524 588.211067662 548.345916131 609 501 609 c 258
 435 609 l 258
 406 609 376 593 345 561 c 256
 315 530 300 499 300 468 c 256
 300 405.789292362 343.057914507 352 405 352 c 258
 468 352 l 258
 521 352 569 334 614 297 c 256
 659 260 681 219 681 176 c 256
 681 122.656746589 638.716205106 74 585 74 c 256
 529.02114892 74 483.926459555 109.986174746 457 148 c 257
 434 121 410 100 387 85 c 256
 364 70 343 62 323 62 c 256
 277.634349516 62 239 123.527021569 239 170 c 256
 239 238.867807015 292.781260366 283.641102568 347 305 c 257
 87 305 l 257
 30 230 l 257
 199 230 l 257
 179.954061441 212.858655296 165 176.616457099 165 140 c 256
 165 105 176 72 202 43 c 256
 228 13 257 -1 287 -1 c 256
 304 -1 324 5 346 15 c 256
 369 26 392 40 415 60 c 257
917 533 m 256
 955.720332709 533 995 505.688100168 995 468 c 256
 995 456 991 446 982 439 c 257
 975 430 965 426 953 426 c 256
 914.537428898 426 876 452.749666899 876 491 c 256
 876 514.344637655 895.207000215 533 917 533 c 256
EndSplineSet
EndChar

StartChar: CaOttu
Encoding: 66 -1 66
GlifName: C_aO_ttu
Width: 270
VWidth: 0
Flags: HW
LayerCount: 2
Back
Fore
SplineSet
-45 -288 m 256
 -80.0502529461 -288 -113 -260.383585362 -113 -225 c 256
 -113 -206 -105 -188 -91 -170 c 256
 -76 -151 -57 -133 -30 -117 c 257
 -220 -117 l 257
 -276 -184 l 257
 -138 -184 l 257
 -151 -202 -158 -221 -158 -241 c 256
 -158 -264 -148 -287 -127 -310 c 256
 -106 -332 -84 -343 -62 -343 c 256
NamedP: "hr00"
 -24.5614870463 -343 2.01583020716 -320.088245256 18 -297 c 257
 37.9661695454 -318.630017008 69.6174462083 -343 109 -343 c 256
 201.696840659 -343 248 -215.712397351 248 -114 c 256
 248 17.3633863403 166.580837854 117.855634391 70 160 c 257
 4 101 l 257
 62 72 108 35 142 -12 c 256
 176 -57 193 -105 193 -155 c 256
 193 -216.973486794 174.630878439 -288 119 -288 c 256
 108 -288 96 -283 83 -274 c 256
 70 -265 55 -251 40 -233 c 257
 25 -251 10 -265 -3 -274 c 256
 -18 -283 -32 -288 -45 -288 c 256
EndSplineSet
EndChar

StartChar: CaU
Encoding: 67 -1 67
GlifName: C_aU_
Width: 1067
VWidth: 0
Flags: HW
LayerCount: 2
Back
Fore
SplineSet
982 176 m 256
 982 112.926136777 920.72613898 62 855 62 c 256
 794.496274149 62 744.234092079 106.840338861 719 151 c 257
NamedP: "hr00"
 724 169 726 187 726 206 c 256
 726 261 704 311 661 357 c 256
 623 397 583 420 540 425 c 257
 693 519 l 257
 693 613 l 257
 400 436 l 257
 400 337 l 257
 425 353 l 257
 425 352 l 257
 468 352 l 258
 521 352 569 334 614 297 c 256
 659 260 681 219 681 176 c 256
 681 122.656746589 638.716205106 74 585 74 c 256
 529.02114892 74 483.926459555 109.986174746 457 148 c 257
 434 121 410 100 387 85 c 256
 364 70 343 62 323 62 c 256
 277.634349516 62 239 123.527021569 239 170 c 256
 239 238.867807015 292.781260366 283.641102568 347 305 c 257
 87 305 l 257
 30 230 l 257
 199 230 l 257
 179.954061441 212.858655296 165 176.616457099 165 140 c 256
 165 105 176 72 202 43 c 256
 228 13 257 -1 287 -1 c 256
 304 -1 324 5 346 15 c 256
 369 26 392 40 415 60 c 257
 442.806086117 26.9802727357 490.538881701 -1 548 -1 c 256
 591 -1 633 20 671 64 c 258
 677 71 l 257
 701.672270888 32.87012681 750.900190073 -1 807 -1 c 256
 866 -1 920 23 970 72 c 256
 1020 121 1045 174 1045 231 c 256
 1045 284 1026 332 986 370 c 256
 947 408 899 426 843 426 c 257
 800 352 l 257
 851 352 894 335 929 300 c 256
 964 266 982 225 982 176 c 256
EndSplineSet
EndChar

StartChar: CaUU
Encoding: 68 -1 68
GlifName: C_aU_U_
Width: 1416
VWidth: 0
Flags: HW
LayerCount: 2
Back
Fore
SplineSet
985 170 m 256
 985 111.959798279 938.496354449 62 882 62 c 256
 811.981335768 62 749.002377959 106.919052685 720 156 c 257
NamedP: "hr00"
 724 172 726 189 726 206 c 256
 726 261 704 311 661 357 c 256
 623 397 583 420 540 425 c 257
 693 519 l 257
 693 613 l 257
 400 436 l 257
 400 337 l 257
 425 353 l 257
 425 352 l 257
 468 352 l 258
 521 352 569 334 614 297 c 256
 659 260 681 219 681 176 c 256
 681 122.656746589 638.716205106 74 585 74 c 256
 529.02114892 74 483.926459555 109.986174746 457 148 c 257
 434 121 410 100 387 85 c 256
 364 70 343 62 323 62 c 256
 277.634349516 62 239 123.527021569 239 170 c 256
 239 238.867807015 292.781260366 283.641102568 347 305 c 257
 87 305 l 257
 30 230 l 257
 199 230 l 257
 179.954061441 212.858655296 165 176.616457099 165 140 c 256
 165 105 176 72 202 43 c 256
 228 13 257 -1 287 -1 c 256
 304 -1 324 5 346 15 c 256
 369 26 392 40 415 60 c 257
 442.806086117 26.9802727357 490.538881701 -1 548 -1 c 256
 591 -1 632 21 671 64 c 256
 677 71 682 79 687 86 c 257
 713.626992147 42.9871665325 768.59699635 -1 828 -1 c 256
 884 -1 936 22 983 68 c 256
 1030 115 1054 165 1054 219 c 256
 1054 274.084489115 1020.1726366 321.359393714 988 352 c 257
 1178 352 l 257
 1135.46030373 323.073006537 1095 272.030750491 1095 206 c 256
 1095 146.237046441 1161.23975942 108 1223 108 c 256
 1263 108 1302 129 1339 172 c 256
 1376 214 1394 258 1394 304 c 256
 1394 337 1381 367 1352 391 c 256
 1323 415 1287 426 1247 426 c 258
 840 426 l 257
 790 352 l 257
 828 352 l 258
 916.955468862 352 985 262.405627728 985 170 c 256
1337 255 m 256
 1337 213.224519553 1300.86718061 184 1259 184 c 256
 1209.57921778 184 1163 221.304540837 1163 268 c 256
 1163 308.189565986 1190.43311049 352 1228 352 c 256
 1276.09871777 352 1337 302.655221427 1337 255 c 256
EndSplineSet
EndChar

StartChar: Ccedilla
Encoding: 69 199 69
GlifName: C_cedilla
Width: 434
VWidth: 0
Flags: HW
LayerCount: 2
Back
Fore
SplineSet
259 38 m 256
 317.349963752 38 361.488762431 58.114605967 405 79 c 257
 411 29 l 257
 367 3 315 -11 253 -11 c 256
 119.531913718 -11 35 65.9358609059 35 202 c 256
 35 347.070598872 114.547808808 431 260 431 c 256
 316.221807232 431 369.776629394 415.250645966 404 396 c 257
 398 303 l 257
 341 303 l 257
 331.11171186 342.55315256 307.518972828 387 258 387 c 256
 169.255299374 387 137 308.745274638 137 215 c 256
 137 97 182 38 259 38 c 256
283 -82 m 256
 283 -127.974000662 252.042896249 -149 206 -149 c 256
 182 -149 164 -145 152 -137 c 257
 151 -134 151 -130 151 -125 c 256
 151 -120 151 -115 152 -110 c 257
 167 -114 181 -117 193 -117 c 256
 218 -117 233 -107 233 -87 c 256
 233 -67 222 -57 203 -53 c 256
 202 -53 200 -54 198 -54 c 257
 197 -55 194 -55 192 -56 c 257
 187.956817562 -51.9568175623 181.624380938 -50.874793646 176 -49 c 257
 202 3 l 257
 232 3 l 257
 215 -29 l 257
 255.02029193 -30.8191041786 283 -41.8841402167 283 -82 c 256
EndSplineSet
EndChar

StartChar: Cha
Encoding: 70 3099 70
GlifName: C_ha
Width: 748
VWidth: 0
Flags: HW
LayerCount: 2
Back
Fore
SplineSet
415 60 m 257
 442.806086117 26.9802727357 490.538881701 -1 548 -1 c 256
 591 -1 633 20 671 64 c 256
 709 107 726 155 726 206 c 256
 726 261 704 311 661 357 c 256
 623 397 583 420 540 425 c 257
 693 519 l 257
NamedP: "hr00"
 693 613 l 257
 400 436 l 257
 400 337 l 257
 425 353 l 257
 425 352 l 257
 468 352 l 258
 521 352 569 334 614 297 c 256
 659 260 681 219 681 176 c 256
 681 122.656746589 638.716205106 74 585 74 c 256
 529.02114892 74 483.926459555 109.986174746 457 148 c 257
 434 121 410 100 387 85 c 256
 364 70 343 62 323 62 c 256
 277.634349516 62 239 123.527021569 239 170 c 256
 239 238.867807015 292.781260366 283.641102568 347 305 c 257
 87 305 l 257
 30 230 l 257
 199 230 l 257
 179.954061441 212.858655296 165 176.616457099 165 140 c 256
 165 105 176 72 202 43 c 256
 228 13 257 -1 287 -1 c 256
 304 -1 324 5 346 15 c 256
 369 26 392 40 415 60 c 257
365 -221 m 257
 439 -171 l 257
 439 21 l 257
 365 -29 l 257
 365 -93 365 -157 365 -221 c 257
EndSplineSet
EndChar

StartChar: ChaAA
Encoding: 71 -1 71
GlifName: C_haA_A_
Width: 1124
VWidth: 0
Flags: HW
LayerCount: 2
Back
Fore
SplineSet
415 60 m 257
 442.806086117 26.9802727357 490.538881701 -1 548 -1 c 256
 591 -1 633 20 671 64 c 256
 709 107 726 155 726 206 c 256
 726 259 703 308 657 352 c 257
 891 352 l 257
NamedP: "hr00"
 846.859830934 327.281505323 809 272.03805876 809 206 c 256
 809 147.022649146 871.21461894 108 931 108 c 256
 971 108 1010 128 1047 167 c 256
 1085 208 1102 249 1102 291 c 256
 1102 328 1090 360 1063 387 c 256
 1036 414 1005 426 968 426 c 258
 226 426 l 257
 202 352 l 257
 475 352 l 258
 526 352 573 334 616 297 c 256
 659 260 681 219 681 176 c 256
 681 122.656746589 638.716205106 74 585 74 c 256
 529.02114892 74 483.926459555 109.986174746 457 148 c 257
 434 121 410 100 387 85 c 256
 364 70 343 62 323 62 c 256
 277.634349516 62 239 123.527021569 239 170 c 256
 239 238.867807015 292.781260366 283.641102568 347 305 c 257
 87 305 l 257
 30 230 l 257
 199 230 l 257
 179.954061441 212.858655296 165 176.616457099 165 140 c 256
 165 105 176 72 202 43 c 256
 228 13 257 -1 287 -1 c 256
 304 -1 324 5 346 15 c 256
 369 26 392 40 415 60 c 257
365 -221 m 257
 439 -171 l 257
 439 21 l 257
 365 -29 l 257
 365 -221 l 257
1052 268 m 256
 1052 217.820965285 1011.71476428 177 962 177 c 256
 913.686798235 177 866 208.90615859 866 255 c 256
 866 292.872392274 913.310392153 352 950 352 c 256
 1000.88396832 352 1052 317.441886347 1052 268 c 256
EndSplineSet
EndChar

StartChar: ChaAU
Encoding: 72 -1 72
GlifName: C_haA_U_
Width: 1044
VWidth: 0
Flags: HW
LayerCount: 2
Back
Fore
SplineSet
415 60 m 257
 442.806086117 26.9802727357 490.538881701 -1 548 -1 c 256
 591 -1 633 20 671 64 c 256
 709 107 726 155 726 206 c 256
 726 261 702 311 653 357 c 256
 617 390 580 411 542 420 c 257
NamedP: "hr00"
 572 454 587 484 587 510 c 256
 587 527.29984328 583.421549562 547.473063048 575 558 c 257
 855 558 l 257
 829.541229666 540.374697461 809 504.258679777 809 461 c 256
 809 431 822 403 849 377 c 256
 876 352 906 339 937 339 c 256
 966 339 997 356 1027 390 c 256
 1058 425 1072 460 1072 493 c 256
 1072 566.070120349 1015.05383805 634 943 634 c 258
 342 634 l 257
 280 558 l 257
 422 558 l 258
 468.402935911 558 511 525.219532773 511 480 c 256
 511 453.159822322 491.873549142 426 465 426 c 256
 425.211131467 426 397.219650388 450.373799482 378 476 c 257
 317 406 l 257
 337.596626817 376.821445342 372.951312328 355.558260426 419 353 c 257
 419 352 l 257
 475 352 l 258
 526 352 573 334 616 297 c 256
 659 260 681 219 681 176 c 256
 681 122.656746589 638.716205106 74 585 74 c 256
 529.02114892 74 483.926459555 109.986174746 457 148 c 257
 434 121 410 100 387 85 c 256
 364 70 343 62 323 62 c 256
 277.634349516 62 239 123.527021569 239 170 c 256
 239 238.867807015 292.781260366 283.641102568 347 305 c 257
 87 305 l 257
 30 230 l 257
 199 230 l 257
 179.954061441 212.858655296 165 176.616457099 165 140 c 256
 165 105 176 72 202 43 c 256
 228 13 257 -1 287 -1 c 256
 304 -1 324 5 346 15 c 256
 369 26 392 40 415 60 c 257
365 -221 m 257
 439 -171 l 257
 439 21 l 257
 365 -29 l 257
 365 -221 l 257
1009 455 m 256
 1009 428.604196082 987.400106999 407 961 407 c 256
 938 407 919 418 899 439 c 256
 880 458 871 480 871 504 c 256
 871 534.85266636 888.36915831 564 918 564 c 256
 964.908930181 564 1009 503.829893792 1009 455 c 256
EndSplineSet
EndChar

StartChar: ChaE
Encoding: 73 -1 73
GlifName: C_haE_
Width: 748
VWidth: 0
Flags: HW
LayerCount: 2
Back
Fore
SplineSet
415 60 m 257
 442.806086117 26.9802727357 490.538881701 -1 548 -1 c 256
 591 -1 633 20 671 64 c 256
 709 107 726 155 726 206 c 256
 726 261 702 311 653 357 c 256
 622 386 589 406 556 416 c 257
NamedP: "hr00"
 600.660567201 460.660567201 624 499.095307181 624 535 c 256
 624 552 618 567 607 580 c 257
 594 591 580 597 563 597 c 258
 271 597 l 257
 203 522 l 257
 508 522 l 258
 532.143448544 522 556 504.782069963 556 480 c 256
 556 442.666708291 493.602471662 426 451 426 c 256
 425.633647567 426 409.37799461 436.853720446 397 451 c 257
 354 383 l 257
 362.85717069 365.285658619 390.899159113 352 420 352 c 258
 475 352 l 258
 526 352 573 334 616 297 c 256
 659 260 681 219 681 176 c 256
 681 122.656746589 638.716205106 74 585 74 c 256
 529.02114892 74 483.926459555 109.986174746 457 148 c 257
 434 121 410 100 387 85 c 256
 364 70 343 62 323 62 c 256
 277.634349516 62 239 123.527021569 239 170 c 256
 239 238.867807015 292.781260366 283.641102568 347 305 c 257
 87 305 l 257
 30 230 l 257
 199 230 l 257
 179.954061441 212.858655296 165 176.616457099 165 140 c 256
 165 105 176 72 202 43 c 256
 228 13 257 -1 287 -1 c 256
 304 -1 324 5 346 15 c 256
 369 26 392 40 415 60 c 257
365 -221 m 257
 439 -171 l 257
 439 21 l 257
 365 -29 l 257
 365 -221 l 257
EndSplineSet
EndChar

StartChar: ChaEE
Encoding: 74 -1 74
GlifName: C_haE_E_
Width: 748
VWidth: 0
Flags: HW
LayerCount: 2
Back
Fore
SplineSet
415 60 m 257
 442.806086117 26.9802727357 490.538881701 -1 548 -1 c 256
 591 -1 633 20 671 64 c 256
 709 107 726 155 726 206 c 256
 726 261 702 311 653 357 c 256
 622 386 589 406 556 416 c 257
NamedP: "hr00"
 600.660567201 460.660567201 624 499.095307181 624 535 c 256
 624 552 618 567 607 580 c 257
 594 591 580 597 563 597 c 258
 545 597 l 257
 532 609 522 620 514 629 c 256
 507 637 503 644 503 650 c 256
 503 660.552117914 510.44302887 668 521 668 c 256
 538.319405545 668 552.070326105 653.929673895 563 643 c 257
 613 686 l 257
 600.499315914 711.001368173 579.207017155 730 545 730 c 256
 527 730 506 719 482 697 c 256
 458 674 446 655 446 639 c 256
 446 632 448 624 452 615 c 257
 457 608 463 602 469 597 c 257
 271 597 l 257
 203 522 l 257
 508 522 l 258
 534.395803918 522 556 495.807651298 556 468 c 256
 556 437.251884423 489.657883451 426 452 426 c 256
 426.662434837 426 409.509537211 436.703386044 397 451 c 257
 354 383 l 257
 362.85717069 365.285658619 390.899159113 352 420 352 c 258
 475 352 l 258
 526 352 573 334 616 297 c 256
 659 260 681 219 681 176 c 256
 681 122.656746589 638.716205106 74 585 74 c 256
 529.02114892 74 483.926459555 109.986174746 457 148 c 257
 434 121 410 100 387 85 c 256
 364 70 343 62 323 62 c 256
 277.634349516 62 239 123.527021569 239 170 c 256
 239 238.867807015 292.781260366 283.641102568 347 305 c 257
 87 305 l 257
 30 230 l 257
 199 230 l 257
 179.954061441 212.858655296 165 176.616457099 165 140 c 256
 165 105 176 72 202 43 c 256
 228 13 257 -1 287 -1 c 256
 304 -1 324 5 346 15 c 256
 369 26 392 40 415 60 c 257
365 -221 m 257
 439 -171 l 257
 439 21 l 257
 365 -29 l 257
 365 -221 l 257
EndSplineSet
EndChar

StartChar: ChaHalanth
Encoding: 75 -1 75
GlifName: C_haH_alanth
Width: 821
VWidth: 0
Flags: HW
LayerCount: 2
Back
Fore
SplineSet
415 60 m 257
 442.806086117 26.9802727357 490.538881701 -1 548 -1 c 256
 591 -1 633 20 671 64 c 256
 709 107 726 155 726 206 c 256
 726 261 702 311 653 357 c 256
 603 403 549 426 492 426 c 258
 440 426 l 258
NamedP: "hr00"
 415.856551456 426 392 443.217930037 392 468 c 256
 392 476 399 486 413 498 c 256
 427 509 447 521 474 534 c 257
 435.252327773 544.0456928 386 566.968322552 386 608 c 256
 386 626.078381192 408.412656746 637 427 637 c 256
 450 637 475 631 501 618 c 256
 559 589 628 575 707 575 c 256
 730 575 750 581 768 594 c 257
 870 711 l 257
 832.714295642 677.103905129 795.084988887 662 731 662 c 256
 680 662 622 670 555 687 c 256
 522 696 492 700 465 700 c 256
 432 700 401 687 372 660 c 256
 344 633 330 603 330 571 c 256
 330 543.50635462 355.697860631 520.407665039 378 510 c 257
 359 494 345 478 334 462 c 256
 323 446 317 432 317 419 c 256
 317 377.93032976 361.416590748 352 403 352 c 258
 475 352 l 258
 526 352 573 334 616 297 c 256
 659 260 681 219 681 176 c 256
 681 122.656746589 638.716205106 74 585 74 c 256
 529.02114892 74 483.926459555 109.986174746 457 148 c 257
 434 121 410 100 387 85 c 256
 364 70 343 62 323 62 c 256
 277.634349516 62 239 123.527021569 239 170 c 256
 239 238.867807015 292.781260366 283.641102568 347 305 c 257
 87 305 l 257
 30 230 l 257
 199 230 l 257
 179.954061441 212.858655296 165 176.616457099 165 140 c 256
 165 105 176 72 202 43 c 256
 228 13 257 -1 287 -1 c 256
 304 -1 324 5 346 15 c 256
 369 26 392 40 415 60 c 257
365 -221 m 257
 439 -171 l 257
 439 21 l 257
 365 -29 l 257
 365 -221 l 257
EndSplineSet
EndChar

StartChar: ChaI
Encoding: 76 -1 76
GlifName: C_haI_
Width: 753
VWidth: 0
Flags: HW
LayerCount: 2
Back
Fore
SplineSet
365 -221 m 257
NamedP: "hr00"
 439 -171 l 257
 439 21 l 257
 365 -29 l 257
 365 -221 l 257
NamedP: "hr00"
194 230 m 257
 175.564370899 203.370757965 165 167.241394566 165 121 c 256
 165 91 175 63 199 37 c 256
 222 12 248 -1 275 -1 c 256
 330.975324459 -1 377.861215193 28.8612151935 408 59 c 257
 429.365039617 26.9524405743 471.63643551 -1 523 -1 c 256
 580 -1 630 25 671 79 c 256
 712 133 731 199 731 274 c 256
 731 357 703 427 647 485 c 256
 590 543 523 572 445 572 c 256
 400 572 358 557 317 525 c 256
 276 493 256 459 256 425 c 256
 256 376.459917928 302.600468843 339 353 339 c 256
 427.759642254 339 477.932273747 411.486063324 501 473 c 257
 554 446 596 411 627 368 c 256
 659 325 675 279 675 231 c 256
 675 156.095785411 638.877222897 62 572 62 c 256
 513.951291326 62 472.655909635 104.688180729 451 148 c 257
 430 124 410 105 389 92 c 256
 368 80 349 74 330 74 c 256
 275.763060156 74 227 111.271264033 227 164 c 256
 227 231.724911925 275.787564734 281.267074879 328 305 c 257
 87 305 l 257
 30 230 l 257
 194 230 l 257
474 486 m 257
 461.622321243 448.866963728 429.979515394 402 385 402 c 256
 350.977509842 402 318 427.277926628 318 461 c 256
 318 490.574226622 353.033369846 509 385 509 c 256
 422.593938239 509 456.677206417 503.322793583 474 486 c 257
EndSplineSet
EndChar

StartChar: ChaII
Encoding: 77 -1 77
GlifName: C_haI_I_
Width: 753
VWidth: 0
Flags: HW
LayerCount: 2
Back
Fore
SplineSet
365 -221 m 257
NamedP: "hr00"
 439 -171 l 257
 439 21 l 257
 365 -29 l 257
 365 -93 365 -157 365 -221 c 257
NamedP: "hr00"
474 486 m 257
 461.449539615 448.348618845 429.68515673 402 384 402 c 256
 350.942633119 402 318 427.765373103 318 461 c 256
 318 490.574226622 353.033369846 509 385 509 c 256
 422.593938239 509 456.677206417 503.322793583 474 486 c 257
194 230 m 257
 175.564370899 203.370757965 165 167.241394566 165 121 c 256
 165 91 175 63 199 37 c 256
 222 12 248 -1 274 -1 c 256
 331.103693173 -1 377.454781074 28.4547810736 408 59 c 257
 429.365039617 26.9524405743 471.63643551 -1 523 -1 c 256
 580 -1 630 25 671 79 c 256
 712 133 731 199 731 274 c 256
 731 347 708 413 662 470 c 256
 616 526 558 560 489 572 c 257
 494.644972562 585.171602646 511.537534127 594 530 594 c 256
 544.54538218 594 556.759640898 580.560410403 566 570 c 257
 641 631 l 257
 627.540616698 667.53261182 590.190198789 694 542 694 c 256
 493.107847489 694 466.445067817 622.377435254 462 572 c 257
 421 572 l 258
 382 572 345 556 310 525 c 256
 274 492 256 459 256 425 c 256
 256 376.459917928 302.600468843 339 353 339 c 256
 427.759642254 339 477.932273747 411.486063324 501 473 c 257
 554 446 596 411 627 368 c 256
 659 325 675 279 675 231 c 256
 675 156.095785411 638.877222897 62 572 62 c 256
 513.951291326 62 472.655909635 104.688180729 451 148 c 257
 430 124 410 105 389 92 c 256
 368 80 349 74 330 74 c 256
 275.763060156 74 227 111.271264033 227 164 c 256
 227 231.724911925 275.787564734 281.267074879 328 305 c 257
 87 305 l 257
 30 230 l 257
 194 230 l 257
EndSplineSet
EndChar

StartChar: ChaO
Encoding: 78 -1 78
GlifName: C_haO_
Width: 1021
VWidth: 0
Flags: HW
LayerCount: 2
Back
Fore
SplineSet
415 60 m 257
 442.806086117 26.9802727357 490.538881701 -1 548 -1 c 256
 591 -1 633 20 671 64 c 256
 709 107 726 155 726 206 c 256
 726 261 702 311 653 357 c 256
 603 403 549 426 492 426 c 258
 422 426 l 258
NamedP: "hr00"
 385.15205768 426 349 455.571176664 349 491 c 256
 349 515.784934454 372.864283413 533 397 533 c 258
 468 533 l 258
 513.67365565 533 546.182544984 512.825389115 566 484 c 257
 581 500 596 512 609 520 c 256
 622 529 634 533 645 533 c 258
 859 533 l 257
 835.342855949 512.126049367 805 478.790113095 805 444 c 256
 805 421 816 399 842 380 c 256
 868 360 897 352 927 352 c 256
 954 352 981 369 1009 403 c 256
 1036 437 1049 471 1049 504 c 256
 1049 532 1039 558 1016 579 c 256
 994 600 965 609 933 609 c 258
 700 609 l 258
 687 609 673 605 656 596 c 256
 639 588 621 576 602 560 c 257
 578.695899142 588.681970286 541.676158999 609 493 609 c 258
 427 609 l 258
 398 609 369 593 339 561 c 256
 310 530 294 499 294 468 c 256
 294 436 303 408 324 385 c 256
 344 363 369 352 397 352 c 258
 475 352 l 258
 526 352 573 334 616 297 c 256
 659 260 681 219 681 176 c 256
 681 122.656746589 638.716205106 74 585 74 c 256
 529.02114892 74 483.926459555 109.986174746 457 148 c 257
 434 121 410 100 387 85 c 256
 364 70 343 62 323 62 c 256
 277.634349516 62 239 123.527021569 239 170 c 256
 239 238.867807015 292.781260366 283.641102568 347 305 c 257
 87 305 l 257
 30 230 l 257
 199 230 l 257
 179.954061441 212.858655296 165 176.616457099 165 140 c 256
 165 105 176 72 202 43 c 256
 228 13 257 -1 287 -1 c 256
 304 -1 324 5 346 15 c 256
 369 26 392 40 415 60 c 257
365 -221 m 257
 439 -171 l 257
 439 21 l 257
 365 -29 l 257
 365 -221 l 257
992 468 m 256
 992 444.655362345 972.792999785 426 951 426 c 256
 912.279667291 426 873 453.311899832 873 491 c 256
 873 503 877 513 886 520 c 257
 893 529 903 533 915 533 c 256
 953.462571102 533 992 506.250333101 992 468 c 256
EndSplineSet
EndChar

StartChar: ChaOO
Encoding: 79 -1 79
GlifName: C_haO_O_
Width: 1041
VWidth: 0
Flags: HW
LayerCount: 2
Back
Fore
SplineSet
415 60 m 257
 442.806086117 26.9802727357 490.538881701 -1 548 -1 c 256
 591 -1 633 20 671 64 c 256
 709 107 726 155 726 206 c 256
 726 261 702 311 653 357 c 256
 603 403 549 426 492 426 c 258
 427 426 l 258
NamedP: "hr00"
 389.948735285 426 356 455.541477559 356 491 c 256
 356 516.329560376 378.565522396 533 403 533 c 258
 475 533 l 258
 520.18971465 533 552.361052427 512.565741924 572 484 c 257
 588 500 603 512 616 520 c 256
 629 529 640 533 651 533 c 258
 859 533 l 257
 842 518 829 503 820 489 c 256
 811 473 806 460 806 450 c 256
 806 426 819 404 844 383 c 256
 870 362 898 352 928 352 c 256
 955 352 983 369 1011 403 c 256
 1039 437 1051 471 1051 504 c 256
 1051 544.865138556 1024.17307076 577.770365979 996 596 c 258
 947 626 l 258
 930 636 917 647 908 659 c 257
 898 670 893 681 893 693 c 256
 893 716.796726256 916.318824263 734 941 734 c 256
 962.241564877 734 977.370679293 709.272646148 988 692 c 257
 1069 741 l 257
 1054.90096627 769.198067457 1026.44337911 790 988 790 c 256
 953 790 918 778 882 750 c 256
 847 723 830 695 830 668 c 256
 830 642.151606239 852.057378197 622.456966352 870 609 c 257
 706 609 l 258
 693 609 679 605 662 596 c 256
 645 588 627 576 608 560 c 257
 585.014976591 588.28925958 547.61099192 609 500 609 c 258
 433 609 l 258
 404 609 375 593 344 561 c 256
 314 530 299 499 299 468 c 256
 299 436 308 408 329 385 c 256
 349 363 375 352 403 352 c 258
 475 352 l 258
 526 352 573 334 616 297 c 256
 659 260 681 219 681 176 c 256
 681 122.656746589 638.716205106 74 585 74 c 256
 529.02114892 74 483.926459555 109.986174746 457 148 c 257
 434 121 410 100 387 85 c 256
 364 70 343 62 323 62 c 256
 277.634349516 62 239 123.527021569 239 170 c 256
 239 238.867807015 292.781260366 283.641102568 347 305 c 257
 87 305 l 257
 30 230 l 257
 199 230 l 257
 179.954061441 212.858655296 165 176.616457099 165 140 c 256
 165 105 176 72 202 43 c 256
 228 13 257 -1 287 -1 c 256
 304 -1 324 5 346 15 c 256
 369 26 392 40 415 60 c 257
365 -221 m 257
 439 -171 l 257
 439 21 l 257
 365 -29 l 257
 365 -221 l 257
916 533 m 256
 954.196968874 533 994 505.688100168 994 468 c 256
 994 456 990 446 981 439 c 257
 974 430 964 426 952 426 c 256
 913.803031126 426 874 453.311899832 874 491 c 256
 874 503 878 513 887 520 c 257
 894 529 904 533 916 533 c 256
EndSplineSet
EndChar

StartChar: ChaOttu
Encoding: 80 -1 80
GlifName: C_haO_ttu
Width: 270
VWidth: 0
Flags: HW
LayerCount: 2
Back
Fore
SplineSet
-45 -288 m 256
 -80.0502529461 -288 -113 -260.383585362 -113 -225 c 256
 -113 -206 -105 -188 -91 -170 c 256
 -76 -151 -57 -133 -30 -117 c 257
 -220 -117 l 257
 -276 -184 l 257
 -138 -184 l 257
 -151 -202 -158 -221 -158 -241 c 256
 -158 -264 -148 -287 -127 -310 c 256
 -106 -332 -84 -343 -62 -343 c 256
NamedP: "hr00"
 -24.5614870463 -343 2.01583020716 -320.088245256 18 -297 c 257
 37.9661695454 -318.630017008 69.6174462083 -343 109 -343 c 256
 201.696840659 -343 248 -215.712397351 248 -114 c 256
 248 17.3633863403 166.580837854 117.855634391 70 160 c 257
 4 101 l 257
 62 72 108 35 142 -12 c 256
 176 -57 193 -105 193 -155 c 256
 193 -216.973486794 174.630878439 -288 119 -288 c 256
 108 -288 96 -283 83 -274 c 256
 70 -265 55 -251 40 -233 c 257
 25 -251 10 -265 -3 -274 c 256
 -18 -283 -32 -288 -45 -288 c 256
-35 -439 m 257
 30 -413 l 257
 30 -319 l 257
 -35 -352 l 257
 -35 -381 -35 -410 -35 -439 c 257
EndSplineSet
EndChar

StartChar: ChaU
Encoding: 81 -1 81
GlifName: C_haU_
Width: 1066
VWidth: 0
Flags: HW
LayerCount: 2
Back
Fore
SplineSet
981 176 m 256
 981 112.926136777 919.72613898 62 854 62 c 256
 793.273393862 62 743.5909164 106.348472666 718 149 c 257
NamedP: "hr00"
 723 168 726 187 726 206 c 256
 726 261 704 311 661 357 c 256
 623 397 583 420 540 425 c 257
 693 519 l 257
 693 613 l 257
 400 436 l 257
 400 337 l 257
 425 353 l 257
 425 352 l 257
 468 352 l 258
 521 352 569 334 614 297 c 256
 659 260 681 219 681 176 c 256
 681 122.656746589 638.716205106 74 585 74 c 256
 529.02114892 74 483.926459555 109.986174746 457 148 c 257
 434 121 410 100 387 85 c 256
 364 70 343 62 323 62 c 256
 277.634349516 62 239 123.527021569 239 170 c 256
 239 238.867807015 292.781260366 283.641102568 347 305 c 257
 87 305 l 257
 30 230 l 257
 199 230 l 257
 179.954061441 212.858655296 165 176.616457099 165 140 c 256
 165 105 176 72 202 43 c 256
 228 13 257 -1 287 -1 c 256
 304 -1 324 5 346 15 c 256
 369 26 392 40 415 60 c 257
 442.806086117 26.9802727357 490.538881701 -1 548 -1 c 256
 591 -1 634 19 671 64 c 258
 676 70 l 257
 700.44651302 32.2190253328 750.200961539 -1 805 -1 c 256
 864 -1 919 23 969 72 c 256
 1019 121 1044 174 1044 231 c 256
 1044 284 1025 332 985 370 c 256
 946 408 897 426 842 426 c 257
 798 352 l 257
 849 352 893 335 928 300 c 256
 963 266 981 225 981 176 c 256
365 -221 m 257
 439 -171 l 257
 439 21 l 257
 365 -29 l 257
 365 -221 l 257
EndSplineSet
EndChar

StartChar: ChaUU
Encoding: 82 -1 82
GlifName: C_haU_U_
Width: 1416
VWidth: 0
Flags: HW
LayerCount: 2
Back
Fore
SplineSet
984 170 m 256
 984 112.507350248 938.568842094 62 882 62 c 256
 812.178284909 62 749.633334237 107.130767771 720 155 c 257
NamedP: "hr00"
 724 172 726 189 726 206 c 256
 726 261 704 311 661 357 c 256
 623 397 583 420 540 425 c 257
 693 519 l 257
 693 613 l 257
 400 436 l 257
 400 337 l 257
 425 353 l 257
 425 352 l 257
 468 352 l 258
 521 352 569 334 614 297 c 256
 659 260 681 219 681 176 c 256
 681 122.656746589 638.716205106 74 585 74 c 256
 529.02114892 74 483.926459555 109.986174746 457 148 c 257
 434 121 410 100 387 85 c 256
 364 70 343 62 323 62 c 256
 277.634349516 62 239 123.527021569 239 170 c 256
 239 238.867807015 292.781260366 283.641102568 347 305 c 257
 87 305 l 257
 30 230 l 257
 199 230 l 257
 179.954061441 212.858655296 165 176.616457099 165 140 c 256
 165 105 176 72 202 43 c 256
 228 13 257 -1 287 -1 c 256
 304 -1 324 5 346 15 c 256
 369 26 392 40 415 60 c 257
 442.806086117 26.9802727357 490.538881701 -1 548 -1 c 256
 591 -1 632 21 671 64 c 256
 677 71 682 79 687 86 c 257
 713.7455667 42.7956230232 767.301209275 -1 828 -1 c 256
 884 -1 936 22 983 68 c 256
 1030 115 1054 165 1054 219 c 256
 1054 240 1047 263 1036 286 c 256
 1024 310 1008 332 987 352 c 257
 1177 352 l 257
 1135.30114606 323.644779324 1094 270.310153373 1094 206 c 256
 1094 146.733711716 1160.86587178 108 1223 108 c 256
 1263 108 1302 129 1339 172 c 256
 1376 214 1394 258 1394 304 c 256
 1394 337 1380 367 1351 391 c 256
 1322 415 1287 426 1247 426 c 258
 839 426 l 257
 790 352 l 257
 828 352 l 258
 917.314298157 352 984 262.959003295 984 170 c 256
365 -221 m 257
 439 -171 l 257
 439 21 l 257
 365 -29 l 257
 365 -221 l 257
1337 255 m 256
 1337 214.237227213 1300.06235887 184 1259 184 c 256
 1209.4081343 184 1163 219.433327398 1163 268 c 256
 1163 308.189565986 1190.34397246 352 1228 352 c 256
 1276.09871777 352 1337 302.655221427 1337 255 c 256
EndSplineSet
EndChar

StartChar: D
Encoding: 83 68 83
GlifName: D_
Width: 499
VWidth: 0
Flags: HW
LayerCount: 2
Back
Fore
SplineSet
362 211 m 256
 362 319.267545734 333.879833177 380 230 380 c 256
 222 380 214 380 206 379 c 256
 198 379 189 379 180 379 c 257
 180 44 l 257
 191 44 l 258
 313.640738683 44 362 88.0808067313 362 211 c 256
464 209 m 256
 464 37.6077114528 348.306595333 0 178 0 c 256
 152 0 126 0 101 -1 c 256
 75 -1 50 -2 24 -2 c 257
 24 42 l 257
 47 42 l 258
 56 42 65 42 74 44 c 257
 83 50 84 62 84 80 c 258
 84 336 l 258
 84 352 83 364 81 375 c 257
 71 376 61 376 50 376 c 258
 20 376 l 257
 20 418 l 257
 82 423 152 426 240 426 c 256
 386.914663397 426 464 362.442134627 464 209 c 256
EndSplineSet
EndChar

StartChar: DDa
Encoding: 84 3105 84
GlifName: D_D_a
Width: 608
VWidth: 0
Flags: HW
LayerCount: 2
Back
Fore
SplineSet
482 389 m 257
 472.34746067 404.168276089 458.607487191 426 439 426 c 258
 293 426 l 257
 498 553 l 257
NamedP: "hr00"
 498 647 l 257
 205 470 l 257
 205 414 l 257
 120.946615908 371.115620361 30 281.540530287 30 170 c 256
 30 129 44 90 73 53 c 256
 101 17 132 -1 165 -1 c 256
 211.966482233 -1 252.23328543 32.2332854296 280 60 c 257
 309.237586435 25.280366109 357.822869717 -1 420 -1 c 256
 456 -1 493 16 530 50 c 256
 567 84 585 118 585 151 c 256
 585 178.256699414 575.144576951 200.748495168 560 214 c 257
 484 139 l 257
 504.021408966 139 516 124.322781831 516 104 c 256
 516 77.9811748843 478.296348739 62 450 62 c 256
 394.663582505 62 352.015292063 99.9816495239 322 136 c 257
 293.038760235 101.927953218 251.72684552 74 195 74 c 256
 142.685322333 74 93 144.905791775 93 200 c 256
 93 272.057916127 142.327829985 326.513466122 195 352 c 257
 377 352 l 258
 392.927111437 352 406 341.96151748 406 326 c 257
 482 389 l 257
EndSplineSet
EndChar

StartChar: DDaAA
Encoding: 85 -1 85
GlifName: D_D_aA_A_
Width: 971
VWidth: 0
Flags: HW
LayerCount: 2
Back
Fore
SplineSet
93 200 m 256
 93 272.057916127 142.327829985 326.513466122 195 352 c 257
 377 352 l 258
NamedP: "hr00"
 392.927111437 352 406 341.96151748 406 326 c 257
 437 352 l 257
 737 352 l 257
 693.760342216 327.785791641 655 270.34111705 655 206 c 256
 655 147.022649146 717.21461894 108 777 108 c 256
 817 108 856 128 893 167 c 256
 931 208 948 249 948 291 c 256
 948 328 936 361 910 387 c 256
 884 414 852 426 815 426 c 258
 73 426 l 257
 49 352 l 257
 118 352 l 257
 107 341 96 329 85 316 c 256
 48 269 30 221 30 170 c 256
 30 129 44 90 73 53 c 256
 101 17 132 -1 165 -1 c 256
 211.966482233 -1 252.23328543 32.2332854296 280 60 c 257
 309.237586435 25.280366109 357.822869717 -1 420 -1 c 256
 456 -1 493 16 530 50 c 256
 567 84 585 118 585 151 c 256
 585 178.256699414 575.144576951 200.748495168 560 214 c 257
 484 139 l 257
 504.021408966 139 516 124.322781831 516 104 c 256
 516 77.9811748843 478.296348739 62 450 62 c 256
 394.663582505 62 352.015292063 99.9816495239 322 136 c 257
 293.038760235 101.927953218 251.72684552 74 195 74 c 256
 142.685322333 74 93 144.905791775 93 200 c 256
899 268 m 256
 899 217.820965285 858.120174683 177 809 177 c 256
 760.992788295 177 712 209.4087282 712 255 c 256
 712 291.682593776 760.669043115 352 796 352 c 256
 847.830058252 352 899 317.905448805 899 268 c 256
EndSplineSet
EndChar

StartChar: DDaAU
Encoding: 86 -1 86
GlifName: D_D_aA_U_
Width: 891
VWidth: 0
Flags: HW
LayerCount: 2
Back
Fore
SplineSet
482 389 m 257
 472.34746067 404.168276089 458.607487191 426 439 426 c 258
 393 426 l 257
NamedP: "hr00"
 420 458 433 486 433 511 c 256
 433 529.539766938 428.748844911 547.751925148 422 559 c 257
 702 559 l 257
 675.951028146 542.254232379 655 503.907950919 655 462 c 256
 655 432 668 404 695 378 c 256
 722 353 752 340 784 340 c 256
 813 340 843 357 873 391 c 256
 904 426 918 461 918 494 c 256
 918 567.619905994 861.826243014 635 790 635 c 258
 189 635 l 257
 127 559 l 257
 269 559 l 258
 314.901931222 559 358 525.221636905 358 481 c 256
 358 453.570790145 337.855739137 427 311 427 c 256
 272.749774192 427 242.483745639 451.569097253 225 477 c 257
 164 407 l 257
 167 402 170 398 173 395 c 257
 103.050724867 353.03043492 30 265.318916454 30 170 c 256
 30 129 44 90 73 53 c 256
 101 17 132 -1 165 -1 c 256
 211.966482233 -1 252.23328543 32.2332854296 280 60 c 257
 309.237586435 25.280366109 357.822869717 -1 420 -1 c 256
 456 -1 493 16 530 50 c 256
 567 84 585 118 585 151 c 256
 585 178.256699414 575.144576951 200.748495168 560 214 c 257
 484 139 l 257
 504.021408966 139 516 124.322781831 516 104 c 256
 516 77.9811748843 478.296348739 62 450 62 c 256
 394.663582505 62 352.015292063 99.9816495239 322 136 c 257
 293.038760235 101.927953218 251.72684552 74 195 74 c 256
 142.685322333 74 93 144.905791775 93 200 c 256
 93 272.057916127 142.327829985 326.513466122 195 352 c 257
 377 352 l 258
 392.927111437 352 406 341.96151748 406 326 c 257
 482 389 l 257
855 456 m 256
 855 429.604196082 833.400106999 408 807 408 c 256
 764.637328245 408 717 460.111402195 717 505 c 256
 717 535.280264363 735.681927266 565 765 565 c 256
 811.071512658 565 855 504.220284389 855 456 c 256
EndSplineSet
EndChar

StartChar: DDaE
Encoding: 87 -1 87
GlifName: D_D_aE_
Width: 608
VWidth: 0
Flags: HW
LayerCount: 2
Back
Fore
SplineSet
93 200 m 256
 93 272.057916127 142.327829985 326.513466122 195 352 c 257
 377 352 l 258
NamedP: "hr00"
 392.927111437 352 406 341.96151748 406 326 c 257
 482 389 l 257
 472.34746067 404.168276089 458.607487191 426 439 426 c 258
 411 426 l 257
 451 466 471 502 471 535 c 256
 471 568.932767607 445.084433678 597 410 597 c 258
 117 597 l 257
 49 522 l 257
 355 522 l 258
 379.143448544 522 403 504.782069963 403 480 c 256
 403 443.097643431 339.608483649 426 297 426 c 256
 271.544994534 426 256.655541813 436.536523643 244 451 c 257
 226 424 l 257
 167 398 120 362 85 316 c 256
 48 269 30 221 30 170 c 256
 30 129 44 90 73 53 c 256
 101 17 132 -1 165 -1 c 256
 211.966482233 -1 252.23328543 32.2332854296 280 60 c 257
 309.237586435 25.280366109 357.822869717 -1 420 -1 c 256
 456 -1 493 16 530 50 c 256
 567 84 585 118 585 151 c 256
 585 178.256699414 575.144576951 200.748495168 560 214 c 257
 484 139 l 257
 504.021408966 139 516 124.322781831 516 104 c 256
 516 77.9811748843 478.296348739 62 450 62 c 256
 394.663582505 62 352.015292063 99.9816495239 322 136 c 257
 293.038760235 101.927953218 251.72684552 74 195 74 c 256
 142.685322333 74 93 144.905791775 93 200 c 256
EndSplineSet
EndChar

StartChar: DDaEE
Encoding: 88 -1 88
GlifName: D_D_aE_E_
Width: 608
VWidth: 0
Flags: HW
LayerCount: 2
Back
Fore
SplineSet
93 200 m 256
 93 272.057916127 142.327829985 326.513466122 195 352 c 257
 377 352 l 258
NamedP: "hr00"
 392.927111437 352 406 341.96151748 406 326 c 257
 482 389 l 257
 472.34746067 404.168276089 458.607487191 426 439 426 c 258
 411 426 l 257
 451 466 471 502 471 535 c 256
 471 568.932767607 445.084433678 597 410 597 c 258
 391 597 l 257
 378 609 368 620 361 629 c 256
 354 637 350 644 350 650 c 256
 350 660.015894793 356.967965708 668 367 668 c 256
 385.101119836 668 398.778262489 654.221737511 410 643 c 257
 460 686 l 257
 447.691181027 710.617637946 425.130591527 730 391 730 c 256
 374 730 353 719 329 697 c 256
 305 674 293 655 293 639 c 256
 293 621.164966465 304.923680379 604.911656872 316 597 c 257
 117 597 l 257
 49 522 l 257
 355 522 l 258
 381.395803918 522 403 495.807651298 403 468 c 256
 403 438.773172552 336.447917785 426 299 426 c 256
 273.067204512 426 257.002406783 436.140106534 244 451 c 257
 226 424 l 257
 167 398 120 362 85 316 c 256
 48 269 30 221 30 170 c 256
 30 129 44 90 73 53 c 256
 101 17 132 -1 165 -1 c 256
 211.966482233 -1 252.23328543 32.2332854296 280 60 c 257
 309.237586435 25.280366109 357.822869717 -1 420 -1 c 256
 456 -1 493 16 530 50 c 256
 567 84 585 118 585 151 c 256
 585 178.256699414 575.144576951 200.748495168 560 214 c 257
 484 139 l 257
 504.021408966 139 516 124.322781831 516 104 c 256
 516 77.9811748843 478.296348739 62 450 62 c 256
 394.663582505 62 352.015292063 99.9816495239 322 136 c 257
 293.038760235 101.927953218 251.72684552 74 195 74 c 256
 142.685322333 74 93 144.905791775 93 200 c 256
EndSplineSet
EndChar

StartChar: DDaHalanth
Encoding: 89 -1 89
GlifName: D_D_aH_alanth
Width: 663
VWidth: 0
Flags: HW
LayerCount: 2
Back
Fore
SplineSet
93 200 m 256
 93 272.057916127 142.327829985 326.513466122 195 352 c 257
 242 352 l 257
NamedP: "hr00"
 250 351 258 350 267 350 c 256
 273 350 279 351 285 352 c 257
 377 352 l 258
 392.927111437 352 406 341.96151748 406 326 c 257
 482 389 l 257
 472.34746067 404.168276089 458.607487191 426 439 426 c 258
 354 426 l 257
 358 439 360 454 360 473 c 257
 347.358770988 445.911652118 325.083824972 426 286 426 c 256
 260.470140825 426 232 443.353685838 232 468 c 256
 232 477 239 487 252 500 c 256
 265 513 284 526 308 541 c 257
 269.593092523 547.145105196 226 568.298666163 226 608 c 256
 226 626.078381192 248.412656746 637 267 637 c 256
 290 637 315 631 341 618 c 256
 400 589 468 575 547 575 c 256
 570 575 590 581 608 594 c 257
 710 709 l 257
 671.732426121 675.95073165 634.250460072 662 571 662 c 256
 520 662 462 670 395 687 c 256
 362 696 332 700 305 700 c 256
 272 700 241 687 213 660 c 256
 184 633 170 603 170 571 c 256
 170 543.50635462 195.697860631 520.407665039 218 510 c 257
 199 494 185 479 174 466 c 256
 163 451 158 440 158 431 c 256
 158 417 162 404 171 393 c 257
 101.605606117 350.13875672 30 265.075620711 30 170 c 256
 30 129 44 90 73 53 c 256
 101 17 132 -1 165 -1 c 256
 211.966482233 -1 252.23328543 32.2332854296 280 60 c 257
 309.237586435 25.280366109 357.822869717 -1 420 -1 c 256
 456 -1 493 16 530 50 c 256
 567 84 585 118 585 151 c 256
 585 178.256699414 575.144576951 200.748495168 560 214 c 257
 484 139 l 257
 504.021408966 139 516 124.322781831 516 104 c 256
 516 77.9811748843 478.296348739 62 450 62 c 256
 394.663582505 62 352.015292063 99.9816495239 322 136 c 257
 293.038760235 101.927953218 251.72684552 74 195 74 c 256
 142.685322333 74 93 144.905791775 93 200 c 256
EndSplineSet
EndChar

StartChar: DDaI
Encoding: 90 -1 90
GlifName: D_D_aI_
Width: 608
VWidth: 0
Flags: HW
LayerCount: 2
Back
Fore
SplineSet
482 389 m 257
 472.34746067 404.168276089 458.607487191 426 439 426 c 258
 403 426 l 257
NamedP: "hr00"
 431 461 445 497 445 534 c 256
 445 569 433 601 408 631 c 256
 383 660 357 675 329 675 c 258
 250 675 l 258
 202.564278201 675 151 623.649820526 151 576 c 256
 151 555 163 534 188 512 c 256
 213 490 237 479 261 479 c 256
 310.986892549 479 352.030140976 505.751239659 371 538 c 257
 378.020777599 526.298704001 381 511.969443762 381 491 c 256
 381 473 374 458 361 446 c 257
 350 433 335 426 316 426 c 256
 270.428461959 426 235.807160469 441.688364237 219 469 c 257
 145 419 l 257
 152 408 159 399 168 392 c 257
 136 371 108 346 85 316 c 256
 48 269 30 221 30 170 c 256
 30 129 44 90 73 53 c 256
 101 17 132 -1 165 -1 c 256
 211.966482233 -1 252.23328543 32.2332854296 280 60 c 257
 309.237586435 25.280366109 357.822869717 -1 420 -1 c 256
 456 -1 493 16 530 50 c 256
 567 84 585 118 585 151 c 256
 585 178.256699414 575.144576951 200.748495168 560 214 c 257
 484 139 l 257
 504.021408966 139 516 124.322781831 516 104 c 256
 516 77.9811748843 478.296348739 62 450 62 c 256
 394.663582505 62 352.015292063 99.9816495239 322 136 c 257
 293.038760235 101.927953218 251.72684552 74 195 74 c 256
 142.685322333 74 93 144.905791775 93 200 c 256
 93 272.057916127 142.327829985 326.513466122 195 352 c 257
 377 352 l 258
 392.927111437 352 406 341.96151748 406 326 c 257
 482 389 l 257
334 565 m 256
 334 547.712856558 315.161325328 535 297 535 c 256
 259.380090682 535 208 578.581827691 208 614 c 256
 208 628.262504301 228.94110477 637 244 637 c 256
 276.81516563 637 334 597.235023517 334 565 c 256
EndSplineSet
EndChar

StartChar: DDaII
Encoding: 91 -1 91
GlifName: D_D_aI_I_
Width: 608
VWidth: 0
Flags: HW
LayerCount: 2
Back
Fore
SplineSet
482 389 m 257
 472.34746067 404.168276089 458.607487191 426 439 426 c 258
 405 426 l 257
NamedP: "hr00"
 432 459 445 493 445 529 c 256
 445 563 433 595 408 625 c 256
 383 654 357 669 329 669 c 256
 312.723279864 669 281 693.359404547 281 710 c 256
 281 719.466228249 287.54071066 728 297 728 c 256
 305 728 313 725 320 718 c 257
 329 712 338 703 346 691 c 257
 402 753 l 257
 387.437377199 774.843934201 352.795348943 790 316 790 c 256
 299 790 281 779 260 757 c 256
 240 736 230 716 230 699 c 256
 230 687.28587784 239.21606517 673.670360898 247 669 c 257
 201.468544178 669 151 617.052733748 151 571 c 256
 151 550 162 527 188 505 c 256
 213 483 237 473 261 473 c 256
 310.496566176 473 352.699913526 499.059844347 371 532 c 257
 377.635047377 520.941587706 381 505.055802831 381 486 c 256
 381 469 374 455 361 444 c 257
 350 432 335 426 316 426 c 256
 274.574963518 426 234.299433864 437.9580325 219 462 c 257
 145 413 l 257
 151 404 158 396 165 390 c 257
 134 370 108 345 85 316 c 256
 48 269 30 221 30 170 c 256
 30 129 44 90 73 53 c 256
 101 17 132 -1 165 -1 c 256
 211.966482233 -1 252.23328543 32.2332854296 280 60 c 257
 309.237586435 25.280366109 357.822869717 -1 420 -1 c 256
 456 -1 493 16 530 50 c 256
 567 84 585 118 585 151 c 256
 585 178.256699414 575.144576951 200.748495168 560 214 c 257
 484 139 l 257
 504.021408966 139 516 124.322781831 516 104 c 256
 516 77.9811748843 478.296348739 62 450 62 c 256
 394.663582505 62 352.015292063 99.9816495239 322 136 c 257
 293.038760235 101.927953218 251.72684552 74 195 74 c 256
 142.685322333 74 93 144.905791775 93 200 c 256
 93 272.057916127 142.327829985 326.513466122 195 352 c 257
 377 352 l 258
 392.927111437 352 406 341.96151748 406 326 c 257
 482 389 l 257
334 559 m 256
 334 541.708825566 314.556247056 530 297 530 c 256
 259.970002421 530 208 572.040231787 208 608 c 256
 208 622.656871108 228.424222616 630 244 630 c 256
 263 630 282 622 303 605 c 256
 324 589 334 574 334 559 c 256
EndSplineSet
EndChar

StartChar: DDaO
Encoding: 92 -1 92
GlifName: D_D_aO_
Width: 869
VWidth: 0
Flags: HW
LayerCount: 2
Back
Fore
SplineSet
482 389 m 257
 472.34746067 404.168276089 458.607487191 426 439 426 c 258
 300 426 l 257
 300 427 l 257
NamedP: "hr00"
 269 427 l 258
 232.246917346 427 196 454.693946236 196 492 c 256
 196 516.784934454 219.864283413 534 244 534 c 258
 315 534 l 258
 360.18971465 534 392.361052427 513.565741924 412 485 c 257
 428 501 443 513 456 521 c 256
 469 530 480 534 491 534 c 258
 705 534 l 257
 681.342855949 513.126049367 651 479.790113095 651 445 c 256
 651 422 663 400 689 381 c 256
 715 361 744 353 774 353 c 256
 801 353 828 370 856 404 c 256
 883 438 896 472 896 505 c 256
 896 533 886 559 862 580 c 256
 839 601 811 610 780 610 c 258
 546 610 l 258
 533 610 519 606 502 597 c 256
 485 589 467 577 449 561 c 257
 426.078507524 589.211067662 387.345916131 610 340 610 c 258
 274 610 l 258
 245 610 215 594 185 562 c 256
 155 531 140 500 140 469 c 256
 140 439 149 413 167 391 c 257
 135 370 108 345 85 316 c 256
 48 269 30 221 30 170 c 256
 30 129 44 90 73 53 c 256
 101 17 132 -1 165 -1 c 256
 211.966482233 -1 252.23328543 32.2332854296 280 60 c 257
 309.237586435 25.280366109 357.822869717 -1 420 -1 c 256
 456 -1 493 16 530 50 c 256
 567 84 585 118 585 151 c 256
 585 178.256699414 575.144576951 200.748495168 560 214 c 257
 484 139 l 257
 504.021408966 139 516 124.322781831 516 104 c 256
 516 77.9811748843 478.296348739 62 450 62 c 256
 394.663582505 62 352.015292063 99.9816495239 322 136 c 257
 293.038760235 101.927953218 251.72684552 74 195 74 c 256
 142.685322333 74 93 144.905791775 93 200 c 256
 93 272.057916127 142.327829985 326.513466122 195 352 c 257
 377 352 l 258
 392.927111437 352 406 341.96151748 406 326 c 257
 482 389 l 257
761 534 m 256
 799.720332709 534 839 506.688100168 839 469 c 256
 839 457 835 447 826 440 c 257
 819 431 809 427 797 427 c 256
 758.537428898 427 720 453.749666899 720 492 c 256
 720 515.344637655 739.207000215 534 761 534 c 256
EndSplineSet
EndChar

StartChar: DDaOO
Encoding: 93 -1 93
GlifName: D_D_aO_O_
Width: 889
VWidth: 0
Flags: HW
LayerCount: 2
Back
Fore
SplineSet
482 389 m 257
 472.34746067 404.168276089 458.607487191 426 439 426 c 258
 300 426 l 257
 300 427 l 257
NamedP: "hr00"
 274 427 l 258
 237.091788355 427 202 455.180683839 202 492 c 256
 202 516.784934454 225.864283413 534 250 534 c 258
 321 534 l 258
 365.891417822 534 399.443161648 513.44631033 419 485 c 257
 434 501 449 513 462 521 c 256
 475 530 486 534 497 534 c 258
 705 534 l 257
 681.72819183 513.466051615 653 484.179654306 653 451 c 256
 653 427 665 405 690 384 c 256
 717 363 745 353 775 353 c 256
 802 353 829 370 857 404 c 256
 884 438 897 472 897 505 c 256
 897 545.865138556 870.173070759 578.770365979 842 597 c 258
 793 627 l 258
 776 637 764 648 755 660 c 257
 745 671 740 682 740 694 c 256
 740 718.314797033 761.989657059 735 787 735 c 256
 795 735 803 731 810 724 c 256
 819 717 827 706 835 693 c 257
 916 742 l 257
 900.548697702 769.468981862 873.575607944 791 835 791 c 256
 800 791 764 778 729 751 c 256
 694 723 676 696 676 669 c 256
 676 644.084392685 699.372452674 623.220660495 717 610 c 257
 552 610 l 258
 540 610 526 606 509 597 c 256
 492 589 474 577 455 561 c 257
 431.979064075 589.3334596 393.852623672 610 346 610 c 258
 280 610 l 258
 251 610 221 594 190 562 c 256
 160 531 145 500 145 469 c 256
 145 440 153 414 170 393 c 257
 101.793767781 349.596034043 30 264.842824093 30 170 c 256
 30 129 44 90 73 53 c 256
 101 17 132 -1 165 -1 c 256
 211.966482233 -1 252.23328543 32.2332854296 280 60 c 257
 309.237586435 25.280366109 357.822869717 -1 420 -1 c 256
 456 -1 493 16 530 50 c 256
 567 84 585 118 585 151 c 256
 585 178.256699414 575.144576951 200.748495168 560 214 c 257
 484 139 l 257
 504.021408966 139 516 124.322781831 516 104 c 256
 516 77.9811748843 478.296348739 62 450 62 c 256
 394.663582505 62 352.015292063 99.9816495239 322 136 c 257
 293.038760235 101.927953218 251.72684552 74 195 74 c 256
 142.685322333 74 93 144.905791775 93 200 c 256
 93 272.057916127 142.327829985 326.513466122 195 352 c 257
 377 352 l 258
 392.927111437 352 406 341.96151748 406 326 c 257
 482 389 l 257
840 469 m 256
 840 445.655362345 820.792999785 427 799 427 c 256
 759.566959698 427 721 453.284076013 721 492 c 256
 721 515.344637655 740.207000215 534 762 534 c 256
 801.433040302 534 840 507.715923987 840 469 c 256
EndSplineSet
EndChar

StartChar: DDaOttu
Encoding: 94 -1 94
GlifName: D_D_aO_ttu
Width: 31
VWidth: 0
Flags: HW
LayerCount: 2
Back
Fore
SplineSet
269 -316 m 257
 289.036965039 -334.367217952 322.811180367 -350 358 -350 c 256
NamedP: "hr00"
 384 -350 410 -339 437 -314 c 256
 462 -290 475 -267 475 -244 c 256
 475 -227.733484519 467.878664157 -211.146444026 455 -209 c 257
 410 -264 l 257
 420.974060798 -264 430 -272.073165401 430 -282 c 256
 430 -297.509922198 410.219256178 -305 392 -305 c 256
 346.605939462 -305 319.244512973 -280.088978503 297 -251 c 257
 284 -267 270 -279 257 -288 c 256
 244 -297 233 -301 222 -301 c 256
 182.207925901 -301 156 -253.457758704 156 -210 c 256
 156 -166.193456994 174.15451575 -125.993722288 202 -111 c 257
 307 -111 l 258
 328.622048201 -111 349 -123.679620278 349 -143 c 257
 393 -87 l 257
 389.079767325 -71.3190692997 373.08153926 -62 355 -62 c 258
 235 -62 l 257
 167.821238421 -93.0055822674 106 -158.545299649 106 -249 c 256
 106 -272 114 -294 134 -315 c 256
 153 -335 175 -345 197 -345 c 256
 226.396287185 -345 249.957415275 -330.281938543 269 -316 c 257
EndSplineSet
EndChar

StartChar: DDaU
Encoding: 95 -1 95
GlifName: D_D_aU_
Width: 929
VWidth: 0
Flags: HW
LayerCount: 2
Back
Fore
SplineSet
843 176 m 256
 843 111.545352548 782.455359951 62 717 62 c 256
 660.061399933 62 609.594901335 92.0058830754 581 125 c 257
NamedP: "hr00"
 584 134 585 142 585 151 c 256
 585 178.256699414 575.144576951 200.748495168 560 214 c 257
 484 139 l 257
 504.021408966 139 516 124.322781831 516 104 c 256
 516 77.9811748843 478.296348739 62 450 62 c 256
 394.663582505 62 352.015292063 99.9816495239 322 136 c 257
 293.038760235 101.927953218 251.72684552 74 195 74 c 256
 142.685322333 74 93 144.905791775 93 200 c 256
 93 272.057916127 142.327829985 326.513466122 195 352 c 257
 377 352 l 258
 392.927111437 352 406 341.96151748 406 326 c 257
 482 389 l 257
 472.34746067 404.168276089 458.607487191 426 439 426 c 258
 293 426 l 257
 498 553 l 257
 498 647 l 257
 205 470 l 257
 205 414 l 257
 120.946615908 371.115620361 30 281.540530287 30 170 c 256
 30 129 44 90 73 53 c 256
 101 17 132 -1 165 -1 c 256
 211.966482233 -1 252.23328543 32.2332854296 280 60 c 257
 309.237586435 25.280366109 357.822869717 -1 420 -1 c 256
 456 -1 493 16 530 50 c 256
 535 55 540 59 544 64 c 257
 568.724305177 29.3859727524 616.17884813 -1 668 -1 c 256
 727 -1 782 23 831 72 c 256
 881 121 906 174 906 231 c 256
 906 284 888 332 848 370 c 256
 809 408 760 426 704 426 c 257
 661 352 l 257
 712 352 756 335 791 300 c 256
 826 266 843 225 843 176 c 256
EndSplineSet
EndChar

StartChar: DDaUU
Encoding: 96 -1 96
GlifName: D_D_aU_U_
Width: 1264
VWidth: 0
Flags: HW
LayerCount: 2
Back
Fore
SplineSet
832 170 m 256
 832 111.959798279 786.570902799 62 729 62 c 256
 692 62 658 70 625 86 c 256
 608 95 593 105 578 117 c 257
NamedP: "hr00"
 583 128 585 140 585 151 c 256
 585 178.256699414 575.144576951 200.748495168 560 214 c 257
 484 139 l 257
 504.021408966 139 516 124.322781831 516 104 c 256
 516 77.9811748843 478.296348739 62 450 62 c 256
 394.663582505 62 352.015292063 99.9816495239 322 136 c 257
 293.038760235 101.927953218 251.72684552 74 195 74 c 256
 142.685322333 74 93 144.905791775 93 200 c 256
 93 272.057916127 142.327829985 326.513466122 195 352 c 257
 377 352 l 258
 392.927111437 352 406 341.96151748 406 326 c 257
 482 389 l 257
 472.34746067 404.168276089 458.607487191 426 439 426 c 258
 293 426 l 257
 498 553 l 257
 498 647 l 257
 205 470 l 257
 205 414 l 257
 120.946615908 371.115620361 30 281.540530287 30 170 c 256
 30 129 44 90 73 53 c 256
 101 17 132 -1 165 -1 c 256
 211.966482233 -1 252.23328543 32.2332854296 280 60 c 257
 309.237586435 25.280366109 357.822869717 -1 420 -1 c 256
 460.857234637 -1 505.027860126 25.0278601262 541 61 c 257
 552 48 564 37 579 27 c 256
 609 8 641 -1 675 -1 c 256
 731 -1 783 22 830 68 c 256
 877 115 901 165 901 219 c 256
 901 274.084489115 867.1726366 321.359393714 835 352 c 257
 1025 352 l 257
 982.460303731 323.073006537 942 272.030750491 942 206 c 256
 942 146.237046441 1008.23975942 108 1070 108 c 256
 1110 108 1149 129 1186 172 c 256
 1223 214 1241 258 1241 304 c 256
 1241 337 1228 367 1199 391 c 256
 1170 415 1134 426 1094 426 c 258
 687 426 l 257
 637 352 l 257
 675 352 l 258
 718 352 755 334 786 298 c 256
 817 263 832 220 832 170 c 256
1184 255 m 256
 1184 213.717593093 1147.90148142 184 1107 184 c 256
 1057.72730569 184 1010 219.948821064 1010 268 c 256
 1010 308.189565986 1037.34397246 352 1075 352 c 256
 1103 352 1128 341 1149 320 c 257
 1172 301 1184 279 1184 255 c 256
EndSplineSet
EndChar

StartChar: DDha
Encoding: 97 3106 97
GlifName: D_D_ha
Width: 608
VWidth: 0
Flags: HW
LayerCount: 2
Back
Fore
SplineSet
482 389 m 257
 472.34746067 404.168276089 458.607487191 426 439 426 c 258
 293 426 l 257
 498 553 l 257
NamedP: "hr00"
 498 647 l 257
 205 470 l 257
 205 414 l 257
 120.946615908 371.115620361 30 281.540530287 30 170 c 256
 30 129 44 90 73 53 c 256
 101 17 132 -1 165 -1 c 256
 211.966482233 -1 252.23328543 32.2332854296 280 60 c 257
 309.237586435 25.280366109 357.822869717 -1 420 -1 c 256
 456 -1 493 16 530 50 c 256
 567 84 585 118 585 151 c 256
 585 178.256699414 575.144576951 200.748495168 560 214 c 257
 484 139 l 257
 504.021408966 139 516 124.322781831 516 104 c 256
 516 77.9811748843 478.296348739 62 450 62 c 256
 394.663582505 62 352.015292063 99.9816495239 322 136 c 257
 293.038760235 101.927953218 251.72684552 74 195 74 c 256
 142.685322333 74 93 144.905791775 93 200 c 256
 93 272.057916127 142.327829985 326.513466122 195 352 c 257
 377 352 l 258
 392.927111437 352 406 341.96151748 406 326 c 257
 482 389 l 257
236 -221 m 257
 312 -171 l 257
 312 21 l 257
 236 -29 l 257
 236 -93 236 -157 236 -221 c 257
EndSplineSet
EndChar

StartChar: DDhaAA
Encoding: 98 -1 98
GlifName: D_D_haA_A_
Width: 971
VWidth: 0
Flags: HW
LayerCount: 2
Back
Fore
SplineSet
236 -221 m 257
NamedP: "hr00"
 312 -171 l 257
 312 21 l 257
 236 -29 l 257
 236 -93 236 -157 236 -221 c 257
NamedP: "hr00"
93 200 m 256
 93 272.057916127 142.327829985 326.513466122 195 352 c 257
 377 352 l 258
 392.927111437 352 406 341.96151748 406 326 c 257
 437 352 l 257
 737 352 l 257
 693.760342216 327.785791641 655 270.34111705 655 206 c 256
 655 147.022649146 717.21461894 108 777 108 c 256
 817 108 856 128 893 167 c 256
 931 208 948 249 948 291 c 256
 948 328 936 361 910 387 c 256
 884 414 852 426 815 426 c 258
 73 426 l 257
 49 352 l 257
 118 352 l 257
 107 341 96 329 85 316 c 256
 48 269 30 221 30 170 c 256
 30 129 44 90 73 53 c 256
 101 17 132 -1 165 -1 c 256
 211.966482233 -1 252.23328543 32.2332854296 280 60 c 257
 309.237586435 25.280366109 357.822869717 -1 420 -1 c 256
 456 -1 493 16 530 50 c 256
 567 84 585 118 585 151 c 256
 585 178.256699414 575.144576951 200.748495168 560 214 c 257
 484 139 l 257
 504.021408966 139 516 124.322781831 516 104 c 256
 516 77.9811748843 478.296348739 62 450 62 c 256
 394.663582505 62 352.015292063 99.9816495239 322 136 c 257
 293.038760235 101.927953218 251.72684552 74 195 74 c 256
 142.685322333 74 93 144.905791775 93 200 c 256
899 268 m 256
 899 217.820965285 858.120174683 177 809 177 c 256
 760.992788295 177 712 209.4087282 712 255 c 256
 712 291.682593776 760.669043115 352 796 352 c 256
 847.830058252 352 899 317.905448805 899 268 c 256
EndSplineSet
EndChar

StartChar: DDhaAU
Encoding: 99 -1 99
GlifName: D_D_haA_U_
Width: 891
VWidth: 0
Flags: HW
LayerCount: 2
Back
Fore
SplineSet
236 -221 m 257
NamedP: "hr00"
 312 -171 l 257
 312 21 l 257
 236 -29 l 257
 236 -93 236 -157 236 -221 c 257
NamedP: "hr00"
482 389 m 257
 472.34746067 404.168276089 458.607487191 426 439 426 c 258
 393 426 l 257
 420 458 433 486 433 511 c 256
 433 529.539766938 428.748844911 547.751925148 422 559 c 257
 702 559 l 257
 675.951028146 542.254232379 655 503.907950919 655 462 c 256
 655 432 668 404 695 378 c 256
 722 353 752 340 784 340 c 256
 813 340 843 357 873 391 c 256
 904 426 918 461 918 494 c 256
 918 567.619905994 861.826243014 635 790 635 c 258
 189 635 l 257
 127 559 l 257
 269 559 l 258
 314.901931222 559 358 525.221636905 358 481 c 256
 358 453.570790145 337.855739137 427 311 427 c 256
 272.749774192 427 242.483745639 451.569097253 225 477 c 257
 164 407 l 257
 167 402 170 398 173 395 c 257
 103.050724867 353.03043492 30 265.318916454 30 170 c 256
 30 129 44 90 73 53 c 256
 101 17 132 -1 165 -1 c 256
 211.966482233 -1 252.23328543 32.2332854296 280 60 c 257
 309.237586435 25.280366109 357.822869717 -1 420 -1 c 256
 456 -1 493 16 530 50 c 256
 567 84 585 118 585 151 c 256
 585 178.256699414 575.144576951 200.748495168 560 214 c 257
 484 139 l 257
 504.021408966 139 516 124.322781831 516 104 c 256
 516 77.9811748843 478.296348739 62 450 62 c 256
 394.663582505 62 352.015292063 99.9816495239 322 136 c 257
 293.038760235 101.927953218 251.72684552 74 195 74 c 256
 142.685322333 74 93 144.905791775 93 200 c 256
 93 272.057916127 142.327829985 326.513466122 195 352 c 257
 377 352 l 258
 392.927111437 352 406 341.96151748 406 326 c 257
 482 389 l 257
855 456 m 256
 855 429.604196082 833.400106999 408 807 408 c 256
 764.637328245 408 717 460.111402195 717 505 c 256
 717 535.280264363 735.681927266 565 765 565 c 256
 811.071512658 565 855 504.220284389 855 456 c 256
EndSplineSet
EndChar

StartChar: DDhaE
Encoding: 100 -1 100
GlifName: D_D_haE_
Width: 608
VWidth: 0
Flags: HW
LayerCount: 2
Back
Fore
SplineSet
236 -221 m 257
NamedP: "hr00"
 312 -171 l 257
 312 21 l 257
 236 -29 l 257
 236 -93 236 -157 236 -221 c 257
NamedP: "hr00"
93 200 m 256
 93 272.057916127 142.327829985 326.513466122 195 352 c 257
 377 352 l 258
 392.927111437 352 406 341.96151748 406 326 c 257
 482 389 l 257
 472.34746067 404.168276089 458.607487191 426 439 426 c 258
 411 426 l 257
 451 466 471 502 471 535 c 256
 471 568.932767607 445.084433678 597 410 597 c 258
 117 597 l 257
 49 522 l 257
 355 522 l 258
 379.143448544 522 403 504.782069963 403 480 c 256
 403 443.097643431 339.608483649 426 297 426 c 256
 271.544994534 426 256.655541813 436.536523643 244 451 c 257
 226 424 l 257
 167 398 120 362 85 316 c 256
 48 269 30 221 30 170 c 256
 30 129 44 90 73 53 c 256
 101 17 132 -1 165 -1 c 256
 211.966482233 -1 252.23328543 32.2332854296 280 60 c 257
 309.237586435 25.280366109 357.822869717 -1 420 -1 c 256
 456 -1 493 16 530 50 c 256
 567 84 585 118 585 151 c 256
 585 178.256699414 575.144576951 200.748495168 560 214 c 257
 484 139 l 257
 504.021408966 139 516 124.322781831 516 104 c 256
 516 77.9811748843 478.296348739 62 450 62 c 256
 394.663582505 62 352.015292063 99.9816495239 322 136 c 257
 293.038760235 101.927953218 251.72684552 74 195 74 c 256
 142.685322333 74 93 144.905791775 93 200 c 256
EndSplineSet
EndChar

StartChar: DDhaEE
Encoding: 101 -1 101
GlifName: D_D_haE_E_
Width: 608
VWidth: 0
Flags: HW
LayerCount: 2
Back
Fore
SplineSet
236 -221 m 257
NamedP: "hr00"
 312 -171 l 257
 312 21 l 257
 236 -29 l 257
 236 -93 236 -157 236 -221 c 257
NamedP: "hr00"
93 200 m 256
 93 272.057916127 142.327829985 326.513466122 195 352 c 257
 377 352 l 258
 392.927111437 352 406 341.96151748 406 326 c 257
 482 389 l 257
 472.34746067 404.168276089 458.607487191 426 439 426 c 258
 411 426 l 257
 451 466 471 502 471 535 c 256
 471 568.932767607 445.084433678 597 410 597 c 258
 391 597 l 257
 378 609 368 620 361 629 c 256
 354 637 350 644 350 650 c 256
 350 660.015894793 356.967965708 668 367 668 c 256
 385.101119836 668 398.778262489 654.221737511 410 643 c 257
 460 686 l 257
 447.691181027 710.617637946 425.130591527 730 391 730 c 256
 374 730 353 719 329 697 c 256
 305 674 293 655 293 639 c 256
 293 621.164966465 304.923680379 604.911656872 316 597 c 257
 117 597 l 257
 49 522 l 257
 355 522 l 258
 381.395803918 522 403 495.807651298 403 468 c 256
 403 438.773172552 336.447917785 426 299 426 c 256
 273.067204512 426 257.002406783 436.140106534 244 451 c 257
 226 424 l 257
 167 398 120 362 85 316 c 256
 48 269 30 221 30 170 c 256
 30 129 44 90 73 53 c 256
 101 17 132 -1 165 -1 c 256
 211.966482233 -1 252.23328543 32.2332854296 280 60 c 257
 309.237586435 25.280366109 357.822869717 -1 420 -1 c 256
 456 -1 493 16 530 50 c 256
 567 84 585 118 585 151 c 256
 585 178.256699414 575.144576951 200.748495168 560 214 c 257
 484 139 l 257
 504.021408966 139 516 124.322781831 516 104 c 256
 516 77.9811748843 478.296348739 62 450 62 c 256
 394.663582505 62 352.015292063 99.9816495239 322 136 c 257
 293.038760235 101.927953218 251.72684552 74 195 74 c 256
 142.685322333 74 93 144.905791775 93 200 c 256
EndSplineSet
EndChar

StartChar: DDhaHalanth
Encoding: 102 -1 102
GlifName: D_D_haH_alanth
Width: 663
VWidth: 0
Flags: HW
LayerCount: 2
Back
Fore
SplineSet
93 200 m 256
 93 272.057916127 142.327829985 326.513466122 195 352 c 257
 242 352 l 257
NamedP: "hr00"
 250 351 258 350 267 350 c 256
 273 350 279 351 285 352 c 257
 377 352 l 258
 392.927111437 352 406 341.96151748 406 326 c 257
 482 389 l 257
 472.34746067 404.168276089 458.607487191 426 439 426 c 258
 354 426 l 257
 358 439 360 454 360 473 c 257
 347.358770988 445.911652118 325.083824972 426 286 426 c 256
 260.470140825 426 232 443.353685838 232 468 c 256
 232 477 239 487 252 500 c 256
 265 513 284 526 308 541 c 257
 269.593092523 547.145105196 226 568.298666163 226 608 c 256
 226 626.078381192 248.412656746 637 267 637 c 256
 290 637 315 631 341 618 c 256
 400 589 468 575 547 575 c 256
 570 575 590 581 608 594 c 257
 710 709 l 257
 671.732426121 675.95073165 634.250460072 662 571 662 c 256
 520 662 462 670 395 687 c 256
 362 696 332 700 305 700 c 256
 272 700 241 687 213 660 c 256
 184 633 170 603 170 571 c 256
 170 543.50635462 195.697860631 520.407665039 218 510 c 257
 199 494 185 479 174 466 c 256
 163 451 158 440 158 431 c 256
 158 417 162 404 171 393 c 257
 101.605606117 350.13875672 30 265.075620711 30 170 c 256
 30 129 44 90 73 53 c 256
 101 17 132 -1 165 -1 c 256
 211.966482233 -1 252.23328543 32.2332854296 280 60 c 257
 309.237586435 25.280366109 357.822869717 -1 420 -1 c 256
 456 -1 493 16 530 50 c 256
 567 84 585 118 585 151 c 256
 585 178.256699414 575.144576951 200.748495168 560 214 c 257
 484 139 l 257
 504.021408966 139 516 124.322781831 516 104 c 256
 516 77.9811748843 478.296348739 62 450 62 c 256
 394.663582505 62 352.015292063 99.9816495239 322 136 c 257
 293.038760235 101.927953218 251.72684552 74 195 74 c 256
 142.685322333 74 93 144.905791775 93 200 c 256
236 -221 m 257
 312 -171 l 257
 312 21 l 257
 236 -29 l 257
 236 -221 l 257
EndSplineSet
EndChar

StartChar: DDhaI
Encoding: 103 -1 103
GlifName: D_D_haI_
Width: 608
VWidth: 0
Flags: HW
LayerCount: 2
Back
Fore
SplineSet
236 -221 m 257
NamedP: "hr00"
 312 -171 l 257
 312 21 l 257
 236 -29 l 257
 236 -93 236 -157 236 -221 c 257
NamedP: "hr00"
482 389 m 257
 472.34746067 404.168276089 458.607487191 426 439 426 c 258
 403 426 l 257
 431 461 445 497 445 534 c 256
 445 569 433 601 408 631 c 256
 383 660 357 675 329 675 c 258
 250 675 l 258
 202.564278201 675 151 623.649820526 151 576 c 256
 151 555 163 534 188 512 c 256
 213 490 237 479 261 479 c 256
 310.986892549 479 352.030140976 505.751239659 371 538 c 257
 378.020777599 526.298704001 381 511.969443762 381 491 c 256
 381 473 374 458 361 446 c 257
 350 433 335 426 316 426 c 256
 270.428461959 426 235.807160469 441.688364237 219 469 c 257
 145 419 l 257
 152 408 159 399 168 392 c 257
 136 371 108 346 85 316 c 256
 48 269 30 221 30 170 c 256
 30 129 44 90 73 53 c 256
 101 17 132 -1 165 -1 c 256
 211.966482233 -1 252.23328543 32.2332854296 280 60 c 257
 309.237586435 25.280366109 357.822869717 -1 420 -1 c 256
 456 -1 493 16 530 50 c 256
 567 84 585 118 585 151 c 256
 585 178.256699414 575.144576951 200.748495168 560 214 c 257
 484 139 l 257
 504.021408966 139 516 124.322781831 516 104 c 256
 516 77.9811748843 478.296348739 62 450 62 c 256
 394.663582505 62 352.015292063 99.9816495239 322 136 c 257
 293.038760235 101.927953218 251.72684552 74 195 74 c 256
 142.685322333 74 93 144.905791775 93 200 c 256
 93 272.057916127 142.327829985 326.513466122 195 352 c 257
 377 352 l 258
 392.927111437 352 406 341.96151748 406 326 c 257
 482 389 l 257
334 565 m 256
 334 547.712856558 315.161325328 535 297 535 c 256
 259.380090682 535 208 578.581827691 208 614 c 256
 208 628.262504301 228.94110477 637 244 637 c 256
 276.81516563 637 334 597.235023517 334 565 c 256
EndSplineSet
EndChar

StartChar: DDhaII
Encoding: 104 -1 104
GlifName: D_D_haI_I_
Width: 608
VWidth: 0
Flags: HW
LayerCount: 2
Back
Fore
SplineSet
236 -221 m 257
NamedP: "hr00"
 312 -171 l 257
 312 21 l 257
 236 -29 l 257
 236 -93 236 -157 236 -221 c 257
NamedP: "hr00"
482 389 m 257
 472.34746067 404.168276089 458.607487191 426 439 426 c 258
 405 426 l 257
 432 459 445 493 445 529 c 256
 445 563 433 595 408 625 c 256
 383 654 357 669 329 669 c 256
 312.723279864 669 281 693.359404547 281 710 c 256
 281 719.466228249 287.54071066 728 297 728 c 256
 305 728 313 725 320 718 c 257
 329 712 338 703 346 691 c 257
 402 753 l 257
 387.437377199 774.843934201 352.795348943 790 316 790 c 256
 299 790 281 779 260 757 c 256
 240 736 230 716 230 699 c 256
 230 687.28587784 239.21606517 673.670360898 247 669 c 257
 201.468544178 669 151 617.052733748 151 571 c 256
 151 550 162 527 188 505 c 256
 213 483 237 473 261 473 c 256
 310.496566176 473 352.699913526 499.059844347 371 532 c 257
 377.635047377 520.941587706 381 505.055802831 381 486 c 256
 381 469 374 455 361 444 c 257
 350 432 335 426 316 426 c 256
 274.574963518 426 234.299433864 437.9580325 219 462 c 257
 145 413 l 257
 151 404 158 396 165 390 c 257
 134 370 108 345 85 316 c 256
 48 269 30 221 30 170 c 256
 30 129 44 90 73 53 c 256
 101 17 132 -1 165 -1 c 256
 211.966482233 -1 252.23328543 32.2332854296 280 60 c 257
 309.237586435 25.280366109 357.822869717 -1 420 -1 c 256
 456 -1 493 16 530 50 c 256
 567 84 585 118 585 151 c 256
 585 178.256699414 575.144576951 200.748495168 560 214 c 257
 484 139 l 257
 504.021408966 139 516 124.322781831 516 104 c 256
 516 77.9811748843 478.296348739 62 450 62 c 256
 394.663582505 62 352.015292063 99.9816495239 322 136 c 257
 293.038760235 101.927953218 251.72684552 74 195 74 c 256
 142.685322333 74 93 144.905791775 93 200 c 256
 93 272.057916127 142.327829985 326.513466122 195 352 c 257
 377 352 l 258
 392.927111437 352 406 341.96151748 406 326 c 257
 482 389 l 257
334 559 m 256
 334 541.708825566 314.556247056 530 297 530 c 256
 259.970002421 530 208 572.040231787 208 608 c 256
 208 622.656871108 228.424222616 630 244 630 c 256
 263 630 282 622 303 605 c 256
 324 589 334 574 334 559 c 256
EndSplineSet
EndChar

StartChar: DDhaO
Encoding: 105 -1 105
GlifName: D_D_haO_
Width: 869
VWidth: 0
Flags: HW
LayerCount: 2
Back
Fore
SplineSet
236 -221 m 257
NamedP: "hr00"
 312 -171 l 257
 312 21 l 257
 236 -29 l 257
 236 -93 236 -157 236 -221 c 257
NamedP: "hr00"
482 389 m 257
 472.34746067 404.168276089 458.607487191 426 439 426 c 258
 300 426 l 257
 300 427 l 257
 269 427 l 258
 232.246917346 427 196 454.693946236 196 492 c 256
 196 516.784934454 219.864283413 534 244 534 c 258
 315 534 l 258
 360.18971465 534 392.361052427 513.565741924 412 485 c 257
 428 501 443 513 456 521 c 256
 469 530 480 534 491 534 c 258
 705 534 l 257
 681.342855949 513.126049367 651 479.790113095 651 445 c 256
 651 422 663 400 689 381 c 256
 715 361 744 353 774 353 c 256
 801 353 828 370 856 404 c 256
 883 438 896 472 896 505 c 256
 896 533 886 559 862 580 c 256
 839 601 811 610 780 610 c 258
 546 610 l 258
 533 610 519 606 502 597 c 256
 485 589 467 577 449 561 c 257
 426.078507524 589.211067662 387.345916131 610 340 610 c 258
 274 610 l 258
 245 610 215 594 185 562 c 256
 155 531 140 500 140 469 c 256
 140 439 149 413 167 391 c 257
 135 370 108 345 85 316 c 256
 48 269 30 221 30 170 c 256
 30 129 44 90 73 53 c 256
 101 17 132 -1 165 -1 c 256
 211.966482233 -1 252.23328543 32.2332854296 280 60 c 257
 309.237586435 25.280366109 357.822869717 -1 420 -1 c 256
 456 -1 493 16 530 50 c 256
 567 84 585 118 585 151 c 256
 585 178.256699414 575.144576951 200.748495168 560 214 c 257
 484 139 l 257
 504.021408966 139 516 124.322781831 516 104 c 256
 516 77.9811748843 478.296348739 62 450 62 c 256
 394.663582505 62 352.015292063 99.9816495239 322 136 c 257
 293.038760235 101.927953218 251.72684552 74 195 74 c 256
 142.685322333 74 93 144.905791775 93 200 c 256
 93 272.057916127 142.327829985 326.513466122 195 352 c 257
 377 352 l 258
 392.927111437 352 406 341.96151748 406 326 c 257
 482 389 l 257
761 534 m 256
 799.720332709 534 839 506.688100168 839 469 c 256
 839 457 835 447 826 440 c 257
 819 431 809 427 797 427 c 256
 758.537428898 427 720 453.749666899 720 492 c 256
 720 515.344637655 739.207000215 534 761 534 c 256
EndSplineSet
EndChar

StartChar: DDhaOO
Encoding: 106 -1 106
GlifName: D_D_haO_O_
Width: 889
VWidth: 0
Flags: HW
LayerCount: 2
Back
Fore
SplineSet
236 -221 m 257
NamedP: "hr00"
 312 -171 l 257
 312 21 l 257
 236 -29 l 257
 236 -93 236 -157 236 -221 c 257
NamedP: "hr00"
482 389 m 257
 472.34746067 404.168276089 458.607487191 426 439 426 c 258
 300 426 l 257
 300 427 l 257
 274 427 l 258
 237.091788355 427 202 455.180683839 202 492 c 256
 202 516.784934454 225.864283413 534 250 534 c 258
 321 534 l 258
 365.891417822 534 399.443161648 513.44631033 419 485 c 257
 434 501 449 513 462 521 c 256
 475 530 486 534 497 534 c 258
 705 534 l 257
 681.72819183 513.466051615 653 484.179654306 653 451 c 256
 653 427 665 405 690 384 c 256
 717 363 745 353 775 353 c 256
 802 353 829 370 857 404 c 256
 884 438 897 472 897 505 c 256
 897 545.865138556 870.173070759 578.770365979 842 597 c 258
 793 627 l 258
 776 637 764 648 755 660 c 257
 745 671 740 682 740 694 c 256
 740 718.314797033 761.989657059 735 787 735 c 256
 795 735 803 731 810 724 c 256
 819 717 827 706 835 693 c 257
 916 742 l 257
 900.548697702 769.468981862 873.575607944 791 835 791 c 256
 800 791 764 778 729 751 c 256
 694 723 676 696 676 669 c 256
 676 644.084392685 699.372452674 623.220660495 717 610 c 257
 552 610 l 258
 540 610 526 606 509 597 c 256
 492 589 474 577 455 561 c 257
 431.979064075 589.3334596 393.852623672 610 346 610 c 258
 280 610 l 258
 251 610 221 594 190 562 c 256
 160 531 145 500 145 469 c 256
 145 440 153 414 170 393 c 257
 101.793767781 349.596034043 30 264.842824093 30 170 c 256
 30 129 44 90 73 53 c 256
 101 17 132 -1 165 -1 c 256
 211.966482233 -1 252.23328543 32.2332854296 280 60 c 257
 309.237586435 25.280366109 357.822869717 -1 420 -1 c 256
 456 -1 493 16 530 50 c 256
 567 84 585 118 585 151 c 256
 585 178.256699414 575.144576951 200.748495168 560 214 c 257
 484 139 l 257
 504.021408966 139 516 124.322781831 516 104 c 256
 516 77.9811748843 478.296348739 62 450 62 c 256
 394.663582505 62 352.015292063 99.9816495239 322 136 c 257
 293.038760235 101.927953218 251.72684552 74 195 74 c 256
 142.685322333 74 93 144.905791775 93 200 c 256
 93 272.057916127 142.327829985 326.513466122 195 352 c 257
 377 352 l 258
 392.927111437 352 406 341.96151748 406 326 c 257
 482 389 l 257
840 469 m 256
 840 445.655362345 820.792999785 427 799 427 c 256
 759.566959698 427 721 453.284076013 721 492 c 256
 721 515.344637655 740.207000215 534 762 534 c 256
 801.433040302 534 840 507.715923987 840 469 c 256
EndSplineSet
EndChar

StartChar: DDhaOttu
Encoding: 107 -1 107
GlifName: D_D_haO_ttu
Width: 30
VWidth: 0
Flags: HW
LayerCount: 2
Back
Fore
SplineSet
240 -427 m 257
NamedP: "hr00"
 299 -408 l 257
 299 -339 l 257
 240 -357 l 257
 240 -380.333333333 240 -403.666666667 240 -427 c 257
NamedP: "hr00"
269 -316 m 257
 289.036965039 -334.367217952 322.811180367 -350 358 -350 c 256
 384 -350 410 -339 437 -314 c 256
 462 -290 475 -267 475 -244 c 256
 475 -227.733484519 467.878664157 -211.146444026 455 -209 c 257
 410 -264 l 257
 420.974060798 -264 430 -272.073165401 430 -282 c 256
 430 -297.509922198 410.219256178 -305 392 -305 c 256
 346.605939462 -305 319.244512973 -280.088978503 297 -251 c 257
 284 -267 270 -279 257 -288 c 256
 244 -297 233 -301 222 -301 c 256
 182.207925901 -301 156 -253.457758704 156 -210 c 256
 156 -166.193456994 174.15451575 -125.993722288 202 -111 c 257
 307 -111 l 258
 328.622048201 -111 349 -123.679620278 349 -143 c 257
 393 -87 l 257
 389.079767325 -71.3190692997 373.08153926 -62 355 -62 c 258
 235 -62 l 257
 167.821238421 -93.0055822674 106 -158.545299649 106 -249 c 256
 106 -272 114 -294 134 -315 c 256
 153 -335 175 -345 197 -345 c 256
 226.396287185 -345 249.957415275 -330.281938543 269 -316 c 257
EndSplineSet
EndChar

StartChar: DDhaU
Encoding: 108 -1 108
GlifName: D_D_haU_
Width: 929
VWidth: 0
Flags: HW
LayerCount: 2
Back
Fore
SplineSet
236 -221 m 257
NamedP: "hr00"
 312 -171 l 257
 312 21 l 257
 236 -29 l 257
 236 -93 236 -157 236 -221 c 257
NamedP: "hr00"
843 176 m 256
 843 111.545352548 782.455359951 62 717 62 c 256
 660.061399933 62 609.594901335 92.0058830754 581 125 c 257
 584 134 585 142 585 151 c 256
 585 178.256699414 575.144576951 200.748495168 560 214 c 257
 484 139 l 257
 504.021408966 139 516 124.322781831 516 104 c 256
 516 77.9811748843 478.296348739 62 450 62 c 256
 394.663582505 62 352.015292063 99.9816495239 322 136 c 257
 293.038760235 101.927953218 251.72684552 74 195 74 c 256
 142.685322333 74 93 144.905791775 93 200 c 256
 93 272.057916127 142.327829985 326.513466122 195 352 c 257
 377 352 l 258
 392.927111437 352 406 341.96151748 406 326 c 257
 482 389 l 257
 472.34746067 404.168276089 458.607487191 426 439 426 c 258
 293 426 l 257
 498 553 l 257
 498 647 l 257
 205 470 l 257
 205 414 l 257
 120.946615908 371.115620361 30 281.540530287 30 170 c 256
 30 129 44 90 73 53 c 256
 101 17 132 -1 165 -1 c 256
 211.966482233 -1 252.23328543 32.2332854296 280 60 c 257
 309.237586435 25.280366109 357.822869717 -1 420 -1 c 256
 456 -1 493 16 530 50 c 256
 535 55 540 59 544 64 c 257
 568.724305177 29.3859727524 616.17884813 -1 668 -1 c 256
 727 -1 782 23 831 72 c 256
 881 121 906 174 906 231 c 256
 906 284 888 332 848 370 c 256
 809 408 760 426 704 426 c 257
 661 352 l 257
 712 352 756 335 791 300 c 256
 826 266 843 225 843 176 c 256
EndSplineSet
EndChar

StartChar: DDhaUU
Encoding: 109 -1 109
GlifName: D_D_haU_U_
Width: 1264
VWidth: 0
Flags: HW
LayerCount: 2
Back
Fore
SplineSet
236 -221 m 257
NamedP: "hr00"
 312 -171 l 257
 312 21 l 257
 236 -29 l 257
 236 -93 236 -157 236 -221 c 257
NamedP: "hr00"
832 170 m 256
 832 111.959798279 786.570902799 62 729 62 c 256
 692 62 658 70 625 86 c 256
 608 95 593 105 578 117 c 257
 583 128 585 140 585 151 c 256
 585 178.256699414 575.144576951 200.748495168 560 214 c 257
 484 139 l 257
 504.021408966 139 516 124.322781831 516 104 c 256
 516 77.9811748843 478.296348739 62 450 62 c 256
 394.663582505 62 352.015292063 99.9816495239 322 136 c 257
 293.038760235 101.927953218 251.72684552 74 195 74 c 256
 142.685322333 74 93 144.905791775 93 200 c 256
 93 272.057916127 142.327829985 326.513466122 195 352 c 257
 377 352 l 258
 392.927111437 352 406 341.96151748 406 326 c 257
 482 389 l 257
 472.34746067 404.168276089 458.607487191 426 439 426 c 258
 293 426 l 257
 498 553 l 257
 498 647 l 257
 205 470 l 257
 205 414 l 257
 120.946615908 371.115620361 30 281.540530287 30 170 c 256
 30 129 44 90 73 53 c 256
 101 17 132 -1 165 -1 c 256
 211.966482233 -1 252.23328543 32.2332854296 280 60 c 257
 309.237586435 25.280366109 357.822869717 -1 420 -1 c 256
 460.857234637 -1 505.027860126 25.0278601262 541 61 c 257
 552 48 564 37 579 27 c 256
 609 8 641 -1 675 -1 c 256
 731 -1 783 22 830 68 c 256
 877 115 901 165 901 219 c 256
 901 274.084489115 867.1726366 321.359393714 835 352 c 257
 1025 352 l 257
 982.460303731 323.073006537 942 272.030750491 942 206 c 256
 942 146.237046441 1008.23975942 108 1070 108 c 256
 1110 108 1149 129 1186 172 c 256
 1223 214 1241 258 1241 304 c 256
 1241 337 1228 367 1199 391 c 256
 1170 415 1134 426 1094 426 c 258
 687 426 l 257
 637 352 l 257
 675 352 l 258
 718 352 755 334 786 298 c 256
 817 263 832 220 832 170 c 256
1184 255 m 256
 1184 213.717593093 1147.90148142 184 1107 184 c 256
 1057.72730569 184 1010 219.948821064 1010 268 c 256
 1010 308.189565986 1037.34397246 352 1075 352 c 256
 1103 352 1128 341 1149 320 c 257
 1172 301 1184 279 1184 255 c 256
EndSplineSet
EndChar

StartChar: DEVANAGARI_DANDA
Encoding: 110 2404 110
GlifName: D_E_V_A_N_A_G_A_R_I__D_A_N_D_A_
Width: 285
VWidth: 0
Flags: HW
LayerCount: 2
Back
Fore
SplineSet
139 -74 m 257
NamedP: "hr00"
 223 -14 l 257
 223 487 l 257
 139 427 l 257
 139 260 139 93 139 -74 c 257
NamedP: "hr00"
EndSplineSet
EndChar

StartChar: DEVANAGARI_DOUBLE_DANDA
Encoding: 111 2405 111
GlifName: D_E_V_A_N_A_G_A_R_I__D_O_U_B_L_E__D_A_N_D_A_
Width: 500
VWidth: 0
Flags: HW
LayerCount: 2
Back
Fore
SplineSet
354 -74 m 257
NamedP: "hr00"
 437 -14 l 257
 437 487 l 257
 354 427 l 257
 354 260 354 93 354 -74 c 257
NamedP: "hr00"
139 -74 m 257
 223 -14 l 257
 223 487 l 257
 139 427 l 257
 139 260 139 93 139 -74 c 257
EndSplineSet
EndChar

StartChar: Da
Encoding: 112 3110 112
GlifName: D_a
Width: 601
VWidth: 0
Flags: HW
LayerCount: 2
Back
Fore
SplineSet
274 64 m 257
 300.878354957 32.3784059333 347.833331527 -1 401 -1 c 256
 442 -1 482 22 521 67 c 256
 559 112 578 158 578 206 c 256
 578 261 556 311 510 357 c 256
 463 404 413 426 359 426 c 258
 300 426 l 257
 505 553 l 257
NamedP: "hr00"
 505 647 l 257
 211 470 l 257
 211 419 l 257
 169 408 132 384 99 347 c 256
 53 295 30 232 30 158 c 256
 30 119 43 82 68 49 c 256
 94 16 122 -1 152 -1 c 256
 202.252536935 -1 248.064881452 33.4880958255 274 64 c 257
316 148 m 257
 283.116699454 110.419085091 247.457122275 74 189 74 c 256
 133.50102255 74 87 119.974028965 87 175 c 256
 87 276.430826394 187.12944455 352 291 352 c 256
 351 352 407 334 458 297 c 256
 509 260 534 219 534 176 c 256
 534 120.914735624 496.070418597 67 444 67 c 256
 422 67 400 74 378 89 c 256
 356 103 335 123 316 148 c 257
EndSplineSet
EndChar

StartChar: DaAA
Encoding: 113 -1 113
GlifName: D_aA_A_
Width: 978
VWidth: 0
Flags: HW
LayerCount: 2
Back
Fore
SplineSet
274 64 m 257
 300.878354957 32.3784059333 347.833331527 -1 401 -1 c 256
 442 -1 482 22 521 67 c 256
 559 112 578 158 578 206 c 256
 578 259 557 308 514 352 c 257
 743 352 l 257
NamedP: "hr00"
 699.760342216 327.785791641 661 270.34111705 661 206 c 256
 661 146.568687752 723.800509268 108 784 108 c 256
 824 108 863 128 900 167 c 256
 938 208 955 249 955 291 c 256
 955 328 943 360 916 387 c 256
 889 414 858 426 821 426 c 258
 79 426 l 257
 55 352 l 257
 104 352 l 257
 54.6317879659 302.631787966 30 233.109845286 30 158 c 256
 30 119 43 82 68 49 c 256
 94 16 122 -1 152 -1 c 256
 202.252536935 -1 248.064881452 33.4880958255 274 64 c 257
905 268 m 256
 905 217.820965285 864.120174683 177 815 177 c 256
 766.992788295 177 718 209.4087282 718 255 c 256
 718 291.682593776 766.669043115 352 802 352 c 256
 853.830058252 352 905 317.905448805 905 268 c 256
316 148 m 257
 283.116699454 110.419085091 247.457122275 74 189 74 c 256
 133.50102255 74 87 119.974028965 87 175 c 256
 87 276.430826394 187.12944455 352 291 352 c 256
 351 352 407 334 458 297 c 256
 509 260 534 219 534 176 c 256
 534 120.914735624 496.070418597 67 444 67 c 256
 422 67 400 74 378 89 c 256
 356 103 335 123 316 148 c 257
EndSplineSet
EndChar

StartChar: DaAU
Encoding: 114 -1 114
GlifName: D_aA_U_
Width: 898
VWidth: 0
Flags: HW
LayerCount: 2
Back
Fore
SplineSet
274 64 m 257
 300.878354957 32.3784059333 347.833331527 -1 401 -1 c 256
 442 -1 482 22 521 67 c 256
 559 112 578 158 578 206 c 256
 578 261 556 311 510 357 c 256
 474 393 436 414 397 422 c 257
NamedP: "hr00"
 426 455 440 485 440 510 c 256
 440 527.809396842 434.731006211 546.781656315 428 558 c 257
 708 558 l 257
 682.717774879 540.49692107 661 503.472448606 661 461 c 256
 661 431 674 403 701 377 c 256
 728 352 758 339 790 339 c 256
 819 339 850 356 880 390 c 256
 911 425 925 460 925 493 c 256
 925 566.070120349 868.053838048 634 796 634 c 258
 195 634 l 257
 133 558 l 257
 275 558 l 258
 321.402935911 558 364 525.219532773 364 480 c 256
 364 452.570790145 343.855739137 426 317 426 c 256
 279.226763595 426 248.402850171 450.686763387 231 476 c 257
 170 406 l 257
 172 403 l 257
 145 391 121 372 99 347 c 256
 53 295 30 232 30 158 c 256
 30 119 43 82 68 49 c 256
 94 16 122 -1 152 -1 c 256
 202.252536935 -1 248.064881452 33.4880958255 274 64 c 257
861 455 m 256
 861 428.067684724 840.751848977 407 814 407 c 256
 770.63546103 407 723 458.548973212 723 504 c 256
 723 534.280264363 741.681927266 564 771 564 c 256
 818.271784069 564 861 504.404419469 861 455 c 256
316 148 m 257
 283.116699454 110.419085091 247.457122275 74 189 74 c 256
 133.50102255 74 87 119.974028965 87 175 c 256
 87 276.430826394 187.12944455 352 291 352 c 256
 351 352 407 334 458 297 c 256
 509 260 534 219 534 176 c 256
 534 120.914735624 496.070418597 67 444 67 c 256
 422 67 400 74 378 89 c 256
 356 103 335 123 316 148 c 257
EndSplineSet
EndChar

StartChar: DaE
Encoding: 115 -1 115
GlifName: D_aE_
Width: 601
VWidth: 0
Flags: HW
LayerCount: 2
Back
Fore
SplineSet
274 64 m 257
 300.878354957 32.3784059333 347.833331527 -1 401 -1 c 256
 442 -1 482 22 521 67 c 256
 559 112 578 158 578 206 c 256
 578 261 555 311 510 357 c 256
 478 389 445 410 410 419 c 257
 410 418 l 257
NamedP: "hr00"
 455 462 477 501 477 536 c 256
 477 553 471 568 460 581 c 257
 447 592 433 598 416 598 c 258
 124 598 l 257
 55 523 l 257
 361 523 l 258
 385.143448544 523 409 505.782069963 409 481 c 256
 409 443.666708291 346.602471662 427 304 427 c 256
 278.633647567 427 262.37799461 437.853720446 250 452 c 257
 231 423 l 257
 181 415 137 390 99 347 c 256
 53 295 30 232 30 158 c 256
 30 119 43 82 68 49 c 256
 94 16 122 -1 152 -1 c 256
 202.252536935 -1 248.064881452 33.4880958255 274 64 c 257
316 148 m 257
 283.116699454 110.419085091 247.457122275 74 189 74 c 256
 133.50102255 74 87 119.974028965 87 175 c 256
 87 276.430826394 187.12944455 352 291 352 c 256
 351 352 407 334 458 297 c 256
 509 260 534 219 534 176 c 256
 534 120.914735624 496.070418597 67 444 67 c 256
 422 67 400 74 378 89 c 256
 356 103 335 123 316 148 c 257
EndSplineSet
EndChar

StartChar: DaEE
Encoding: 116 -1 116
GlifName: D_aE_E_
Width: 601
VWidth: 0
Flags: HW
LayerCount: 2
Back
Fore
SplineSet
274 64 m 257
 300.878354957 32.3784059333 347.833331527 -1 401 -1 c 256
 442 -1 482 22 521 67 c 256
 559 112 578 158 578 206 c 256
 578 261 555 311 510 357 c 256
 478 389 445 410 410 419 c 257
 410 418 l 257
NamedP: "hr00"
 455 462 477 501 477 536 c 256
 477 553 471 568 460 581 c 257
 447 592 433 598 416 598 c 258
 397 598 l 257
 384 610 374 621 367 630 c 256
 360 638 356 645 356 651 c 256
 356 661.552117914 363.44302887 669 374 669 c 256
 391.386567458 669 404.982945396 655.017054604 416 644 c 257
 466 687 l 257
 453.647548704 711.704902591 431.586805518 731 397 731 c 256
 380 731 359 720 335 698 c 256
 311 675 299 656 299 640 c 256
 299 633 301 625 305 616 c 257
 310 609 316 603 322 598 c 257
 124 598 l 257
 55 523 l 257
 361 523 l 258
 387.395803918 523 409 496.807651298 409 469 c 256
 409 438.251884423 342.657883451 427 305 427 c 256
 279.662434837 427 262.509537211 437.703386044 250 452 c 257
 231 423 l 257
 181 415 137 390 99 347 c 256
 53 295 30 232 30 158 c 256
 30 119 43 82 68 49 c 256
 94 16 122 -1 152 -1 c 256
 202.252536935 -1 248.064881452 33.4880958255 274 64 c 257
316 148 m 257
 283.116699454 110.419085091 247.457122275 74 189 74 c 256
 133.50102255 74 87 119.974028965 87 175 c 256
 87 276.430826394 187.12944455 352 291 352 c 256
 351 352 407 334 458 297 c 256
 509 260 534 219 534 176 c 256
 534 120.914735624 496.070418597 67 444 67 c 256
 422 67 400 74 378 89 c 256
 356 103 335 123 316 148 c 257
EndSplineSet
EndChar

StartChar: DaHalanth
Encoding: 117 -1 117
GlifName: D_aH_alanth
Width: 669
VWidth: 0
Flags: HW
LayerCount: 2
Back
Fore
SplineSet
274 64 m 257
 300.878354957 32.3784059333 347.833331527 -1 401 -1 c 256
 442 -1 482 22 521 67 c 256
 559 112 578 158 578 206 c 256
 578 261 556 311 510 357 c 256
 463 404 413 426 360 426 c 257
NamedP: "hr00"
 364 439 366 454 366 473 c 257
 353.284339522 445.752156118 332.086184866 426 292 426 c 256
 266.543578817 426 238 444.387269147 238 468 c 256
 238 477 245 487 258 500 c 256
 271 513 290 526 314 541 c 257
 275.627189457 547.139649687 232 570.126971873 232 608 c 256
 232 624.623083408 254.258807685 637 274 637 c 256
 297 637 322 631 347 618 c 256
 406 589 475 575 554 575 c 256
 576 575 596 581 615 594 c 257
 717 711 l 257
 679.636371011 677.033064555 641.012878176 662 577 662 c 256
 526 662 468 670 401 687 c 256
 368 696 338 700 311 700 c 256
 278 700 247 687 219 660 c 256
 190 633 176 603 176 571 c 256
 176 543.416869773 202.9431106 520.5284447 224 510 c 257
 205 494 191 479 180 466 c 256
 169 451 164 440 164 431 c 256
 164 421 166 412 171 403 c 257
 145 390 121 372 99 347 c 256
 53 295 30 232 30 158 c 256
 30 119 43 82 68 49 c 256
 94 16 122 -1 152 -1 c 256
 202.252536935 -1 248.064881452 33.4880958255 274 64 c 257
189 67 m 256
 131.353832534 67 87 117.523706236 87 175 c 256
 87 224 107 265 147 299 c 256
 180 327 218 345 262 350 c 257
 274 350 l 258
 280 350 286 351 291 352 c 257
 351 352 407 334 458 297 c 256
 509 260 534 219 534 176 c 256
 534 120.914735624 496.070418597 67 444 67 c 256
 422 67 400 74 378 89 c 256
 356 103 335 123 316 148 c 257
 294 123 272 103 250 89 c 256
 228 74 208 67 189 67 c 256
EndSplineSet
EndChar

StartChar: DaI
Encoding: 118 -1 118
GlifName: D_aI_
Width: 601
VWidth: 0
Flags: HW
LayerCount: 2
Back
Fore
SplineSet
316 148 m 257
 282.830233099 110.091694971 247.18139595 74 188 74 c 256
NamedP: "hr00"
 128.526524855 74 87 133.105666836 87 194 c 256
 87 272.310817933 140.134382052 352 214 352 c 258
 316 352 l 258
 370 352 420 334 465 297 c 256
 511 260 534 219 534 176 c 256
 534 120.914735624 496.070418597 67 444 67 c 256
 422 67 400 74 378 89 c 256
 356 103 335 123 316 148 c 257
353 516 m 256
 353 466.348832377 312.164836426 426 261 426 c 256
 234 426 206 441 178 471 c 256
 150 500 136 530 136 559 c 256
 136 600.833652722 184.617900453 630 231 630 c 256
 256 630 282 616 310 590 c 256
 338 563 353 539 353 516 c 256
157 383 m 257
 91.6280489793 339.41869932 30 258.807870139 30 158 c 256
 30 119 43 82 68 49 c 256
 94 16 122 -1 151 -1 c 256
 173 -1 194 6 215 17 c 256
 237 29 257 44 274 64 c 257
 300.878354957 32.3784059333 347.833331527 -1 401 -1 c 256
 442 -1 482 22 521 67 c 256
 559 112 578 158 578 206 c 256
 578 262 554 312 505 355 c 256
 455 398 400 420 339 420 c 257
 378.246538921 442.642233993 427 487.525049371 427 540 c 256
 427 599.446176927 373.891759001 669 316 669 c 258
 214 669 l 258
 179 669 146 652 116 619 c 256
 87 586 73 549 73 510 c 256
 73 450.994495109 114.541178447 405.862442375 157 383 c 257
EndSplineSet
EndChar

StartChar: DaII
Encoding: 119 -1 119
GlifName: D_aI_I_
Width: 601
VWidth: 0
Flags: HW
LayerCount: 2
Back
Fore
SplineSet
316 148 m 257
 282.830233099 110.091694971 247.18139595 74 188 74 c 256
NamedP: "hr00"
 128.526524855 74 87 133.105666836 87 194 c 256
 87 272.310817933 140.134382052 352 214 352 c 258
 316 352 l 258
 370 352 420 334 465 297 c 256
 511 260 534 219 534 176 c 256
 534 120.914735624 496.070418597 67 444 67 c 256
 422 67 400 74 378 89 c 256
 356 103 335 123 316 148 c 257
353 516 m 256
 353 466.348832377 312.164836426 426 261 426 c 256
 234 426 206 441 178 471 c 256
 150 500 136 530 136 559 c 256
 136 600.833652722 184.617900453 630 231 630 c 256
 256 630 282 616 310 590 c 256
 338 563 353 539 353 516 c 256
157 383 m 257
 91.6280489793 339.41869932 30 258.807870139 30 158 c 256
 30 119 43 82 68 49 c 256
 94 16 122 -1 151 -1 c 256
 173 -1 194 6 215 17 c 256
 237 29 257 44 274 64 c 257
 300.878354957 32.3784059333 347.833331527 -1 401 -1 c 256
 442 -1 482 22 521 67 c 256
 559 112 578 158 578 206 c 256
 578 262 554 312 505 355 c 256
 455 398 400 420 339 420 c 257
 378.246538921 442.642233993 427 487.525049371 427 540 c 256
 427 597.606727235 370.817462913 666.969723596 316 669 c 256
 302 670 287 674 271 684 c 256
 254 694 245 703 245 710 c 256
 245 720.015894793 251.967965708 728 262 728 c 256
 289.037791939 728 309.611428042 709.582857936 322 691 c 257
 378 753 l 257
 363.437377199 774.843934201 328.795348943 790 292 790 c 256
 273 790 252 779 229 757 c 256
 206 736 194 716 194 699 c 256
 194 687.28587784 203.21606517 673.670360898 211 669 c 257
 178 669 146 652 116 619 c 256
 87 586 73 549 73 510 c 256
 73 450.994495109 114.541178447 405.862442375 157 383 c 257
EndSplineSet
EndChar

StartChar: DaO
Encoding: 120 -1 120
GlifName: D_aO_
Width: 875
VWidth: 0
Flags: HW
LayerCount: 2
Back
Fore
SplineSet
274 64 m 257
 300.878354957 32.3784059333 347.833331527 -1 401 -1 c 256
 442 -1 482 22 521 67 c 256
 559 112 578 158 578 206 c 256
 578 261 556 311 510 357 c 256
 463 404 413 426 359 426 c 258
 275 426 l 258
NamedP: "hr00"
 238.246917346 426 202 453.693946236 202 491 c 256
 202 515.784934454 225.864283413 533 250 533 c 258
 321 533 l 258
 365.891417822 533 399.443161648 512.44631033 419 484 c 257
 434 500 449 512 462 520 c 256
 475 529 486 533 497 533 c 258
 711 533 l 257
 686.962254533 511.790224588 658 479.825283585 658 444 c 256
 658 421 669 399 695 380 c 256
 721 360 750 352 780 352 c 256
 807 352 834 369 862 403 c 256
 889 437 902 471 902 504 c 256
 902 532 892 558 868 579 c 256
 845 600 818 609 786 609 c 258
 552 609 l 258
 540 609 526 605 509 596 c 256
 492 588 474 576 455 560 c 257
 431.979064075 588.3334596 393.852623672 609 346 609 c 258
 280 609 l 258
 251 609 221 593 191 561 c 256
 161 530 146 499 146 468 c 256
 146 442 152 419 165 400 c 257
 142 388 120 370 99 347 c 256
 53 295 30 232 30 158 c 256
 30 119 43 82 68 49 c 256
 94 16 122 -1 152 -1 c 256
 202.252536935 -1 248.064881452 33.4880958255 274 64 c 257
845 468 m 256
 845 444.655362345 825.792999785 426 804 426 c 256
 764.566959698 426 726 452.284076013 726 491 c 256
 726 514.344637655 745.207000215 533 767 533 c 256
 806.433040302 533 845 506.715923987 845 468 c 256
316 148 m 257
 283.116699454 110.419085091 247.457122275 74 189 74 c 256
 133.50102255 74 87 119.974028965 87 175 c 256
 87 276.430826394 187.12944455 352 291 352 c 256
 351 352 407 334 458 297 c 256
 509 260 534 219 534 176 c 256
 534 120.914735624 496.070418597 67 444 67 c 256
 422 67 400 74 378 89 c 256
 356 103 335 123 316 148 c 257
EndSplineSet
EndChar

StartChar: DaOO
Encoding: 121 -1 121
GlifName: D_aO_O_
Width: 895
VWidth: 0
Flags: HW
LayerCount: 2
Back
Fore
SplineSet
274 64 m 257
 300.878354957 32.3784059333 347.833331527 -1 401 -1 c 256
 442 -1 482 22 521 67 c 256
 559 112 578 158 578 206 c 256
 578 261 556 311 510 357 c 256
 463 404 413 426 359 426 c 258
 280 426 l 258
NamedP: "hr00"
 243.010044278 426 208 455.196120036 208 491 c 256
 208 515.784934454 231.864283413 533 256 533 c 258
 327 533 l 258
 372.67365565 533 405.182544984 512.825389115 425 484 c 257
 440 500 455 512 468 520 c 256
 481 529 493 533 504 533 c 258
 711 533 l 257
 694 518 682 503 673 489 c 256
 664 473 659 460 659 450 c 256
 659 426 671 404 696 383 c 256
 723 362 751 352 781 352 c 256
 808 352 835 369 863 403 c 256
 890 437 903 471 903 504 c 256
 903 543.768798607 876.165086286 578.788002825 848 596 c 258
 800 626 l 258
 783 636 770 647 761 659 c 257
 751 670 746 681 746 693 c 256
 746 716.796726256 769.318824263 734 794 734 c 256
 801 734 809 730 816 723 c 256
 825 716 833 705 841 692 c 257
 922 741 l 257
 908.271070055 768.45785989 878.795849197 790 841 790 c 256
 806 790 771 778 735 750 c 256
 700 723 683 695 683 668 c 256
 683 642.151606239 705.057378197 622.456966352 723 609 c 257
 559 609 l 258
 546 609 532 605 515 596 c 256
 498 588 480 576 461 560 c 257
 437.695899142 588.681970286 400.676158999 609 352 609 c 258
 286 609 l 258
 257 609 227 593 196 561 c 256
 166 530 151 499 151 468 c 256
 151 443 157 421 169 402 c 257
 144 389 120 371 99 347 c 256
 53 295 30 232 30 158 c 256
 30 119 43 82 68 49 c 256
 94 16 122 -1 152 -1 c 256
 202.252536935 -1 248.064881452 33.4880958255 274 64 c 257
846 468 m 256
 846 444.655362345 826.792999785 426 805 426 c 256
 766.279667291 426 727 453.311899832 727 491 c 256
 727 503 731 513 740 520 c 257
 747 529 757 533 769 533 c 256
 807.462571102 533 846 506.250333101 846 468 c 256
316 148 m 257
 283.116699454 110.419085091 247.457122275 74 189 74 c 256
 133.50102255 74 87 119.974028965 87 175 c 256
 87 276.430826394 187.12944455 352 291 352 c 256
 351 352 407 334 458 297 c 256
 509 260 534 219 534 176 c 256
 534 120.914735624 496.070418597 67 444 67 c 256
 422 67 400 74 378 89 c 256
 356 103 335 123 316 148 c 257
EndSplineSet
EndChar

